<?xml version='1.0' encoding='utf-8'?>
<!-- Generator: Adobe Illustrator 19.0.0, SVG Export Plug-In . SVG Version: 6.00 Build 0)  -->
<svg xmlns:xlink="http://www.w3.org/1999/xlink" version="1.1" viewBox="0 0 1920 980" xml:space="preserve" y="0px" xmlns="http://www.w3.org/2000/svg" style="enable-background:new 0 0 1920 980;" x="0px">
 <style type="text/css">&#xd;
	.st0{fill:#ACAFAF;}&#xd;
	.st1{fill:#3D4551;}&#xd;
	.st2{fill:none;stroke:#F07F0A;stroke-width:0.8119;stroke-miterlimit:10;}&#xd;
	.st3{fill:none;stroke:#643A1B;stroke-width:0.8119;stroke-miterlimit:10;}&#xd;
	.st4{fill:none;stroke:#F07F0A;stroke-width:1.1581;stroke-miterlimit:10;}&#xd;
	.st5{fill:none;stroke:#643A1B;stroke-width:1.1581;stroke-miterlimit:10;}&#xd;
	.st6{fill:#FFFFFF;}&#xd;
	.st7{fill:url(#SVGID_1_);stroke:#080D15;stroke-width:1.123;stroke-miterlimit:10;}&#xd;
	.st8{fill:#181F26;}&#xd;
	.st9{fill:url(#SVGID_2_);stroke:#080D15;stroke-width:1.123;stroke-miterlimit:10;}&#xd;
	.st10{fill:#6D6F72;}&#xd;
	.st11{fill:url(#SVGID_3_);stroke:#080D15;stroke-miterlimit:10;}&#xd;
	.st12{fill:#EEEEEF;}&#xd;
	.st13{fill:url(#SVGID_4_);stroke:#080D15;stroke-miterlimit:10;}&#xd;
	.st14{fill:#464749;}&#xd;
	.st15{fill:url(#SVGID_5_);stroke:#080D15;stroke-width:1.123;stroke-miterlimit:10;}&#xd;
	.st16{fill:url(#SVGID_6_);stroke:#080D15;stroke-width:1.123;stroke-miterlimit:10;}&#xd;
	.st17{fill:url(#SVGID_7_);stroke:#080D15;stroke-width:1.1232;stroke-miterlimit:10;}&#xd;
	.st18{fill:url(#SVGID_8_);stroke:#080D15;stroke-width:1.1232;stroke-miterlimit:10;}&#xd;
	.st19{fill:url(#SVGID_9_);stroke:#080D15;stroke-width:1.123;stroke-miterlimit:10;}&#xd;
	.st20{fill:url(#SVGID_10_);stroke:#080D15;stroke-width:1.123;stroke-miterlimit:10;}&#xd;
	.st21{fill:url(#SVGID_11_);stroke:#080D15;stroke-width:1.1229;stroke-miterlimit:10;}&#xd;
	.st22{fill:url(#SVGID_12_);stroke:#080D15;stroke-width:1.1229;stroke-miterlimit:10;}&#xd;
	.st23{fill:none;stroke:#FFFFFF;stroke-width:2;stroke-miterlimit:10;}&#xd;
	.st24{fill:url(#tab-0_1_);stroke:#6D6F72;stroke-width:0.2932;stroke-miterlimit:10;}&#xd;
	.st25{fill:url(#tab-0-Selected_1_);stroke:#080D15;stroke-width:0.2932;stroke-miterlimit:10;}&#xd;
	.st26{fill:url(#tab-1_1_);stroke:#6D6F72;stroke-width:0.2932;stroke-miterlimit:10;}&#xd;
	.st27{fill:url(#tab-1-Selected_1_);stroke:#080D15;stroke-width:0.2932;stroke-miterlimit:10;}&#xd;
	.st28{fill:url(#button_1_);stroke:#6D6F72;stroke-width:0.2588;stroke-miterlimit:10;}&#xd;
	.st29{fill:url(#button-pressed_1_);stroke:#080D15;stroke-width:0.2588;stroke-miterlimit:10;}&#xd;
	.st30{fill:url(#tab-2-Selected_1_);stroke:#080D15;stroke-width:0.2932;stroke-miterlimit:10;}&#xd;
	.st31{fill:url(#tab-2_1_);stroke:#696D6E;stroke-width:0.2932;stroke-miterlimit:10;}&#xd;
	.st32{fill:#FFFFFF;stroke:#FFFFFF;stroke-width:1.3322;stroke-miterlimit:10;}&#xd;
	.st33{fill:#808283;stroke:#808283;stroke-width:1.2914;stroke-miterlimit:10;}&#xd;
	.st34{fill:url(#SVGID_13_);stroke:#6D6F72;stroke-width:1.1229;stroke-miterlimit:10;}&#xd;
	.st35{fill:none;stroke:#FFFFFF;stroke-width:2;stroke-linecap:round;stroke-miterlimit:10;}&#xd;
	.st36{fill:url(#SVGID_14_);stroke:#6D6F72;stroke-width:1.1229;stroke-miterlimit:10;}&#xd;
	.st37{fill:none;stroke:#6D6F72;stroke-width:2;stroke-linecap:round;stroke-miterlimit:10;}&#xd;
	.st38{fill:url(#SVGID_15_);stroke:#6D6F72;stroke-miterlimit:10;}&#xd;
	.st39{fill:url(#SVGID_16_);stroke:#6D6F72;stroke-miterlimit:10;}&#xd;
	.st40{fill:none;stroke:#181F26;stroke-width:2;stroke-linecap:round;stroke-miterlimit:10;}&#xd;
	.st41{fill:url(#SVGID_17_);stroke:#181F26;stroke-miterlimit:10;}&#xd;
	.st42{fill:none;stroke:#6D6F72;stroke-width:4;stroke-linecap:round;stroke-miterlimit:10;}&#xd;
	.st43{fill:url(#SVGID_18_);stroke:#080D15;stroke-width:1.1229;stroke-miterlimit:10;}&#xd;
	.st44{fill:#FFFFFF;stroke:#FFFFFF;stroke-width:1.9906;stroke-linecap:round;stroke-linejoin:round;stroke-miterlimit:10;}&#xd;
	.st45{fill:url(#SVGID_19_);stroke:#181F26;stroke-miterlimit:10;}&#xd;
	.st46{fill:none;stroke:#181F26;stroke-width:4;stroke-linecap:round;stroke-miterlimit:10;}&#xd;
	.st47{fill:url(#SVGID_20_);stroke:#080D15;stroke-width:1.1229;stroke-miterlimit:10;}&#xd;
	.st48{fill:#6D6F72;stroke:#6D6F72;stroke-width:1.9906;stroke-linecap:round;stroke-linejoin:round;stroke-miterlimit:10;}&#xd;
	.st49{fill:#97999C;stroke:#FFFFFF;stroke-miterlimit:10;}&#xd;
	.st50{fill:none;stroke:#5A5B5E;stroke-width:2;stroke-miterlimit:10;}&#xd;
	.st51{fill:#5A5B5E;}&#xd;
	.st52{fill:#B4B6B6;}&#xd;
	.st53{fill:#97999C;stroke:#97999C;stroke-miterlimit:10;}&#xd;
	.st54{fill:#545658;stroke:#545658;stroke-miterlimit:10;}&#xd;
	.st55{fill:#6C7D92;stroke:#AEB0B3;stroke-width:0.9818;stroke-miterlimit:10;}&#xd;
	.st56{fill:none;stroke:#F07F0A;stroke-width:2.5186;stroke-miterlimit:10;}&#xd;
	.st57{fill:none;stroke:#F07F0A;stroke-width:2.5143;stroke-miterlimit:10;}&#xd;
	.st58{fill:none;stroke:#FFFFFF;stroke-linecap:round;stroke-linejoin:round;stroke-miterlimit:10;}&#xd;
	.st59{fill:#29313C;stroke:#818386;stroke-width:0.6692;stroke-miterlimit:10;}&#xd;
	.st60{fill:none;stroke:#FFFFFF;stroke-width:1.1512;stroke-miterlimit:10;}&#xd;
	.st61{fill:none;stroke:#818386;stroke-width:1.1512;stroke-miterlimit:10;}&#xd;
	.st62{fill:none;stroke:#FFFFFF;stroke-miterlimit:10;}&#xd;
	.st63{fill:none;stroke:#696D6E;stroke-miterlimit:10;}&#xd;
	.st64{fill:#29313C;}&#xd;
	.st65{fill:#969999;}&#xd;
	.st66{fill:#1B2229;}&#xd;
	.st67{fill:#FFFFFF;stroke:#FFFFFF;stroke-width:0.4778;stroke-linecap:round;stroke-linejoin:round;stroke-miterlimit:10;}&#xd;
	.st68{fill:#FFFFFF;stroke:#FFFFFF;stroke-width:0.9818;stroke-miterlimit:10;}&#xd;
	.st69{fill:#3E4141;stroke:#3E4141;stroke-width:0.9818;stroke-miterlimit:10;}&#xd;
	.st70{fill:#464749;stroke:#464749;stroke-width:0.9818;stroke-miterlimit:10;}&#xd;
	.st71{fill:#464749;stroke:#464749;stroke-linecap:round;stroke-linejoin:round;stroke-miterlimit:10;}&#xd;
	.st72{font-family:'BloggerSans';}&#xd;
	.st73{font-size:14.6053px;}&#xd;
	.st74{fill:#EEEEEF;stroke:#EEEEEF;stroke-linecap:round;stroke-linejoin:round;stroke-miterlimit:10;}&#xd;
	.st75{font-size:14.6052px;}&#xd;
	.st76{fill:url(#SVGID_21_);stroke:#F07F0A;stroke-width:1.0026;stroke-miterlimit:10;}&#xd;
	.st77{fill:#F07F0A;stroke:#F07F0A;stroke-width:1.2019;stroke-miterlimit:10;}&#xd;
	.st78{fill:url(#SVGID_22_);stroke:#F07F0A;stroke-width:1.0026;stroke-miterlimit:10;}&#xd;
	.st79{fill:#6D6F72;stroke:#6D6F72;stroke-width:1.2019;stroke-miterlimit:10;}&#xd;
	.st80{fill:url(#SVGID_23_);stroke:#464749;stroke-width:1.0026;stroke-miterlimit:10;}&#xd;
	.st81{fill:#181F26;stroke:#464749;stroke-width:1.2168;stroke-miterlimit:10;}&#xd;
	.st82{fill:url(#SVGID_24_);stroke:#464749;stroke-width:1.0026;stroke-miterlimit:10;}&#xd;
	.st83{fill:#181F26;stroke:#6D6F72;stroke-width:1.2168;stroke-miterlimit:10;}&#xd;
	.st84{fill:#97999C;stroke:#97999C;stroke-width:0.7514;stroke-miterlimit:10;}&#xd;
	.st85{fill:#EEEEEF;stroke:#EEEEEF;stroke-width:0.7514;stroke-miterlimit:10;}&#xd;
	.st86{fill:#97999C;stroke:#97999C;stroke-width:0.7467;stroke-miterlimit:10;}&#xd;
	.st87{fill:#EEEEEF;stroke:#EEEEEF;stroke-width:0.7467;stroke-miterlimit:10;}&#xd;
	.st88{fill:#F07F0A;stroke:#F07F0A;stroke-width:0.374;stroke-miterlimit:10;}&#xd;
	.st89{fill:#97999C;stroke:#97999C;stroke-width:0.374;stroke-miterlimit:10;}&#xd;
	.st90{fill:#F07F0A;stroke:#F07F0A;stroke-width:0.4675;stroke-miterlimit:10;}&#xd;
	.st91{fill:#97999C;stroke:#97999C;stroke-width:0.4675;stroke-miterlimit:10;}&#xd;
	.st92{fill:#FFFFFF;stroke:#FFFFFF;stroke-width:0.4675;stroke-miterlimit:10;}&#xd;
	.st93{fill:#FFFFFF;stroke:#FFFFFF;stroke-width:0.374;stroke-miterlimit:10;}&#xd;
	.st94{fill:url(#SVGID_25_);stroke:#080D15;stroke-width:1.1286;stroke-miterlimit:10;}&#xd;
	.st95{fill:#FFFFFF;stroke:#FFFFFF;stroke-width:1.3731;stroke-linecap:round;stroke-linejoin:round;stroke-miterlimit:10;}&#xd;
	.st96{fill:url(#SVGID_26_);stroke:#080D15;stroke-width:1.1286;stroke-miterlimit:10;}&#xd;
	.st97{fill:#464749;stroke:#464749;stroke-width:1.3731;stroke-linecap:round;stroke-linejoin:round;stroke-miterlimit:10;}&#xd;
	.st98{fill:url(#SVGID_27_);stroke:#080D15;stroke-width:1.1286;stroke-miterlimit:10;}&#xd;
	.st99{fill:none;stroke:#181F26;stroke-width:3;stroke-linecap:round;stroke-miterlimit:10;}&#xd;
	.st100{fill:url(#SVGID_28_);stroke:#080D15;stroke-width:1.1286;stroke-miterlimit:10;}&#xd;
	.st101{fill:none;stroke:#6D6F72;stroke-width:3;stroke-linecap:round;stroke-miterlimit:10;}&#xd;
	.st102{fill:url(#SVGID_29_);stroke:#080D15;stroke-width:1.1183;stroke-miterlimit:10;}&#xd;
	.st103{fill:#CE2530;}&#xd;
	.st104{fill:url(#SVGID_30_);stroke:#080D15;stroke-width:1.1183;stroke-miterlimit:10;}&#xd;
	.st105{fill:#5D0517;}&#xd;
	.st106{fill:url(#SVGID_31_);stroke:#FFFFFF;stroke-width:0.7613;stroke-miterlimit:10;}&#xd;
	.st107{fill:url(#SVGID_32_);stroke:#FFFFFF;stroke-width:0.7613;stroke-miterlimit:10;}&#xd;
</style>
 <g id="Calque_1">
  <g id="creernouvelagent-pressed">
   <path class="st0" d="M416.5,476.2c0,1.3,0,2.6,0,3.8c0,0.7,0,1.5,0,2.2c0,0.4,0.2,0.8,0.6,0.8c0.4,0,0.6-0.3,0.6-0.7&#xd;    c0-0.1,0-0.1,0-0.2c0-2.1,0-4.1,0-6.2c0-0.3-0.2-0.7-0.4-0.9c-1-1.1-2.1-2.1-3.1-3.1c-0.3-0.3-0.6-0.4-1.1-0.4c-2.7,0-5.4,0-8.1,0&#xd;    c-0.9,0-1,0.2-1,1c0,4.9,0,9.7,0,14.6c0,0.9,0.2,1,1.1,1c2.2,0,4.4,0,6.5,0c0.2,0,0.4,0,0.6-0.1c0.2-0.1,0.5-0.4,0.5-0.5&#xd;    c0-0.2-0.2-0.4-0.4-0.6c-0.1-0.1-0.3,0-0.5,0c-2,0-3.9,0-5.9,0c-0.2,0-0.4,0-0.6,0c0-4.8,0-9.5,0-14.2c2.6,0,5.1,0,7.7,0&#xd;    c0,0.9,0,1.7,0,2.6c0,0.8,0.2,0.9,0.9,0.9C414.7,476.2,415.5,476.2,416.5,476.2z M414.1,485.7c0,0.6,0,1.1,0,1.6&#xd;    c0,0.6,0.2,0.8,0.6,0.8c0.5,0,0.6-0.4,0.6-0.8c0-0.5,0-1,0-1.6c0.6,0,1.1,0,1.6,0c0.4,0,0.7-0.1,0.7-0.6c0-0.5-0.3-0.6-0.7-0.6&#xd;    c-0.5,0-1,0-1.6,0c0-0.6,0-1.1,0-1.6c0-0.4-0.1-0.8-0.6-0.8c-0.5,0-0.6,0.3-0.6,0.8c0,0.5,0,1,0,1.6c-0.6,0-1.1,0-1.7,0&#xd;    c-0.4,0-0.7,0.2-0.7,0.6c0,0.4,0.3,0.6,0.7,0.6C413,485.7,413.5,485.7,414.1,485.7z"/>
   <path class="st0" d="M416.5,476.2c-0.9,0-1.8,0-2.6,0c-0.8,0-0.9-0.2-0.9-0.9c0-0.8,0-1.7,0-2.6c-2.6,0-5.1,0-7.7,0&#xd;    c0,4.7,0,9.4,0,14.2c0.2,0,0.4,0,0.6,0c2,0,3.9,0,5.9,0c0.2,0,0.4,0,0.5,0c0.2,0.2,0.4,0.4,0.4,0.6c0,0.2-0.3,0.4-0.5,0.5&#xd;    c-0.1,0.1-0.4,0.1-0.6,0.1c-2.2,0-4.4,0-6.5,0c-0.9,0-1.1-0.2-1.1-1c0-4.9,0-9.7,0-14.6c0-0.9,0.2-1,1-1c2.7,0,5.4,0,8.1,0&#xd;    c0.4,0,0.8,0.1,1.1,0.4c1,1.1,2.1,2.1,3.1,3.1c0.2,0.2,0.4,0.6,0.4,0.9c0,2.1,0,4.1,0,6.2c0,0.1,0,0.1,0,0.2&#xd;    c0,0.4-0.2,0.7-0.6,0.7c-0.5,0-0.6-0.3-0.6-0.8c0-0.7,0-1.5,0-2.2C416.5,478.8,416.5,477.5,416.5,476.2z M415.4,474.9&#xd;    c-0.4-0.4-0.8-0.9-1.2-1.4c0,0.5,0,0.9,0,1.4C414.6,474.9,415,474.9,415.4,474.9z"/>
   <path class="st0" d="M414.1,485.7c-0.6,0-1.1,0-1.6,0c-0.4,0-0.7-0.2-0.7-0.6c0-0.4,0.3-0.6,0.7-0.6c0.5,0,1.1,0,1.7,0&#xd;    c0-0.6,0-1.1,0-1.6c0-0.4,0.1-0.8,0.6-0.8c0.5,0,0.6,0.3,0.6,0.8c0,0.5,0,1,0,1.6c0.6,0,1.1,0,1.6,0c0.4,0,0.8,0.1,0.7,0.6&#xd;    c0,0.5-0.3,0.6-0.7,0.6c-0.5,0-1,0-1.6,0c0,0.6,0,1.1,0,1.6c0,0.4-0.1,0.8-0.6,0.8c-0.4,0-0.6-0.2-0.6-0.8&#xd;    C414.1,486.7,414.1,486.3,414.1,485.7z"/>
  </g>
  <g id="importer-pressed">
   <path class="st0" d="M442.4,489.8c-1.9,0-3.7,0-5.6,0c-1.6,0-2.8-1.1-2.8-2.7c0-1.2,0-2.5,0-3.7c0-0.5,0.3-0.9,0.7-0.9&#xd;    c0.5,0,0.8,0.3,0.8,0.9c0,1.2,0,2.3,0,3.5c0,1,0.4,1.4,1.4,1.4c3.7,0,7.4,0,11.1,0c1,0,1.4-0.4,1.4-1.4c0-1.1,0-2.3,0-3.4&#xd;    c0-0.6,0.3-0.9,0.7-0.9c0.5,0,0.8,0.3,0.8,0.9c0,1.2,0,2.5,0,3.7c0,1.5-1.2,2.6-2.7,2.7C446.2,489.8,444.3,489.8,442.4,489.8z"/>
   <path class="st0" d="M443.2,482.1c0.7-0.7,1.5-1.4,2.3-2.1c0.1-0.1,0.2-0.2,0.4-0.3c0.3-0.2,0.6-0.2,0.9,0.1&#xd;    c0.3,0.3,0.3,0.6,0.1,0.9c-0.1,0.1-0.2,0.2-0.3,0.3c-1.2,1.2-2.3,2.3-3.5,3.5c-0.5,0.5-0.9,0.5-1.4,0c-1.2-1.2-2.4-2.4-3.5-3.5&#xd;    c-0.4-0.4-0.4-0.8-0.1-1.1c0.3-0.3,0.7-0.3,1.2,0.1c0.8,0.8,1.6,1.6,2.5,2.3c0-0.2,0-0.3,0-0.5c0-2.4,0-4.9,0-7.3&#xd;    c0-0.2,0-0.3,0-0.5c0.1-0.4,0.3-0.6,0.7-0.7c0.4,0,0.7,0.2,0.8,0.7c0,0.2,0,0.3,0,0.5c0,2.4,0,4.8,0,7.2&#xd;    C443.2,481.9,443.2,482.1,443.2,482.1z"/>
  </g>
  <g id="exporter-pressed">
   <path class="st0" d="M469.1,490.1c-1.8,0-3.6,0-5.5,0c-1.6,0-2.7-1.1-2.8-2.7c0-1.2,0-2.4,0-3.6c0-0.5,0.3-0.9,0.8-0.9&#xd;    c0.4,0,0.7,0.3,0.7,0.9c0,1.1,0,2.3,0,3.4c0,1,0.4,1.4,1.4,1.4c3.6,0,7.3,0,10.9,0c1,0,1.4-0.4,1.4-1.4c0-1.1,0-2.2,0-3.4&#xd;    c0-0.6,0.3-0.9,0.7-0.9c0.5,0,0.7,0.3,0.7,0.9c0,1.2,0,2.4,0,3.6c0,1.5-1.2,2.6-2.7,2.6C472.8,490.1,471,490.1,469.1,490.1z"/>
   <path class="st0" d="M469.9,476.7c0,0.2,0,0.3,0,0.5c0,2.4,0,4.7,0,7.1c0,0.8-0.2,1.1-0.7,1.1c-0.5,0-0.7-0.4-0.7-1.1&#xd;    c0-2.4,0-4.7,0-7.1c0-0.2,0-0.3,0-0.6c-0.2,0.1-0.3,0.2-0.4,0.3c-0.7,0.7-1.4,1.4-2.1,2.1c-0.3,0.2-0.6,0.4-0.9,0.2&#xd;    c-0.3-0.2-0.4-0.4-0.4-0.8c0-0.2,0.1-0.3,0.2-0.4c1.2-1.2,2.4-2.4,3.6-3.6c0.4-0.4,0.8-0.4,1.2,0c1.2,1.2,2.4,2.4,3.6,3.6&#xd;    c0.4,0.4,0.4,0.8,0.1,1.1c-0.3,0.3-0.7,0.3-1.1-0.1c-0.8-0.8-1.5-1.5-2.3-2.3C470,476.7,469.9,476.7,469.9,476.7z"/>
  </g>
  <g id="supprimerplusieurs-pressed">
   <g>
    <path class="st0" d="M505.7,478c0,1.3,0,2.6,0,3.8c0,0.7,0,1.5,0,2.2c0,0.4,0.2,0.8,0.6,0.8c0.4,0,0.6-0.3,0.6-0.7&#xd;     c0-0.1,0-0.1,0-0.2c0-2.1,0-4.1,0-6.2c0-0.3-0.2-0.7-0.4-0.9c-1-1.1-2.1-2.1-3.1-3.1c-0.3-0.3-0.6-0.4-1.1-0.4&#xd;     c-2.7,0-5.4,0-8.1,0c-0.9,0-1,0.2-1,1c0,4.9,0,9.7,0,14.6c0,0.9,0.2,1,1.1,1c2.2,0,4.4,0,6.5,0c0.2,0,0.4,0,0.6-0.1&#xd;     c0.2-0.1,0.5-0.4,0.5-0.5c0-0.2-0.2-0.4-0.4-0.6c-0.1-0.1-0.3,0-0.5,0c-2,0-3.9,0-5.9,0c-0.2,0-0.4,0-0.6,0c0-4.8,0-9.5,0-14.2&#xd;     c2.6,0,5.1,0,7.7,0c0,0.9,0,1.7,0,2.6c0,0.8,0.2,0.9,0.9,0.9C503.9,478,504.8,478,505.7,478z"/>
    <path class="st0" d="M505.7,478c-0.9,0-1.8,0-2.6,0c-0.8,0-0.9-0.2-0.9-0.9c0-0.8,0-1.7,0-2.6c-2.6,0-5.1,0-7.7,0&#xd;     c0,4.7,0,9.4,0,14.2c0.2,0,0.4,0,0.6,0c2,0,3.9,0,5.9,0c0.2,0,0.4,0,0.5,0c0.2,0.2,0.4,0.4,0.4,0.6c0,0.2-0.3,0.4-0.5,0.5&#xd;     c-0.1,0.1-0.4,0.1-0.6,0.1c-2.2,0-4.4,0-6.5,0c-0.9,0-1.1-0.2-1.1-1c0-4.9,0-9.7,0-14.6c0-0.9,0.2-1,1-1c2.7,0,5.4,0,8.1,0&#xd;     c0.4,0,0.8,0.1,1.1,0.4c1,1.1,2.1,2.1,3.1,3.1c0.2,0.2,0.4,0.6,0.4,0.9c0,2.1,0,4.1,0,6.2c0,0.1,0,0.1,0,0.2&#xd;     c0,0.4-0.2,0.7-0.6,0.7c-0.5,0-0.6-0.3-0.6-0.8c0-0.7,0-1.5,0-2.2C505.7,480.6,505.7,479.3,505.7,478z M504.6,476.8&#xd;     c-0.4-0.4-0.8-0.9-1.2-1.4c0,0.5,0,0.9,0,1.4C503.8,476.8,504.3,476.8,504.6,476.8z"/>
    <path class="st0" d="M503.7,488c-0.4-0.4-0.8-0.8-1.2-1.2c-0.3-0.3-0.4-0.6-0.1-0.9c0.3-0.3,0.6-0.2,0.9,0.1&#xd;     c0.4,0.4,0.7,0.7,1.2,1.2c0.4-0.4,0.8-0.8,1.1-1.1c0.3-0.3,0.6-0.4,1-0.1c0.3,0.3,0.2,0.7-0.1,1c-0.4,0.3-0.7,0.7-1.1,1.1&#xd;     c0.4,0.4,0.8,0.8,1.1,1.1c0.3,0.3,0.4,0.6,0.1,1c-0.3,0.3-0.6,0.2-0.9-0.1c-0.4-0.4-0.7-0.7-1.1-1.1c-0.4,0.4-0.8,0.7-1.1,1.1&#xd;     c-0.3,0.3-0.6,0.5-1,0.1c-0.3-0.3-0.3-0.6,0.1-1C502.9,488.7,503.3,488.4,503.7,488z"/>
   </g>
  </g>
 </g>
 <g id="loupe">
  <g>
   <g>
    <path class="st1" d="M623.6,530.5c0.9-0.9,1.8-1.8,2.7-2.7c-1-1.4-1.4-2.9-1-4.5c0.3-1.2,1-2.3,2-3c2.2-1.5,5.1-1.2,6.9,0.7&#xd;     c1.8,1.9,1.9,4.9,0.2,6.9c-1.6,2-4.7,2.7-7.3,0.8c-0.9,0.9-1.8,1.8-2.7,2.7C624.2,531,623.9,530.8,623.6,530.5z M626.3,524.5&#xd;     c0,2.3,1.8,4.1,4,4.1c2.2,0,4-1.8,4-4c0-2.2-1.8-4.1-4-4.1C628.1,520.5,626.3,522.3,626.3,524.5z"/>
   </g>
  </g>
 </g>
 <g id="dupliquer">
  <g>
   <path class="st2" d="M666.8,521.8c0-0.1,0-0.2,0-0.2c0-0.6,0-1.2,0-1.9c0-0.2,0-0.2,0.2-0.2c2.4,0,4.8,0,7.2,0&#xd;    c0.2,0,0.2,0.1,0.2,0.2c0,2.8,0,5.6,0,8.5c0,0.2-0.1,0.2-0.3,0.2c-1.1,0-2.1,0-3.2,0c-0.1,0-0.1,0-0.2,0c0,0.1,0,0.2,0,0.2&#xd;    c0,0.6,0,1.2,0,1.9c0,0.2-0.1,0.3-0.2,0.3c-2.4,0-4.7,0-7.1,0c-0.2,0-0.3-0.1-0.3-0.3c0-2.8,0-5.6,0-8.4c0-0.2,0.1-0.3,0.3-0.3&#xd;    c1,0,2.1,0,3.1,0C666.6,521.8,666.7,521.8,666.8,521.8z M670.4,530.4c0-2.8,0-5.6,0-8.4c-2.4,0-4.7,0-7,0c0,2.8,0,5.6,0,8.4&#xd;    C665.7,530.4,668.1,530.4,670.4,530.4z M667.1,519.7c0,0.7,0,1.4,0,2.1c0.1,0,0.2,0,0.2,0c1,0,2.1,0,3.1,0c0.3,0,0.3,0,0.3,0.3&#xd;    c0,1.9,0,3.8,0,5.7c0,0.1,0,0.2,0,0.2c1.1,0,2.3,0,3.4,0c0-2.8,0-5.6,0-8.4C671.7,519.7,669.4,519.7,667.1,519.7z"/>
  </g>
 </g>
 <g id="dupliquer-pressed">
  <g>
   <path class="st3" d="M666.8,542.1c0-0.1,0-0.2,0-0.2c0-0.6,0-1.2,0-1.9c0-0.2,0-0.2,0.2-0.2c2.4,0,4.8,0,7.2,0&#xd;    c0.2,0,0.2,0.1,0.2,0.2c0,2.8,0,5.6,0,8.5c0,0.2-0.1,0.2-0.3,0.2c-1.1,0-2.1,0-3.2,0c-0.1,0-0.1,0-0.2,0c0,0.1,0,0.2,0,0.2&#xd;    c0,0.6,0,1.2,0,1.9c0,0.2-0.1,0.3-0.2,0.3c-2.4,0-4.7,0-7.1,0c-0.2,0-0.3-0.1-0.3-0.3c0-2.8,0-5.6,0-8.4c0-0.2,0.1-0.3,0.3-0.3&#xd;    c1,0,2.1,0,3.1,0C666.6,542.1,666.7,542.1,666.8,542.1z M670.4,550.7c0-2.8,0-5.6,0-8.4c-2.4,0-4.7,0-7,0c0,2.8,0,5.6,0,8.4&#xd;    C665.7,550.7,668.1,550.7,670.4,550.7z M667.1,540c0,0.7,0,1.4,0,2.1c0.1,0,0.2,0,0.2,0c1,0,2.1,0,3.1,0c0.3,0,0.3,0,0.3,0.3&#xd;    c0,1.9,0,3.8,0,5.7c0,0.1,0,0.2,0,0.2c1.1,0,2.3,0,3.4,0c0-2.8,0-5.6,0-8.4C671.7,540,669.4,540,667.1,540z"/>
  </g>
 </g>
 <g id="supprimer">
  <g>
   <g>
    <line class="st4" x1="703.3" y1="520.2" x2="693.3" y2="530.2"/>
    <line class="st4" x1="703.2" y1="530.3" x2="693.2" y2="520.3"/>
   </g>
  </g>
 </g>
 <g id="supprimer-pressed">
  <g>
   <g>
    <g>
     <line class="st5" x1="703.3" y1="540.6" x2="693.3" y2="550.6"/>
     <line class="st5" x1="703.2" y1="550.6" x2="693.2" y2="540.6"/>
    </g>
   </g>
  </g>
 </g>
 <g id="triangletrierpar">
  <polygon class="st1" points="721.7,521.8 725.7,528.8 729.7,521.8  "/>
 </g>
 <g id="creernouvelagent">
  <g>
   <path class="st6" d="M420.5,446.7c0,1.3,0,2.6,0,3.8c0,0.7,0,1.5,0,2.2c0,0.4,0.2,0.8,0.6,0.8c0.4,0,0.6-0.3,0.6-0.7&#xd;    c0-0.1,0-0.1,0-0.2c0-2.1,0-4.1,0-6.2c0-0.3-0.2-0.7-0.4-0.9c-1-1.1-2.1-2.1-3.1-3.1c-0.3-0.3-0.6-0.4-1.1-0.4c-2.7,0-5.4,0-8.1,0&#xd;    c-0.9,0-1,0.2-1,1c0,4.9,0,9.7,0,14.6c0,0.9,0.2,1,1.1,1c2.2,0,4.4,0,6.5,0c0.2,0,0.4,0,0.6-0.1c0.2-0.1,0.5-0.4,0.5-0.5&#xd;    c0-0.2-0.2-0.4-0.4-0.6c-0.1-0.1-0.3,0-0.5,0c-2,0-3.9,0-5.9,0c-0.2,0-0.4,0-0.6,0c0-4.8,0-9.5,0-14.2c2.6,0,5.1,0,7.7,0&#xd;    c0,0.9,0,1.7,0,2.6c0,0.8,0.2,0.9,0.9,0.9C418.7,446.7,419.6,446.7,420.5,446.7z M418.1,456.2c0,0.6,0,1.1,0,1.6&#xd;    c0,0.6,0.2,0.8,0.6,0.8c0.5,0,0.6-0.4,0.6-0.8c0-0.5,0-1,0-1.6c0.6,0,1.1,0,1.6,0c0.4,0,0.7-0.1,0.7-0.6c0-0.5-0.3-0.6-0.7-0.6&#xd;    c-0.5,0-1,0-1.6,0c0-0.6,0-1.1,0-1.6c0-0.4-0.1-0.8-0.6-0.8c-0.5,0-0.6,0.3-0.6,0.8c0,0.5,0,1,0,1.6c-0.6,0-1.1,0-1.7,0&#xd;    c-0.4,0-0.7,0.2-0.7,0.6c0,0.4,0.3,0.6,0.7,0.6C417,456.2,417.5,456.2,418.1,456.2z"/>
   <path class="st6" d="M420.5,446.7c-0.9,0-1.8,0-2.6,0c-0.8,0-0.9-0.2-0.9-0.9c0-0.8,0-1.7,0-2.6c-2.6,0-5.1,0-7.7,0&#xd;    c0,4.7,0,9.4,0,14.2c0.2,0,0.4,0,0.6,0c2,0,3.9,0,5.9,0c0.2,0,0.4,0,0.5,0c0.2,0.2,0.4,0.4,0.4,0.6c0,0.2-0.3,0.4-0.5,0.5&#xd;    c-0.1,0.1-0.4,0.1-0.6,0.1c-2.2,0-4.4,0-6.5,0c-0.9,0-1.1-0.2-1.1-1c0-4.9,0-9.7,0-14.6c0-0.9,0.2-1,1-1c2.7,0,5.4,0,8.1,0&#xd;    c0.4,0,0.8,0.1,1.1,0.4c1,1.1,2.1,2.1,3.1,3.1c0.2,0.2,0.4,0.6,0.4,0.9c0,2.1,0,4.1,0,6.2c0,0.1,0,0.1,0,0.2&#xd;    c0,0.4-0.2,0.7-0.6,0.7c-0.5,0-0.6-0.3-0.6-0.8c0-0.7,0-1.5,0-2.2C420.5,449.3,420.5,448,420.5,446.7z M419.4,445.5&#xd;    c-0.4-0.4-0.8-0.9-1.2-1.4c0,0.5,0,0.9,0,1.4C418.7,445.5,419.1,445.5,419.4,445.5z"/>
   <path class="st6" d="M418.1,456.2c-0.6,0-1.1,0-1.6,0c-0.4,0-0.7-0.2-0.7-0.6c0-0.4,0.3-0.6,0.7-0.6c0.5,0,1.1,0,1.7,0&#xd;    c0-0.6,0-1.1,0-1.6c0-0.4,0.1-0.8,0.6-0.8c0.5,0,0.6,0.3,0.6,0.8c0,0.5,0,1,0,1.6c0.6,0,1.1,0,1.6,0c0.4,0,0.8,0.1,0.7,0.6&#xd;    c0,0.5-0.3,0.6-0.7,0.6c-0.5,0-1,0-1.6,0c0,0.6,0,1.1,0,1.6c0,0.4-0.1,0.8-0.6,0.8c-0.4,0-0.6-0.2-0.6-0.8&#xd;    C418.1,457.3,418.1,456.8,418.1,456.2z"/>
  </g>
 </g>
 <g id="importer">
  <g>
   <g>
    <path class="st6" d="M447.4,459.2c-1.9,0-3.7,0-5.6,0c-1.6,0-2.8-1.1-2.8-2.7c0-1.2,0-2.5,0-3.7c0-0.5,0.3-0.9,0.7-0.9&#xd;     c0.5,0,0.8,0.3,0.8,0.9c0,1.2,0,2.3,0,3.5c0,1,0.4,1.4,1.4,1.4c3.7,0,7.4,0,11.1,0c1,0,1.4-0.4,1.4-1.4c0-1.1,0-2.3,0-3.4&#xd;     c0-0.6,0.3-0.9,0.7-0.9c0.5,0,0.8,0.3,0.8,0.9c0,1.2,0,2.5,0,3.7c0,1.5-1.2,2.6-2.7,2.7C451.2,459.2,449.3,459.2,447.4,459.2z"/>
    <path class="st6" d="M448.2,451.5c0.7-0.7,1.5-1.4,2.3-2.1c0.1-0.1,0.2-0.2,0.4-0.3c0.3-0.2,0.6-0.2,0.9,0.1&#xd;     c0.3,0.3,0.3,0.6,0.1,0.9c-0.1,0.1-0.2,0.2-0.3,0.3c-1.2,1.2-2.3,2.3-3.5,3.5c-0.5,0.5-0.9,0.5-1.4,0c-1.2-1.2-2.4-2.4-3.5-3.5&#xd;     c-0.4-0.4-0.4-0.8-0.1-1.1c0.3-0.3,0.7-0.3,1.2,0.1c0.8,0.8,1.6,1.6,2.5,2.3c0-0.2,0-0.3,0-0.5c0-2.4,0-4.9,0-7.3&#xd;     c0-0.2,0-0.3,0-0.5c0.1-0.4,0.3-0.6,0.7-0.7c0.4,0,0.7,0.2,0.8,0.7c0,0.2,0,0.3,0,0.5c0,2.4,0,4.8,0,7.2&#xd;     C448.2,451.3,448.2,451.5,448.2,451.5z"/>
   </g>
  </g>
 </g>
 <g id="Calque_25">
  <g id="creernouvelagent-disabled_1_">
   <path class="st1" d="M417.1,510.2c0,1.3,0,2.6,0,3.8c0,0.7,0,1.5,0,2.2c0,0.4,0.2,0.8,0.6,0.8c0.4,0,0.6-0.3,0.6-0.7&#xd;    c0-0.1,0-0.1,0-0.2c0-2.1,0-4.1,0-6.2c0-0.3-0.2-0.7-0.4-0.9c-1-1.1-2.1-2.1-3.1-3.1c-0.3-0.3-0.6-0.4-1.1-0.4c-2.7,0-5.4,0-8.1,0&#xd;    c-0.9,0-1,0.2-1,1c0,4.9,0,9.7,0,14.6c0,0.9,0.2,1,1.1,1c2.2,0,4.4,0,6.5,0c0.2,0,0.4,0,0.6-0.1c0.2-0.1,0.5-0.4,0.5-0.5&#xd;    c0-0.2-0.2-0.4-0.4-0.6c-0.1-0.1-0.3,0-0.5,0c-2,0-3.9,0-5.9,0c-0.2,0-0.4,0-0.6,0c0-4.8,0-9.5,0-14.2c2.6,0,5.1,0,7.7,0&#xd;    c0,0.9,0,1.7,0,2.6c0,0.8,0.2,0.9,0.9,0.9C415.3,510.2,416.2,510.2,417.1,510.2z M414.7,519.7c0,0.6,0,1.1,0,1.6&#xd;    c0,0.6,0.2,0.8,0.6,0.8c0.5,0,0.6-0.4,0.6-0.8c0-0.5,0-1,0-1.6c0.6,0,1.1,0,1.6,0c0.4,0,0.7-0.1,0.7-0.6c0-0.5-0.3-0.6-0.7-0.6&#xd;    c-0.5,0-1,0-1.6,0c0-0.6,0-1.1,0-1.6c0-0.4-0.1-0.8-0.6-0.8c-0.5,0-0.6,0.3-0.6,0.8c0,0.5,0,1,0,1.6c-0.6,0-1.1,0-1.7,0&#xd;    c-0.4,0-0.7,0.2-0.7,0.6c0,0.4,0.3,0.6,0.7,0.6C413.6,519.7,414.1,519.7,414.7,519.7z"/>
   <path class="st1" d="M417.1,510.2c-0.9,0-1.8,0-2.6,0c-0.8,0-0.9-0.2-0.9-0.9c0-0.8,0-1.7,0-2.6c-2.6,0-5.1,0-7.7,0&#xd;    c0,4.7,0,9.4,0,14.2c0.2,0,0.4,0,0.6,0c2,0,3.9,0,5.9,0c0.2,0,0.4,0,0.5,0c0.2,0.2,0.4,0.4,0.4,0.6c0,0.2-0.3,0.4-0.5,0.5&#xd;    c-0.1,0.1-0.4,0.1-0.6,0.1c-2.2,0-4.4,0-6.5,0c-0.9,0-1.1-0.2-1.1-1c0-4.9,0-9.7,0-14.6c0-0.9,0.2-1,1-1c2.7,0,5.4,0,8.1,0&#xd;    c0.4,0,0.8,0.1,1.1,0.4c1,1.1,2.1,2.1,3.1,3.1c0.2,0.2,0.4,0.6,0.4,0.9c0,2.1,0,4.1,0,6.2c0,0.1,0,0.1,0,0.2&#xd;    c0,0.4-0.2,0.7-0.6,0.7c-0.5,0-0.6-0.3-0.6-0.8c0-0.7,0-1.5,0-2.2C417.1,512.7,417.1,511.5,417.1,510.2z M416,508.9&#xd;    c-0.4-0.4-0.8-0.9-1.2-1.4c0,0.5,0,0.9,0,1.4C415.2,508.9,415.7,508.9,416,508.9z"/>
   <path class="st1" d="M414.7,519.7c-0.6,0-1.1,0-1.6,0c-0.4,0-0.7-0.2-0.7-0.6c0-0.4,0.3-0.6,0.7-0.6c0.5,0,1.1,0,1.7,0&#xd;    c0-0.6,0-1.1,0-1.6c0-0.4,0.1-0.8,0.6-0.8c0.5,0,0.6,0.3,0.6,0.8c0,0.5,0,1,0,1.6c0.6,0,1.1,0,1.6,0c0.4,0,0.8,0.1,0.7,0.6&#xd;    c0,0.5-0.3,0.6-0.7,0.6c-0.5,0-1,0-1.6,0c0,0.6,0,1.1,0,1.6c0,0.4-0.1,0.8-0.6,0.8c-0.4,0-0.6-0.2-0.6-0.8&#xd;    C414.7,520.7,414.7,520.2,414.7,519.7z"/>
  </g>
  <g id="importer-disabled_1_">
   <g>
    <path class="st1" d="M444,522.6c-1.9,0-3.7,0-5.6,0c-1.6,0-2.8-1.1-2.8-2.7c0-1.2,0-2.5,0-3.7c0-0.5,0.3-0.9,0.7-0.9&#xd;     c0.5,0,0.8,0.3,0.8,0.9c0,1.2,0,2.3,0,3.5c0,1,0.4,1.4,1.4,1.4c3.7,0,7.4,0,11.1,0c1,0,1.4-0.4,1.4-1.4c0-1.1,0-2.3,0-3.4&#xd;     c0-0.6,0.3-0.9,0.7-0.9c0.5,0,0.8,0.3,0.8,0.9c0,1.2,0,2.5,0,3.7c0,1.5-1.2,2.6-2.7,2.7C447.8,522.6,445.9,522.6,444,522.6z"/>
    <path class="st1" d="M444.8,515c0.7-0.7,1.5-1.4,2.3-2.1c0.1-0.1,0.2-0.2,0.4-0.3c0.3-0.2,0.6-0.2,0.9,0.1&#xd;     c0.3,0.3,0.3,0.6,0.1,0.9c-0.1,0.1-0.2,0.2-0.3,0.3c-1.2,1.2-2.3,2.3-3.5,3.5c-0.5,0.5-0.9,0.5-1.4,0c-1.2-1.2-2.4-2.4-3.5-3.5&#xd;     c-0.4-0.4-0.4-0.8-0.1-1.1c0.3-0.3,0.7-0.3,1.2,0.1c0.8,0.8,1.6,1.6,2.5,2.3c0-0.2,0-0.3,0-0.5c0-2.4,0-4.9,0-7.3&#xd;     c0-0.2,0-0.3,0-0.5c0.1-0.4,0.3-0.6,0.7-0.7c0.4,0,0.7,0.2,0.8,0.7c0,0.2,0,0.3,0,0.5c0,2.4,0,4.8,0,7.2&#xd;     C444.8,514.8,444.8,515,444.8,515z"/>
   </g>
  </g>
  <g id="exporter-disabled">
   <path class="st1" d="M470.8,523.4c-1.8,0-3.6,0-5.5,0c-1.6,0-2.7-1.1-2.8-2.7c0-1.2,0-2.4,0-3.6c0-0.5,0.3-0.9,0.8-0.9&#xd;    c0.4,0,0.7,0.3,0.7,0.9c0,1.1,0,2.3,0,3.4c0,1,0.4,1.4,1.4,1.4c3.6,0,7.3,0,10.9,0c1,0,1.4-0.4,1.4-1.4c0-1.1,0-2.2,0-3.4&#xd;    c0-0.6,0.3-0.9,0.7-0.9c0.5,0,0.7,0.3,0.7,0.9c0,1.2,0,2.4,0,3.6c0,1.5-1.2,2.6-2.7,2.6C474.5,523.4,472.6,523.4,470.8,523.4z"/>
   <path class="st1" d="M471.6,509.9c0,0.2,0,0.3,0,0.5c0,2.4,0,4.7,0,7.1c0,0.8-0.2,1.1-0.7,1.1c-0.5,0-0.7-0.4-0.7-1.1&#xd;    c0-2.4,0-4.7,0-7.1c0-0.2,0-0.3,0-0.6c-0.2,0.1-0.3,0.2-0.4,0.3c-0.7,0.7-1.4,1.4-2.1,2.1c-0.3,0.2-0.6,0.4-0.9,0.2&#xd;    c-0.3-0.2-0.4-0.4-0.4-0.8c0-0.2,0.1-0.3,0.2-0.4c1.2-1.2,2.4-2.4,3.6-3.6c0.4-0.4,0.8-0.4,1.2,0c1.2,1.2,2.4,2.4,3.6,3.6&#xd;    c0.4,0.4,0.4,0.8,0.1,1.1c-0.3,0.3-0.7,0.3-1.1-0.1c-0.8-0.8-1.5-1.5-2.3-2.3C471.7,509.9,471.6,509.9,471.6,509.9z"/>
  </g>
  <g id="supprimerplusieurs-disabled">
   <g>
    <path class="st1" d="M505.8,510c0,1.3,0,2.6,0,3.8c0,0.7,0,1.5,0,2.2c0,0.4,0.2,0.8,0.6,0.8c0.4,0,0.6-0.3,0.6-0.7&#xd;     c0-0.1,0-0.1,0-0.2c0-2.1,0-4.1,0-6.2c0-0.3-0.2-0.7-0.4-0.9c-1-1.1-2.1-2.1-3.1-3.1c-0.3-0.3-0.6-0.4-1.1-0.4&#xd;     c-2.7,0-5.4,0-8.1,0c-0.9,0-1,0.2-1,1c0,4.9,0,9.7,0,14.6c0,0.9,0.2,1,1.1,1c2.2,0,4.4,0,6.5,0c0.2,0,0.4,0,0.6-0.1&#xd;     c0.2-0.1,0.5-0.4,0.5-0.5c0-0.2-0.2-0.4-0.4-0.6c-0.1-0.1-0.3,0-0.5,0c-2,0-3.9,0-5.9,0c-0.2,0-0.4,0-0.6,0c0-4.8,0-9.5,0-14.2&#xd;     c2.6,0,5.1,0,7.7,0c0,0.9,0,1.7,0,2.6c0,0.8,0.2,0.9,0.9,0.9C504.1,510,504.9,510,505.8,510z"/>
    <path class="st1" d="M505.8,510c-0.9,0-1.8,0-2.6,0c-0.8,0-0.9-0.2-0.9-0.9c0-0.8,0-1.7,0-2.6c-2.6,0-5.1,0-7.7,0&#xd;     c0,4.7,0,9.4,0,14.2c0.2,0,0.4,0,0.6,0c2,0,3.9,0,5.9,0c0.2,0,0.4,0,0.5,0c0.2,0.2,0.4,0.4,0.4,0.6c0,0.2-0.3,0.4-0.5,0.5&#xd;     c-0.1,0.1-0.4,0.1-0.6,0.1c-2.2,0-4.4,0-6.5,0c-0.9,0-1.1-0.2-1.1-1c0-4.9,0-9.7,0-14.6c0-0.9,0.2-1,1-1c2.7,0,5.4,0,8.1,0&#xd;     c0.4,0,0.8,0.1,1.1,0.4c1,1.1,2.1,2.1,3.1,3.1c0.2,0.2,0.4,0.6,0.4,0.9c0,2.1,0,4.1,0,6.2c0,0.1,0,0.1,0,0.2&#xd;     c0,0.4-0.2,0.7-0.6,0.7c-0.5,0-0.6-0.3-0.6-0.8c0-0.7,0-1.5,0-2.2C505.8,512.6,505.8,511.3,505.8,510z M504.8,508.8&#xd;     c-0.4-0.4-0.8-0.9-1.2-1.4c0,0.5,0,0.9,0,1.4C504,508.8,504.4,508.8,504.8,508.8z"/>
    <path class="st1" d="M503.9,520c-0.4-0.4-0.8-0.8-1.2-1.2c-0.3-0.3-0.4-0.6-0.1-0.9c0.3-0.3,0.6-0.2,0.9,0.1&#xd;     c0.4,0.4,0.7,0.7,1.2,1.2c0.4-0.4,0.8-0.8,1.1-1.1c0.3-0.3,0.6-0.4,1-0.1c0.3,0.3,0.2,0.7-0.1,1c-0.4,0.3-0.7,0.7-1.1,1.1&#xd;     c0.4,0.4,0.8,0.8,1.1,1.1c0.3,0.3,0.4,0.6,0.1,1c-0.3,0.3-0.6,0.2-0.9-0.1c-0.4-0.4-0.7-0.7-1.1-1.1c-0.4,0.4-0.8,0.7-1.1,1.1&#xd;     c-0.3,0.3-0.6,0.5-1,0.1c-0.3-0.3-0.3-0.6,0.1-1C503.1,520.7,503.5,520.4,503.9,520z"/>
   </g>
  </g>
 </g>
 <g id="exporter">
  <g>
   <path class="st6" d="M474.2,459.9c-1.8,0-3.6,0-5.5,0c-1.6,0-2.7-1.1-2.8-2.7c0-1.2,0-2.4,0-3.6c0-0.5,0.3-0.9,0.8-0.9&#xd;    c0.4,0,0.7,0.3,0.7,0.9c0,1.1,0,2.3,0,3.4c0,1,0.4,1.4,1.4,1.4c3.6,0,7.3,0,10.9,0c1,0,1.4-0.4,1.4-1.4c0-1.1,0-2.2,0-3.4&#xd;    c0-0.6,0.3-0.9,0.7-0.9c0.5,0,0.7,0.3,0.7,0.9c0,1.2,0,2.4,0,3.6c0,1.5-1.2,2.6-2.7,2.6C477.9,459.9,476,459.9,474.2,459.9z"/>
   <path class="st6" d="M475,446.5c0,0.2,0,0.3,0,0.5c0,2.4,0,4.7,0,7.1c0,0.8-0.2,1.1-0.7,1.1c-0.5,0-0.7-0.4-0.7-1.1&#xd;    c0-2.4,0-4.7,0-7.1c0-0.2,0-0.3,0-0.6c-0.2,0.1-0.3,0.2-0.4,0.3c-0.7,0.7-1.4,1.4-2.1,2.1c-0.3,0.2-0.6,0.4-0.9,0.2&#xd;    c-0.3-0.2-0.4-0.4-0.4-0.8c0-0.2,0.1-0.3,0.2-0.4c1.2-1.2,2.4-2.4,3.6-3.6c0.4-0.4,0.8-0.4,1.2,0c1.2,1.2,2.4,2.4,3.6,3.6&#xd;    c0.4,0.4,0.4,0.8,0.1,1.1c-0.3,0.3-0.7,0.3-1.1-0.1c-0.8-0.8-1.5-1.5-2.3-2.3C475.1,446.5,475,446.5,475,446.5z"/>
  </g>
 </g>
 <g id="supprimerplusieurs">
  <g>
   <g>
    <path class="st6" d="M509.3,446.5c0,1.3,0,2.6,0,3.8c0,0.7,0,1.5,0,2.2c0,0.4,0.2,0.8,0.6,0.8c0.4,0,0.6-0.3,0.6-0.7&#xd;     c0-0.1,0-0.1,0-0.2c0-2.1,0-4.1,0-6.2c0-0.3-0.2-0.7-0.4-0.9c-1-1.1-2.1-2.1-3.1-3.1c-0.3-0.3-0.6-0.4-1.1-0.4&#xd;     c-2.7,0-5.4,0-8.1,0c-0.9,0-1,0.2-1,1c0,4.9,0,9.7,0,14.6c0,0.9,0.2,1,1.1,1c2.2,0,4.4,0,6.5,0c0.2,0,0.4,0,0.6-0.1&#xd;     c0.2-0.1,0.5-0.4,0.5-0.5c0-0.2-0.2-0.4-0.4-0.6c-0.1-0.1-0.3,0-0.5,0c-2,0-3.9,0-5.9,0c-0.2,0-0.4,0-0.6,0c0-4.8,0-9.5,0-14.2&#xd;     c2.6,0,5.1,0,7.7,0c0,0.9,0,1.7,0,2.6c0,0.8,0.2,0.9,0.9,0.9C507.5,446.5,508.3,446.5,509.3,446.5z"/>
    <path class="st6" d="M509.3,446.5c-0.9,0-1.8,0-2.6,0c-0.8,0-0.9-0.2-0.9-0.9c0-0.8,0-1.7,0-2.6c-2.6,0-5.1,0-7.7,0&#xd;     c0,4.7,0,9.4,0,14.2c0.2,0,0.4,0,0.6,0c2,0,3.9,0,5.9,0c0.2,0,0.4,0,0.5,0c0.2,0.2,0.4,0.4,0.4,0.6c0,0.2-0.3,0.4-0.5,0.5&#xd;     c-0.1,0.1-0.4,0.1-0.6,0.1c-2.2,0-4.4,0-6.5,0c-0.9,0-1.1-0.2-1.1-1c0-4.9,0-9.7,0-14.6c0-0.9,0.2-1,1-1c2.7,0,5.4,0,8.1,0&#xd;     c0.4,0,0.8,0.1,1.1,0.4c1,1.1,2.1,2.1,3.1,3.1c0.2,0.2,0.4,0.6,0.4,0.9c0,2.1,0,4.1,0,6.2c0,0.1,0,0.1,0,0.2&#xd;     c0,0.4-0.2,0.7-0.6,0.7c-0.5,0-0.6-0.3-0.6-0.8c0-0.7,0-1.5,0-2.2C509.3,449.1,509.3,447.8,509.3,446.5z M508.2,445.3&#xd;     c-0.4-0.4-0.8-0.9-1.2-1.4c0,0.5,0,0.9,0,1.4C507.4,445.3,507.8,445.3,508.2,445.3z"/>
    <path class="st6" d="M507.3,456.5c-0.4-0.4-0.8-0.8-1.2-1.2c-0.3-0.3-0.4-0.6-0.1-0.9c0.3-0.3,0.6-0.2,0.9,0.1&#xd;     c0.4,0.4,0.7,0.7,1.2,1.2c0.4-0.4,0.8-0.8,1.1-1.1c0.3-0.3,0.6-0.4,1-0.1c0.3,0.3,0.2,0.7-0.1,1c-0.4,0.3-0.7,0.7-1.1,1.1&#xd;     c0.4,0.4,0.8,0.8,1.1,1.1c0.3,0.3,0.4,0.6,0.1,1c-0.3,0.3-0.6,0.2-0.9-0.1c-0.4-0.4-0.7-0.7-1.1-1.1c-0.4,0.4-0.8,0.7-1.1,1.1&#xd;     c-0.3,0.3-0.6,0.5-1,0.1c-0.3-0.3-0.3-0.6,0.1-1C506.5,457.2,506.9,456.9,507.3,456.5z"/>
   </g>
  </g>
 </g>
 <g id="on">
  <g>
   <linearGradient gradientUnits="userSpaceOnUse" id="SVGID_1_" x1="818.5409" y1="462.1777" x2="818.5409" y2="442.3776">
    <stop offset="0" style="stop-color:#FFFFFF"/>
    <stop offset="0.3119" style="stop-color:#F9F9FA"/>
    <stop offset="0.4787" style="stop-color:#ECECEF"/>
    <stop offset="0.6113" style="stop-color:#D9DBE0"/>
    <stop offset="0.7259" style="stop-color:#C0C5CF"/>
    <stop offset="0.8288" style="stop-color:#A5ADBB"/>
    <stop offset="0.9219" style="stop-color:#8794A6"/>
    <stop offset="1" style="stop-color:#6C7D92"/>
   </linearGradient>
   <path class="st7" d="M826.4,462.2h-15.7c-2.3,0-4.2-1.9-4.2-4.2v-11.5c0-2.3,1.9-4.2,4.2-4.2h15.7c2.3,0,4.2,1.9,4.2,4.2V458&#xd;    C830.5,460.3,828.7,462.2,826.4,462.2z"/>
   <path class="st8" d="M817.6,446.4c0-0.5,0.4-1,1-1s1,0.4,1,1v4.2c0,0.5-0.4,1-1,1s-1-0.4-1-1V446.4z M818.5,459.1&#xd;    c-3.4,0-6.2-2.8-6.2-6.2c0-1.5,0.6-3,1.6-4.1c0.4-0.4,1-0.4,1.4-0.1c0.4,0.4,0.4,1,0.1,1.4c-0.7,0.8-1.1,1.8-1.1,2.8&#xd;    c0,2.3,1.9,4.3,4.3,4.3s4.3-1.9,4.3-4.3c0-1-0.4-2.1-1.1-2.8c-0.4-0.4-0.3-1,0.1-1.4c0.4-0.4,1-0.3,1.4,0.1c1,1.1,1.6,2.6,1.6,4.1&#xd;    C824.8,456.3,822,459.1,818.5,459.1z"/>
  </g>
 </g>
 <g id="on-pressed_1_">
  <g>
   <linearGradient gradientUnits="userSpaceOnUse" id="SVGID_2_" x1="818.5409" y1="485.1837" x2="818.5409" y2="465.3837">
    <stop offset="0" style="stop-color:#FFFFFF"/>
    <stop offset="0.3119" style="stop-color:#F9F9FA"/>
    <stop offset="0.4787" style="stop-color:#ECECEF"/>
    <stop offset="0.6113" style="stop-color:#D9DBE0"/>
    <stop offset="0.7259" style="stop-color:#C0C5CF"/>
    <stop offset="0.8288" style="stop-color:#A5ADBB"/>
    <stop offset="0.9219" style="stop-color:#8794A6"/>
    <stop offset="1" style="stop-color:#6C7D92"/>
   </linearGradient>
   <path class="st9" d="M826.4,485.2h-15.7c-2.3,0-4.2-1.9-4.2-4.2v-11.5c0-2.3,1.9-4.2,4.2-4.2h15.7c2.3,0,4.2,1.9,4.2,4.2V481&#xd;    C830.5,483.3,828.7,485.2,826.4,485.2z"/>
   <path class="st10" d="M817.6,469.4c0-0.5,0.4-1,1-1s1,0.4,1,1v4.2c0,0.5-0.4,1-1,1s-1-0.4-1-1V469.4z M818.5,482.1&#xd;    c-3.4,0-6.2-2.8-6.2-6.2c0-1.5,0.6-3,1.6-4.1c0.4-0.4,1-0.4,1.4-0.1c0.4,0.4,0.4,1,0.1,1.4c-0.7,0.8-1.1,1.8-1.1,2.8&#xd;    c0,2.3,1.9,4.3,4.3,4.3s4.3-1.9,4.3-4.3c0-1-0.4-2.1-1.1-2.8c-0.4-0.4-0.3-1,0.1-1.4c0.4-0.4,1-0.3,1.4,0.1c1,1.1,1.6,2.6,1.6,4.1&#xd;    C824.8,479.3,822,482.1,818.5,482.1z"/>
  </g>
 </g>
 <g id="off">
  <g>
   <linearGradient gradientUnits="userSpaceOnUse" id="SVGID_3_" x1="818.0311" y1="511.6422" x2="818.0311" y2="491.8422">
    <stop offset="0" style="stop-color:#080D15"/>
    <stop offset="1" style="stop-color:#29313C"/>
   </linearGradient>
   <path class="st11" d="M825.9,511.6h-15.7c-2.3,0-4.2-1.9-4.2-4.2V496c0-2.3,1.9-4.2,4.2-4.2h15.7c2.3,0,4.2,1.9,4.2,4.2v11.5&#xd;    C830,509.8,828.2,511.6,825.9,511.6z"/>
   <path class="st12" d="M817.1,495.9c0-0.5,0.4-1,1-1s1,0.4,1,1v4.2c0,0.5-0.4,1-1,1s-1-0.4-1-1V495.9z M818,508.6&#xd;    c-3.4,0-6.2-2.8-6.2-6.2c0-1.5,0.6-3,1.6-4.1c0.4-0.4,1-0.4,1.4-0.1c0.4,0.4,0.4,1,0.1,1.4c-0.7,0.8-1.1,1.8-1.1,2.8&#xd;    c0,2.3,1.9,4.3,4.3,4.3s4.3-1.9,4.3-4.3c0-1-0.4-2.1-1.1-2.8c-0.4-0.4-0.3-1,0.1-1.4c0.4-0.4,1-0.3,1.4,0.1c1,1.1,1.6,2.6,1.6,4.1&#xd;    C824.2,505.8,821.5,508.6,818,508.6z"/>
  </g>
 </g>
 <g id="off-pressed">
  <g>
   <linearGradient gradientUnits="userSpaceOnUse" id="SVGID_4_" x1="818.0311" y1="534.6224" x2="818.0311" y2="514.8223">
    <stop offset="0" style="stop-color:#080D15"/>
    <stop offset="1" style="stop-color:#29313C"/>
   </linearGradient>
   <path class="st13" d="M825.9,534.6h-15.7c-2.3,0-4.2-1.9-4.2-4.2V519c0-2.3,1.9-4.2,4.2-4.2h15.7c2.3,0,4.2,1.9,4.2,4.2v11.5&#xd;    C830,532.8,828.2,534.6,825.9,534.6z"/>
   <path class="st14" d="M817.1,518.9c0-0.5,0.4-1,1-1s1,0.4,1,1v4.2c0,0.5-0.4,1-1,1s-1-0.4-1-1V518.9z M818,531.6&#xd;    c-3.4,0-6.2-2.8-6.2-6.2c0-1.5,0.6-3,1.6-4.1c0.4-0.4,1-0.4,1.4-0.1c0.4,0.4,0.4,1,0.1,1.4c-0.7,0.8-1.1,1.8-1.1,2.8&#xd;    c0,2.3,1.9,4.3,4.3,4.3s4.3-1.9,4.3-4.3c0-1-0.4-2.1-1.1-2.8c-0.4-0.4-0.3-1,0.1-1.4c0.4-0.4,1-0.3,1.4,0.1c1,1.1,1.6,2.6,1.6,4.1&#xd;    C824.2,528.8,821.5,531.6,818,531.6z"/>
  </g>
 </g>
 <g id="freezeactif">
  <g>
   <linearGradient gradientUnits="userSpaceOnUse" id="SVGID_5_" x1="895.1262" y1="462.1766" x2="895.1262" y2="442.3766">
    <stop offset="0" style="stop-color:#FFFFFF"/>
    <stop offset="0.3119" style="stop-color:#F9F9FA"/>
    <stop offset="0.4787" style="stop-color:#ECECEF"/>
    <stop offset="0.6113" style="stop-color:#D9DBE0"/>
    <stop offset="0.7259" style="stop-color:#C0C5CF"/>
    <stop offset="0.8288" style="stop-color:#A5ADBB"/>
    <stop offset="0.9219" style="stop-color:#8794A6"/>
    <stop offset="1" style="stop-color:#6C7D92"/>
   </linearGradient>
   <path class="st15" d="M903,462.2h-15.7c-2.3,0-4.2-1.9-4.2-4.2v-11.5c0-2.3,1.9-4.2,4.2-4.2H903c2.3,0,4.2,1.9,4.2,4.2V458&#xd;    C907.1,460.3,905.3,462.2,903,462.2z"/>
   <path class="st8" d="M900.3,453.2h-3.1l2.2,2.2c0.3,0.3,0.3,0.9,0,1.3c-0.3,0.3-0.9,0.3-1.3,0l-2.2-2.2v3.1c0,0.5-0.4,0.9-0.9,0.9&#xd;    c-0.5,0-0.9-0.4-0.9-0.9v-3.1l-2.2,2.2c-0.3,0.3-0.9,0.3-1.3,0c-0.3-0.3-0.3-0.9,0-1.3l2.2-2.2h-3.1c-0.5,0-0.9-0.4-0.9-0.9&#xd;    s0.4-0.9,0.9-0.9h3.1l-2.2-2.2c-0.3-0.3-0.3-0.9,0-1.3c0.3-0.3,0.9-0.3,1.3,0l2.2,2.2v-3.1c0-0.5,0.4-0.9,0.9-0.9&#xd;    c0.5,0,0.9,0.4,0.9,0.9v3.1l2.2-2.2c0.3-0.3,0.9-0.3,1.3,0c0.3,0.3,0.3,0.9,0,1.3l-2.2,2.2h3.1c0.5,0,0.9,0.4,0.9,0.9&#xd;    S900.8,453.2,900.3,453.2z"/>
  </g>
 </g>
 <g id="freezeactif-pressed">
  <g>
   <linearGradient gradientUnits="userSpaceOnUse" id="SVGID_6_" x1="895.1262" y1="485.1827" x2="895.1262" y2="465.3826">
    <stop offset="0" style="stop-color:#FFFFFF"/>
    <stop offset="0.3119" style="stop-color:#F9F9FA"/>
    <stop offset="0.4787" style="stop-color:#ECECEF"/>
    <stop offset="0.6113" style="stop-color:#D9DBE0"/>
    <stop offset="0.7259" style="stop-color:#C0C5CF"/>
    <stop offset="0.8288" style="stop-color:#A5ADBB"/>
    <stop offset="0.9219" style="stop-color:#8794A6"/>
    <stop offset="1" style="stop-color:#6C7D92"/>
   </linearGradient>
   <path class="st16" d="M903,485.2h-15.7c-2.3,0-4.2-1.9-4.2-4.2v-11.5c0-2.3,1.9-4.2,4.2-4.2H903c2.3,0,4.2,1.9,4.2,4.2V481&#xd;    C907.1,483.3,905.3,485.2,903,485.2z"/>
   <path class="st10" d="M900.3,476.2h-3.1l2.2,2.2c0.3,0.3,0.3,0.9,0,1.3c-0.3,0.3-0.9,0.3-1.3,0l-2.2-2.2v3.1&#xd;    c0,0.5-0.4,0.9-0.9,0.9c-0.5,0-0.9-0.4-0.9-0.9v-3.1l-2.2,2.2c-0.3,0.3-0.9,0.3-1.3,0c-0.3-0.3-0.3-0.9,0-1.3l2.2-2.2h-3.1&#xd;    c-0.5,0-0.9-0.4-0.9-0.9s0.4-0.9,0.9-0.9h3.1l-2.2-2.2c-0.3-0.3-0.3-0.9,0-1.3c0.3-0.3,0.9-0.3,1.3,0l2.2,2.2v-3.1&#xd;    c0-0.5,0.4-0.9,0.9-0.9c0.5,0,0.9,0.4,0.9,0.9v3.1l2.2-2.2c0.3-0.3,0.9-0.3,1.3,0c0.3,0.3,0.3,0.9,0,1.3l-2.2,2.2h3.1&#xd;    c0.5,0,0.9,0.4,0.9,0.9S900.8,476.2,900.3,476.2z"/>
  </g>
 </g>
 <g id="freezeinactif">
  <g>
   <linearGradient gradientUnits="userSpaceOnUse" id="SVGID_7_" x1="894.4468" y1="511.6433" x2="894.4468" y2="491.8395">
    <stop offset="0" style="stop-color:#080D15"/>
    <stop offset="1" style="stop-color:#29313C"/>
   </linearGradient>
   <path class="st17" d="M902.3,511.6h-15.7c-2.3,0-4.2-1.9-4.2-4.2V496c0-2.3,1.9-4.2,4.2-4.2h15.7c2.3,0,4.2,1.9,4.2,4.2v11.5&#xd;    C906.4,509.8,904.6,511.6,902.3,511.6z"/>
   <path class="st12" d="M899.7,502.6h-3.1l2.2,2.2c0.3,0.3,0.3,0.9,0,1.3c-0.3,0.3-0.9,0.3-1.3,0l-2.2-2.2v3.1&#xd;    c0,0.5-0.4,0.9-0.9,0.9c-0.5,0-0.9-0.4-0.9-0.9v-3.1l-2.2,2.2c-0.3,0.3-0.9,0.3-1.3,0c-0.3-0.3-0.3-0.9,0-1.3l2.2-2.2h-3.1&#xd;    c-0.5,0-0.9-0.4-0.9-0.9s0.4-0.9,0.9-0.9h3.1l-2.2-2.2c-0.3-0.3-0.3-0.9,0-1.3c0.3-0.3,0.9-0.3,1.3,0l2.2,2.2v-3.1&#xd;    c0-0.5,0.4-0.9,0.9-0.9c0.5,0,0.9,0.4,0.9,0.9v3.1l2.2-2.2c0.3-0.3,0.9-0.3,1.3,0c0.3,0.3,0.3,0.9,0,1.3l-2.2,2.2h3.1&#xd;    c0.5,0,0.9,0.4,0.9,0.9S900.2,502.6,899.7,502.6z"/>
  </g>
 </g>
 <g id="freezeinactif-pressed_1_">
  <g>
   <linearGradient gradientUnits="userSpaceOnUse" id="SVGID_8_" x1="894.4468" y1="534.6234" x2="894.4468" y2="514.8196">
    <stop offset="0" style="stop-color:#080D15"/>
    <stop offset="1" style="stop-color:#29313C"/>
   </linearGradient>
   <path class="st18" d="M902.3,534.6h-15.7c-2.3,0-4.2-1.9-4.2-4.2V519c0-2.3,1.9-4.2,4.2-4.2h15.7c2.3,0,4.2,1.9,4.2,4.2v11.5&#xd;    C906.4,532.8,904.6,534.6,902.3,534.6z"/>
   <path class="st14" d="M899.7,525.6h-3.1l2.2,2.2c0.3,0.3,0.3,0.9,0,1.3c-0.3,0.3-0.9,0.3-1.3,0l-2.2-2.2v3.1&#xd;    c0,0.5-0.4,0.9-0.9,0.9c-0.5,0-0.9-0.4-0.9-0.9v-3.1l-2.2,2.2c-0.3,0.3-0.9,0.3-1.3,0c-0.3-0.3-0.3-0.9,0-1.3l2.2-2.2h-3.1&#xd;    c-0.5,0-0.9-0.4-0.9-0.9s0.4-0.9,0.9-0.9h3.1l-2.2-2.2c-0.3-0.3-0.3-0.9,0-1.3c0.3-0.3,0.9-0.3,1.3,0l2.2,2.2v-3.1&#xd;    c0-0.5,0.4-0.9,0.9-0.9c0.5,0,0.9,0.4,0.9,0.9v3.1l2.2-2.2c0.3-0.3,0.9-0.3,1.3,0c0.3,0.3,0.3,0.9,0,1.3l-2.2,2.2h3.1&#xd;    c0.5,0,0.9,0.4,0.9,0.9S900.2,525.6,899.7,525.6z"/>
  </g>
 </g>
 <g id="muteactif">
  <g>
   <linearGradient gradientUnits="userSpaceOnUse" id="SVGID_9_" x1="959.9786" y1="462.1778" x2="959.9786" y2="442.3778">
    <stop offset="0" style="stop-color:#FFFFFF"/>
    <stop offset="0.3119" style="stop-color:#F9F9FA"/>
    <stop offset="0.4787" style="stop-color:#ECECEF"/>
    <stop offset="0.6113" style="stop-color:#D9DBE0"/>
    <stop offset="0.7259" style="stop-color:#C0C5CF"/>
    <stop offset="0.8288" style="stop-color:#A5ADBB"/>
    <stop offset="0.9219" style="stop-color:#8794A6"/>
    <stop offset="1" style="stop-color:#6C7D92"/>
   </linearGradient>
   <path class="st19" d="M967.8,462.2h-15.7c-2.3,0-4.2-1.9-4.2-4.2v-11.5c0-2.3,1.9-4.2,4.2-4.2h15.7c2.3,0,4.2,1.9,4.2,4.2V458&#xd;    C972,460.3,970.1,462.2,967.8,462.2z"/>
   <path class="st8" d="M967.5,448.7l-4,3.1c0,0,0,0.1,0,0.1c0,0.1,0,0.2,0,0.3c0,1.7,0,3.4,0,5c0,0.1,0,0.2,0,0.3&#xd;    c-0.1,0.3-0.5,0.4-0.8,0.2c-0.5-0.4-1-0.8-1.5-1.2c-0.6-0.5-1.2-1-1.9-1.5l-3.7,2.9c-0.1,0.1-0.3,0.2-0.5,0.2&#xd;    c-0.2,0-0.4-0.1-0.6-0.3c-0.3-0.3-0.2-0.8,0.1-1.1l2.8-2.2c-0.3,0-0.5,0-0.8-0.1c-0.4-0.1-0.7-0.4-0.7-0.8c0-0.9,0-1.8,0-2.8&#xd;    c0-0.6,0.3-1,1-1c0.6,0,1.2-0.1,1.8-0.2c0.1,0,0.3-0.1,0.4-0.2c1.2-1,2.4-1.9,3.6-2.9c0.2-0.1,0.4-0.2,0.6-0.1&#xd;    c0.2,0.1,0.3,0.3,0.3,0.5c0,0.9,0,1.9,0,2.8l3.1-2.4c0.3-0.3,0.8-0.2,1.1,0.1C967.9,448,967.9,448.4,967.5,448.7z"/>
  </g>
 </g>
 <g id="muteactif-pressed_1_">
  <g>
   <linearGradient gradientUnits="userSpaceOnUse" id="SVGID_10_" x1="959.9786" y1="485.1839" x2="959.9786" y2="465.3839">
    <stop offset="0" style="stop-color:#FFFFFF"/>
    <stop offset="0.3119" style="stop-color:#F9F9FA"/>
    <stop offset="0.4787" style="stop-color:#ECECEF"/>
    <stop offset="0.6113" style="stop-color:#D9DBE0"/>
    <stop offset="0.7259" style="stop-color:#C0C5CF"/>
    <stop offset="0.8288" style="stop-color:#A5ADBB"/>
    <stop offset="0.9219" style="stop-color:#8794A6"/>
    <stop offset="1" style="stop-color:#6C7D92"/>
   </linearGradient>
   <path class="st20" d="M967.8,485.2h-15.7c-2.3,0-4.2-1.9-4.2-4.2v-11.5c0-2.3,1.9-4.2,4.2-4.2h15.7c2.3,0,4.2,1.9,4.2,4.2V481&#xd;    C972,483.3,970.1,485.2,967.8,485.2z"/>
   <path class="st10" d="M967.5,471.7l-4,3.1c0,0,0,0.1,0,0.1c0,0.1,0,0.2,0,0.3c0,1.7,0,3.4,0,5c0,0.1,0,0.2,0,0.3&#xd;    c-0.1,0.3-0.5,0.4-0.8,0.2c-0.5-0.4-1-0.8-1.5-1.2c-0.6-0.5-1.2-1-1.9-1.5l-3.7,2.9c-0.1,0.1-0.3,0.2-0.5,0.2&#xd;    c-0.2,0-0.4-0.1-0.6-0.3c-0.3-0.3-0.2-0.8,0.1-1.1l2.8-2.2c-0.3,0-0.5,0-0.8-0.1c-0.4-0.1-0.7-0.4-0.7-0.8c0-0.9,0-1.8,0-2.8&#xd;    c0-0.6,0.3-1,1-1c0.6,0,1.2-0.1,1.8-0.2c0.1,0,0.3-0.1,0.4-0.2c1.2-1,2.4-1.9,3.6-2.9c0.2-0.1,0.4-0.2,0.6-0.1&#xd;    c0.2,0.1,0.3,0.3,0.3,0.5c0,0.9,0,1.9,0,2.8l3.1-2.4c0.3-0.3,0.8-0.2,1.1,0.1C967.9,471,967.9,471.5,967.5,471.7z"/>
  </g>
 </g>
 <g id="muteinactif">
  <g>
   <linearGradient gradientUnits="userSpaceOnUse" id="SVGID_11_" x1="960.0224" y1="511.6421" x2="960.0224" y2="491.8436">
    <stop offset="0" style="stop-color:#080D15"/>
    <stop offset="1" style="stop-color:#29313C"/>
   </linearGradient>
   <path class="st21" d="M967.9,511.6h-15.7c-2.3,0-4.2-1.9-4.2-4.2V496c0-2.3,1.9-4.2,4.2-4.2h15.7c2.3,0,4.2,1.9,4.2,4.2v11.5&#xd;    C972,509.8,970.2,511.6,967.9,511.6z"/>
   <path class="st12" d="M967.6,498.2l-4,3.1c0,0,0,0.1,0,0.1c0,0.1,0,0.2,0,0.3c0,1.7,0,3.4,0,5c0,0.1,0,0.2,0,0.3&#xd;    c-0.1,0.3-0.5,0.4-0.8,0.2c-0.5-0.4-1-0.8-1.5-1.2c-0.6-0.5-1.2-1-1.9-1.5l-3.7,2.9c-0.1,0.1-0.3,0.2-0.5,0.2&#xd;    c-0.2,0-0.4-0.1-0.6-0.3c-0.3-0.3-0.2-0.8,0.1-1.1l2.8-2.2c-0.3,0-0.5,0-0.8-0.1c-0.4-0.1-0.7-0.4-0.7-0.8c0-0.9,0-1.8,0-2.8&#xd;    c0-0.6,0.3-1,1-1c0.6,0,1.2-0.1,1.8-0.2c0.1,0,0.3-0.1,0.4-0.2c1.2-1,2.4-1.9,3.6-2.9c0.2-0.1,0.4-0.2,0.6-0.1&#xd;    c0.2,0.1,0.3,0.3,0.3,0.5c0,0.9,0,1.9,0,2.8l3.1-2.4c0.3-0.3,0.8-0.2,1.1,0.1C968,497.4,967.9,497.9,967.6,498.2z"/>
  </g>
 </g>
 <g id="muteinactif-pressed">
  <g>
   <linearGradient gradientUnits="userSpaceOnUse" id="SVGID_12_" x1="960.0224" y1="534.6222" x2="960.0224" y2="514.8237">
    <stop offset="0" style="stop-color:#080D15"/>
    <stop offset="1" style="stop-color:#29313C"/>
   </linearGradient>
   <path class="st22" d="M967.9,534.6h-15.7c-2.3,0-4.2-1.9-4.2-4.2V519c0-2.3,1.9-4.2,4.2-4.2h15.7c2.3,0,4.2,1.9,4.2,4.2v11.5&#xd;    C972,532.8,970.2,534.6,967.9,534.6z"/>
   <path class="st14" d="M967.6,521.1l-4,3.1c0,0,0,0.1,0,0.1c0,0.1,0,0.2,0,0.3c0,1.7,0,3.4,0,5c0,0.1,0,0.2,0,0.3&#xd;    c-0.1,0.3-0.5,0.4-0.8,0.2c-0.5-0.4-1-0.8-1.5-1.2c-0.6-0.5-1.2-1-1.9-1.5l-3.7,2.9c-0.1,0.1-0.3,0.2-0.5,0.2&#xd;    c-0.2,0-0.4-0.1-0.6-0.3c-0.3-0.3-0.2-0.8,0.1-1.1l2.8-2.2c-0.3,0-0.5,0-0.8-0.1c-0.4-0.1-0.7-0.4-0.7-0.8c0-0.9,0-1.8,0-2.8&#xd;    c0-0.6,0.3-1,1-1c0.6,0,1.2-0.1,1.8-0.2c0.1,0,0.3-0.1,0.4-0.2c1.2-1,2.4-1.9,3.6-2.9c0.2-0.1,0.4-0.2,0.6-0.1&#xd;    c0.2,0.1,0.3,0.3,0.3,0.5c0,0.9,0,1.9,0,2.8l3.1-2.4c0.3-0.3,0.8-0.2,1.1,0.1C968,520.4,967.9,520.9,967.6,521.1z"/>
  </g>
 </g>
 <g id="outputIsMuted">
  <g>
   <line class="st23" x1="548.8" y1="506.7" x2="542.7" y2="512.7"/>
   <line class="st23" x1="548.8" y1="512.7" x2="542.7" y2="506.7"/>
  </g>
 </g>
 <g id="editeurDefinition">
  <linearGradient gradientUnits="userSpaceOnUse" id="tab-0_1_" x1="469.1121" y1="616.2708" x2="469.1121" y2="586.8051">
   <stop offset="0" style="stop-color:#080D15"/>
   <stop offset="1" style="stop-color:#29313C"/>
  </linearGradient>
  <path id="tab-0" class="st24" d="M520.4,616.3h-94.2c-4.7,0-8.5-3.8-8.5-8.5v-12.5c0-4.7,3.8-8.5,8.5-8.5h94.2V616.3z"/>
  <linearGradient gradientUnits="userSpaceOnUse" id="tab-0-Selected_1_" x1="584.1666" y1="679.1584" gradientTransform="matrix(-1 0 0 -1 1168.333 1295.4292)" x2="584.1666" y2="708.6241">
   <stop offset="0" style="stop-color:#FFFFFF"/>
   <stop offset="0.3119" style="stop-color:#F9F9FA"/>
   <stop offset="0.4787" style="stop-color:#ECECEF"/>
   <stop offset="0.6113" style="stop-color:#D9DBE0"/>
   <stop offset="0.7259" style="stop-color:#C0C5CF"/>
   <stop offset="0.8288" style="stop-color:#A5ADBB"/>
   <stop offset="0.9219" style="stop-color:#8794A6"/>
   <stop offset="1" style="stop-color:#6C7D92"/>
  </linearGradient>
  <path id="tab-0-Selected" class="st25" d="M541.3,586.8l94.2,0v29.5h-93.1c-5.3,0-9.5-4.3-9.5-9.5v-11.4&#xd;   C532.8,590.6,536.6,586.8,541.3,586.8z"/>
  <linearGradient gradientUnits="userSpaceOnUse" id="tab-1_1_" x1="469.1121" y1="653.6561" x2="469.1121" y2="624.1904">
   <stop offset="0" style="stop-color:#080D15"/>
   <stop offset="1" style="stop-color:#29313C"/>
  </linearGradient>
  <rect id="tab-1" class="st26" height="29.5" y="624.2" width="102.7" x="417.8"/>
  <linearGradient gradientUnits="userSpaceOnUse" id="tab-1-Selected_1_" x1="584.1664" y1="624.1905" gradientTransform="matrix(-1 0 0 -1 1168.3328 1277.8466)" x2="584.1664" y2="653.6561">
   <stop offset="0" style="stop-color:#FFFFFF"/>
   <stop offset="0.3119" style="stop-color:#F9F9FA"/>
   <stop offset="0.4787" style="stop-color:#ECECEF"/>
   <stop offset="0.6113" style="stop-color:#D9DBE0"/>
   <stop offset="0.7259" style="stop-color:#C0C5CF"/>
   <stop offset="0.8288" style="stop-color:#A5ADBB"/>
   <stop offset="0.9219" style="stop-color:#8794A6"/>
   <stop offset="1" style="stop-color:#6C7D92"/>
  </linearGradient>
  <rect id="tab-1-Selected" class="st27" height="29.5" y="624.2" width="102.7" x="532.8"/>
  <linearGradient gradientUnits="userSpaceOnUse" id="button_1_" x1="467.3487" y1="747.6381" x2="467.3487" y2="718.1724">
   <stop offset="0" style="stop-color:#080D15"/>
   <stop offset="1" style="stop-color:#29313C"/>
  </linearGradient>
  <path id="button" class="st28" d="M503.3,747.6h-71.8c-2.3,0-4.1-1.8-4.1-4.1v-21.3c0-2.3,1.8-4.1,4.1-4.1h71.8&#xd;   c2.3,0,4.1,1.8,4.1,4.1v21.3C507.3,745.8,505.5,747.6,503.3,747.6z"/>
  <linearGradient gradientUnits="userSpaceOnUse" id="button-pressed_1_" x1="584.1664" y1="747.6381" x2="584.1664" y2="718.1724">
   <stop offset="0" style="stop-color:#FFFFFF"/>
   <stop offset="0.3119" style="stop-color:#F9F9FA"/>
   <stop offset="0.4787" style="stop-color:#ECECEF"/>
   <stop offset="0.6113" style="stop-color:#D9DBE0"/>
   <stop offset="0.7259" style="stop-color:#C0C5CF"/>
   <stop offset="0.8288" style="stop-color:#A5ADBB"/>
   <stop offset="0.9219" style="stop-color:#8794A6"/>
   <stop offset="1" style="stop-color:#6C7D92"/>
  </linearGradient>
  <path id="button-pressed" class="st29" d="M620.1,747.6h-71.8c-2.3,0-4.1-1.8-4.1-4.1v-21.3c0-2.3,1.8-4.1,4.1-4.1h71.8&#xd;   c2.3,0,4.1,1.8,4.1,4.1v21.3C624.2,745.8,622.3,747.6,620.1,747.6z"/>
  <linearGradient gradientUnits="userSpaceOnUse" id="tab-2-Selected_1_" x1="584.1664" y1="696.4041" x2="584.1664" y2="666.9384">
   <stop offset="0" style="stop-color:#FFFFFF"/>
   <stop offset="0.3119" style="stop-color:#F9F9FA"/>
   <stop offset="0.4787" style="stop-color:#ECECEF"/>
   <stop offset="0.6113" style="stop-color:#D9DBE0"/>
   <stop offset="0.7259" style="stop-color:#C0C5CF"/>
   <stop offset="0.8288" style="stop-color:#A5ADBB"/>
   <stop offset="0.9219" style="stop-color:#8794A6"/>
   <stop offset="1" style="stop-color:#6C7D92"/>
  </linearGradient>
  <path id="tab-2-Selected" class="st30" d="M627,696.4h-94.2v-29.5H626c5.3,0,9.5,4.3,9.5,9.5v11.4&#xd;   C635.5,692.6,631.7,696.4,627,696.4z"/>
  <linearGradient gradientUnits="userSpaceOnUse" id="tab-2_1_" x1="469.1121" y1="696.4041" x2="469.1121" y2="666.9384">
   <stop offset="0" style="stop-color:#080D15"/>
   <stop offset="1" style="stop-color:#29313C"/>
  </linearGradient>
  <path id="tab-2" class="st31" d="M511.9,696.4h-94.2v-29.5h93.1c5.3,0,9.5,4.3,9.5,9.5v11.4C520.4,692.6,516.6,696.4,511.9,696.4z"/>
  <g id="closeEditor">
   <g>
    <line class="st32" x1="711.5" y1="610.8" x2="698.3" y2="624.2"/>
    <line class="st32" x1="711.4" y1="624.3" x2="698.2" y2="610.8"/>
   </g>
  </g>
  <g id="closeEditor-pressed">
   <g>
    <line class="st33" x1="711.3" y1="632.4" x2="698.4" y2="645.3"/>
    <line class="st33" x1="711.2" y1="645.4" x2="698.3" y2="632.5"/>
   </g>
  </g>
 </g>
 <g id="active-mapping">
  <g id="mappingActivation">
   <linearGradient gradientUnits="userSpaceOnUse" id="SVGID_13_" x1="834.4445" y1="656.119" x2="834.4445" y2="615.6081">
    <stop offset="0" style="stop-color:#080D15"/>
    <stop offset="1" style="stop-color:#29313C"/>
   </linearGradient>
   <path class="st34" d="M845.3,656.1h-21.7c-10.7,0-19.5-8.8-19.5-19.5v-1.5c0-10.7,8.8-19.5,19.5-19.5h21.7&#xd;    c10.7,0,19.5,8.8,19.5,19.5v1.5C864.8,647.3,856,656.1,845.3,656.1z"/>
   <g>
    <path class="st35" d="M822.3,628.8L822.3,628.8c-3.5,0-6.3,2.8-6.3,6.3c0,3.5,2.8,6.3,6.3,6.3"/>
    <line class="st35" x1="830.4" y1="641.4" x2="822.3" y2="641.4"/>
    <line class="st35" x1="837.4" y1="628.8" x2="829.3" y2="628.8"/>
    <g>
     <path class="st35" d="M837.4,628.8h8.1c3.5,0,6.3,2.8,6.3,6.3c0,3.5-2.8,6.3-6.3,6.3"/>
    </g>
    <g>
     <line class="st35" x1="828.3" y1="628.8" x2="835.8" y2="624.8"/>
     <line class="st35" x1="828.3" y1="628.8" x2="835.8" y2="632.8"/>
    </g>
    <g>
     <line class="st35" x1="839.6" y1="641.4" x2="832.1" y2="645.3"/>
     <line class="st35" x1="839.6" y1="641.4" x2="832.1" y2="637.4"/>
    </g>
    <line class="st35" x1="838.5" y1="641.4" x2="830.4" y2="641.4"/>
   </g>
  </g>
  <g id="mappingActivation-pressed">
   <linearGradient gradientUnits="userSpaceOnUse" id="SVGID_14_" x1="834.4445" y1="708.619" x2="834.4445" y2="668.1081">
    <stop offset="0" style="stop-color:#080D15"/>
    <stop offset="1" style="stop-color:#29313C"/>
   </linearGradient>
   <path class="st36" d="M845.3,708.6h-21.7c-10.7,0-19.5-8.8-19.5-19.5v-1.5c0-10.7,8.8-19.5,19.5-19.5h21.7&#xd;    c10.7,0,19.5,8.8,19.5,19.5v1.5C864.8,699.8,856,708.6,845.3,708.6z"/>
   <g>
    <path class="st37" d="M822.3,681.3L822.3,681.3c-3.5,0-6.3,2.8-6.3,6.3c0,3.5,2.8,6.3,6.3,6.3"/>
    <line class="st37" x1="830.4" y1="693.9" x2="822.3" y2="693.9"/>
    <line class="st37" x1="837.4" y1="681.3" x2="829.3" y2="681.3"/>
    <g>
     <path class="st37" d="M837.4,681.3h8.1c3.5,0,6.3,2.8,6.3,6.3c0,3.5-2.8,6.3-6.3,6.3"/>
    </g>
    <g>
     <line class="st37" x1="828.3" y1="681.3" x2="835.8" y2="677.3"/>
     <line class="st37" x1="828.3" y1="681.3" x2="835.8" y2="685.3"/>
    </g>
    <g>
     <line class="st37" x1="839.6" y1="693.9" x2="832.1" y2="697.8"/>
     <line class="st37" x1="839.6" y1="693.9" x2="832.1" y2="689.9"/>
    </g>
    <line class="st37" x1="838.5" y1="693.9" x2="830.4" y2="693.9"/>
   </g>
  </g>
  <g id="mappingActivation-activated-pressed">
   <linearGradient gradientUnits="userSpaceOnUse" id="SVGID_15_" x1="834.4445" y1="762.119" x2="834.4445" y2="721.6081">
    <stop offset="0" style="stop-color:#FFFFFF"/>
    <stop offset="0.3119" style="stop-color:#F9F9FA"/>
    <stop offset="0.4787" style="stop-color:#ECECEF"/>
    <stop offset="0.6113" style="stop-color:#D9DBE0"/>
    <stop offset="0.7259" style="stop-color:#C0C5CF"/>
    <stop offset="0.8288" style="stop-color:#A5ADBB"/>
    <stop offset="0.9219" style="stop-color:#8794A6"/>
    <stop offset="1" style="stop-color:#6C7D92"/>
   </linearGradient>
   <path class="st38" d="M845.3,762.1h-21.7c-10.7,0-19.5-8.8-19.5-19.5v-1.5c0-10.7,8.8-19.5,19.5-19.5h21.7&#xd;    c10.7,0,19.5,8.8,19.5,19.5v1.5C864.8,753.3,856,762.1,845.3,762.1z"/>
   <g>
    <path class="st37" d="M822.3,734.8L822.3,734.8c-3.5,0-6.3,2.8-6.3,6.3s2.8,6.3,6.3,6.3"/>
    <line class="st37" x1="830.4" y1="747.4" x2="822.3" y2="747.4"/>
    <line class="st37" x1="837.4" y1="734.8" x2="829.3" y2="734.8"/>
    <g>
     <path class="st37" d="M837.4,734.8h8.1c3.5,0,6.3,2.8,6.3,6.3s-2.8,6.3-6.3,6.3"/>
    </g>
    <g>
     <line class="st37" x1="828.3" y1="734.8" x2="835.8" y2="730.8"/>
     <line class="st37" x1="828.3" y1="734.8" x2="835.8" y2="738.8"/>
    </g>
    <g>
     <line class="st37" x1="839.6" y1="747.4" x2="832.1" y2="751.3"/>
     <line class="st37" x1="839.6" y1="747.4" x2="832.1" y2="743.4"/>
    </g>
    <line class="st37" x1="838.5" y1="747.4" x2="830.4" y2="747.4"/>
   </g>
  </g>
  <g id="mappingActivation-activated">
   <linearGradient gradientUnits="userSpaceOnUse" id="SVGID_16_" x1="834.4445" y1="815.619" x2="834.4445" y2="775.1081">
    <stop offset="0" style="stop-color:#FFFFFF"/>
    <stop offset="0.3119" style="stop-color:#F9F9FA"/>
    <stop offset="0.4787" style="stop-color:#ECECEF"/>
    <stop offset="0.6113" style="stop-color:#D9DBE0"/>
    <stop offset="0.7259" style="stop-color:#C0C5CF"/>
    <stop offset="0.8288" style="stop-color:#A5ADBB"/>
    <stop offset="0.9219" style="stop-color:#8794A6"/>
    <stop offset="1" style="stop-color:#6C7D92"/>
   </linearGradient>
   <path class="st39" d="M845.3,815.6h-21.7c-10.7,0-19.5-8.8-19.5-19.5v-1.5c0-10.7,8.8-19.5,19.5-19.5h21.7&#xd;    c10.7,0,19.5,8.8,19.5,19.5v1.5C864.8,806.8,856,815.6,845.3,815.6z"/>
   <g>
    <path class="st40" d="M822.3,788.3L822.3,788.3c-3.5,0-6.3,2.8-6.3,6.3s2.8,6.3,6.3,6.3"/>
    <line class="st40" x1="830.4" y1="800.9" x2="822.3" y2="800.9"/>
    <line class="st40" x1="837.4" y1="788.3" x2="829.3" y2="788.3"/>
    <g>
     <path class="st40" d="M837.4,788.3h8.1c3.5,0,6.3,2.8,6.3,6.3s-2.8,6.3-6.3,6.3"/>
    </g>
    <g>
     <line class="st40" x1="828.3" y1="788.3" x2="835.8" y2="784.3"/>
     <line class="st40" x1="828.3" y1="788.3" x2="835.8" y2="792.3"/>
    </g>
    <g>
     <line class="st40" x1="839.6" y1="800.9" x2="832.1" y2="804.8"/>
     <line class="st40" x1="839.6" y1="800.9" x2="832.1" y2="796.9"/>
    </g>
    <line class="st40" x1="838.5" y1="800.9" x2="830.4" y2="800.9"/>
   </g>
  </g>
 </g>
 <g id="play-pause-scenario">
  <g id="pause-pressed">
   <linearGradient gradientUnits="userSpaceOnUse" id="SVGID_17_" x1="937.4933" y1="757.369" x2="937.4933" y2="716.8581">
    <stop offset="0" style="stop-color:#FFFFFF"/>
    <stop offset="0.3119" style="stop-color:#F9F9FA"/>
    <stop offset="0.4787" style="stop-color:#ECECEF"/>
    <stop offset="0.6113" style="stop-color:#D9DBE0"/>
    <stop offset="0.7259" style="stop-color:#C0C5CF"/>
    <stop offset="0.8288" style="stop-color:#A5ADBB"/>
    <stop offset="0.9219" style="stop-color:#8794A6"/>
    <stop offset="1" style="stop-color:#6C7D92"/>
   </linearGradient>
   <path class="st41" d="M948.3,757.4h-21.7c-10.7,0-19.5-8.8-19.5-19.5v-1.5c0-10.7,8.8-19.5,19.5-19.5h21.7&#xd;    c10.7,0,19.5,8.8,19.5,19.5v1.5C967.9,748.6,959.1,757.4,948.3,757.4z"/>
   <g>
    <line class="st42" x1="933.3" y1="743.9" x2="933.3" y2="730.3"/>
    <line class="st42" x1="942" y1="743.9" x2="942" y2="730.3"/>
   </g>
  </g>
  <g id="play">
   <linearGradient gradientUnits="userSpaceOnUse" id="SVGID_18_" x1="937.4933" y1="651.369" x2="937.4933" y2="610.8581">
    <stop offset="0" style="stop-color:#080D15"/>
    <stop offset="1" style="stop-color:#29313C"/>
   </linearGradient>
   <path class="st43" d="M948.3,651.4h-21.7c-10.7,0-19.5-8.8-19.5-19.5v-1.5c0-10.7,8.8-19.5,19.5-19.5h21.7&#xd;    c10.7,0,19.5,8.8,19.5,19.5v1.5C967.9,642.6,959.1,651.4,948.3,651.4z"/>
   <polygon class="st44" points="933,622.8 947.5,631.2 933,639.6   "/>
  </g>
  <g id="pause">
   <linearGradient gradientUnits="userSpaceOnUse" id="SVGID_19_" x1="937.4933" y1="810.869" x2="937.4933" y2="770.3581">
    <stop offset="0" style="stop-color:#FFFFFF"/>
    <stop offset="0.3119" style="stop-color:#F9F9FA"/>
    <stop offset="0.4787" style="stop-color:#ECECEF"/>
    <stop offset="0.6113" style="stop-color:#D9DBE0"/>
    <stop offset="0.7259" style="stop-color:#C0C5CF"/>
    <stop offset="0.8288" style="stop-color:#A5ADBB"/>
    <stop offset="0.9219" style="stop-color:#8794A6"/>
    <stop offset="1" style="stop-color:#6C7D92"/>
   </linearGradient>
   <path class="st45" d="M948.3,810.9h-21.7c-10.7,0-19.5-8.8-19.5-19.5v-1.5c0-10.7,8.8-19.5,19.5-19.5h21.7&#xd;    c10.7,0,19.5,8.8,19.5,19.5v1.5C967.9,802.1,959.1,810.9,948.3,810.9z"/>
   <g>
    <line class="st46" x1="933.3" y1="797.4" x2="933.3" y2="783.8"/>
    <line class="st46" x1="942" y1="797.4" x2="942" y2="783.8"/>
   </g>
  </g>
  <g id="play-pressed">
   <linearGradient gradientUnits="userSpaceOnUse" id="SVGID_20_" x1="937.4933" y1="703.869" x2="937.4933" y2="663.3581">
    <stop offset="0" style="stop-color:#080D15"/>
    <stop offset="1" style="stop-color:#29313C"/>
   </linearGradient>
   <path class="st47" d="M948.3,703.9h-21.7c-10.7,0-19.5-8.8-19.5-19.5v-1.5c0-10.7,8.8-19.5,19.5-19.5h21.7&#xd;    c10.7,0,19.5,8.8,19.5,19.5v1.5C967.9,695.1,959.1,703.9,948.3,703.9z"/>
   <polygon class="st48" points="933,675.3 947.5,683.7 933,692.1   "/>
  </g>
 </g>
 <g id="currentTime">
  <polygon class="st49" points="1043.3,495.6 1043.3,490 1054.9,490 1054.9,495.6 1049.1,498.4  "/>
 </g>
 <g id="resizeTimeline">
  <g>
   <g>
    <line class="st50" x1="1187.3" y1="471.5" x2="1187.3" y2="476.5"/>
    <line class="st50" x1="1190.2" y1="471.5" x2="1190.2" y2="476.5"/>
    <line class="st50" x1="1193.2" y1="471.5" x2="1193.2" y2="476.5"/>
    <line class="st50" x1="1196.2" y1="471.5" x2="1196.2" y2="476.5"/>
    <line class="st50" x1="1199.2" y1="471.5" x2="1199.2" y2="476.5"/>
    <line class="st50" x1="1202.2" y1="471.5" x2="1202.2" y2="476.5"/>
    <line class="st50" x1="1205.2" y1="471.5" x2="1205.2" y2="476.5"/>
    <line class="st50" x1="1208.2" y1="471.5" x2="1208.2" y2="476.5"/>
   </g>
   <line class="st50" x1="1211.2" y1="471.5" x2="1211.2" y2="476.5"/>
   <line class="st50" x1="1214.2" y1="471.5" x2="1214.2" y2="476.5"/>
  </g>
 </g>
 <g id="reduceTimeline">
  <g>
   <polygon class="st51" points="1199.6,483.1 1194.7,486.4 1189.7,483.1   "/>
   <polygon class="st51" points="1199.6,487.1 1194.7,490.4 1189.7,487.1   "/>
  </g>
 </g>
 <g id="bulleInfos">
  <polygon class="st52" points="1278.9,541.5 1288.4,552.5 1297.9,541.5  "/>
  <path class="st52" d="M1300.1,545.4H1135c-2.2,0-4-1.8-4-4v-29.7c0-2.2,1.8-4,4-4h165.1c2.2,0,4,1.8,4,4v29.7&#xd;   C1304.1,543.6,1302.3,545.4,1300.1,545.4z"/>
 </g>
 <g id="warningActionEditor">
  <path class="st53" d="M1221.6,557.7c-5,0-9,4-9,9c0,5,4,9,9,9c5,0,9-4,9-9C1230.6,561.7,1226.5,557.7,1221.6,557.7z M1223.1,560.5&#xd;   l-0.4,9h-2.3l-0.4-9H1223.1z M1221.6,572.9c-1.1,0-1.6-0.5-1.6-1.5c0-1,0.5-1.5,1.6-1.5s1.6,0.5,1.6,1.5&#xd;   C1223.2,572.4,1222.6,572.9,1221.6,572.9z"/>
 </g>
 <g id="warningActionEditor-pressed">
  <path class="st54" d="M1221.6,585.8c-5,0-9,4-9,9c0,5,4,9,9,9c5,0,9-4,9-9C1230.6,589.8,1226.5,585.8,1221.6,585.8z M1223.1,588.5&#xd;   l-0.4,9h-2.3l-0.4-9H1223.1z M1221.6,601c-1.1,0-1.6-0.5-1.6-1.5c0-1,0.5-1.5,1.6-1.5s1.6,0.5,1.6,1.5&#xd;   C1223.2,600.5,1222.6,601,1221.6,601z"/>
 </g>
 <g id="currentAction">
  <g>
   <rect transform="matrix(0.7071 0.7071 -0.7071 0.7071 667.442 -631.3475)" class="st55" height="7.1" y="486.5" width="7.1" x="1092.3"/>
  </g>
 </g>
 <g id="currentRevertAction">
  <polygon class="st55" points="1095.8,499.6 1100.8,504.6 1095.8,509.6  "/>
 </g>
 <g id="dropImpossible">
  <g>
   <circle cx="1015.7" class="st56" r="8.5" cy="568.5"/>
   <line class="st57" x1="1021.7" y1="562.5" x2="1009.7" y2="574.5"/>
  </g>
 </g>
 <g id="iconCombo">
  <polygon class="st1" points="1082.3,570 1086.3,577 1090.3,570  "/>
 </g>
 <g id="check">
  <polyline class="st58" points="1084.1,590 1087.2,594.8 1091.7,587  "/>
 </g>
 <g id="Calque_36">
  <g id="removeActionInPalette">
   <circle cx="1138.5" class="st59" r="10" cy="646.8"/>
   <g>
    <g>
     <line class="st60" x1="1143.5" y1="641.8" x2="1133.6" y2="651.8"/>
     <line class="st60" x1="1143.4" y1="651.8" x2="1133.5" y2="641.9"/>
    </g>
   </g>
  </g>
  <g id="removeActionInPalette-pressed">
   <circle cx="1138.5" class="st59" r="10" cy="681.2"/>
   <g>
    <g>
     <line class="st61" x1="1143.6" y1="676.2" x2="1133.6" y2="686.1"/>
     <line class="st61" x1="1143.5" y1="686.2" x2="1133.6" y2="676.3"/>
    </g>
   </g>
  </g>
 </g>
 <g id="createButton">
  <g>
   <line class="st62" x1="1107.5" y1="621" x2="1107.5" y2="631.2"/>
   <line class="st62" x1="1112.6" y1="626.2" x2="1102.5" y2="626.2"/>
   <circle cx="1107.5" class="st62" r="7.6" cy="626.2"/>
  </g>
 </g>
 <g id="createButton-pressed">
  <g>
   <line class="st63" x1="1132.2" y1="620.4" x2="1132.2" y2="630.4"/>
   <line class="st63" x1="1137.2" y1="625.5" x2="1127.2" y2="625.5"/>
   <circle cx="1132.1" class="st63" r="7.5" cy="625.5"/>
  </g>
 </g>
 <g id="Calque_34">
  <g id="enabledToggle">
   <path class="st64" d="M1204.9,627.7h27c5.1,0,9.2,4.1,9.2,9.2v4.4c0,5.1-4.1,9.2-9.2,9.2h-27c-5.1,0-9.2-4.1-9.2-9.2v-4.4&#xd;    C1195.7,631.8,1199.8,627.7,1204.9,627.7z"/>
   <circle cx="1207.6" class="st65" r="9.8" cy="639.1"/>
  </g>
  <g id="enabledToggle-checked_1_">
   <path class="st64" d="M1231,679.6h-27c-5.1,0-9.2-4.1-9.2-9.2V666c0-5.1,4.1-9.2,9.2-9.2h27c5.1,0,9.2,4.1,9.2,9.2v4.4&#xd;    C1240.2,675.5,1236,679.6,1231,679.6z"/>
   <circle cx="1228.2" class="st6" r="9.8" cy="668.2"/>
  </g>
  <g id="enabledToggle-checked-pressed">
   <path class="st66" d="M1231,751.3h-27c-5.1,0-9.2-4.1-9.2-9.2v-4.4c0-5.1,4.1-9.2,9.2-9.2h27c5.1,0,9.2,4.1,9.2,9.2v4.4&#xd;    C1240.2,747.2,1236,751.3,1231,751.3z"/>
   <circle cx="1228.2" class="st6" r="9.8" cy="740"/>
  </g>
  <g id="enabledToggle-pressed">
   <path class="st66" d="M1204.9,699.5h27c5.1,0,9.2,4.1,9.2,9.2v4.4c0,5.1-4.1,9.2-9.2,9.2h-27c-5.1,0-9.2-4.1-9.2-9.2v-4.4&#xd;    C1195.7,703.6,1199.8,699.5,1204.9,699.5z"/>
   <circle cx="1207.6" class="st65" r="9.8" cy="710.8"/>
  </g>
 </g>
 <g id="arrowWhite">
  <polygon class="st67" points="1153.1,704.4 1156.8,710.8 1160.5,704.4  "/>
 </g>
 <g id="revertAction">
  <polygon class="st68" points="1095.7,447.3 1100.7,452.3 1095.7,457.3  "/>
 </g>
 <g id="timelineAction">
  <g>
   <rect transform="matrix(0.7071 0.7071 -0.7071 0.7071 652.7159 -637.4472)" class="st68" height="7.1" y="465.6" width="7.1" x="1092.3"/>
  </g>
 </g>
 <g id="notExcutedAction">
  <g>
   <rect transform="matrix(0.7071 0.7071 -0.7071 0.7071 656.4559 -652.7673)" class="st69" height="7.1" y="462.5" width="7.1" x="1112.7"/>
  </g>
 </g>
 <g id="notExecutedRevertAction">
  <polygon class="st70" points="1114.5,447.3 1119.5,452.3 1114.5,457.3  "/>
 </g>
 <g id="retour-curseur">
  <g>
   <line class="st71" x1="1057" y1="530.8" x2="1057" y2="538.8"/>
   <g>
    <text transform="matrix(1.0886 0 0 1 1057.1318 539.8496)" class="st14 st72 st73"></text>
   </g>
  </g>
 </g>
 <g id="retour-curseur-pressed">
  <g>
   <line class="st74" x1="1128.3" y1="548.5" x2="1128.3" y2="556.5"/>
   <g>
    <text transform="matrix(1.0306 0 0 1 1128.9346 557.6621)" class="st12 st72 st75"></text>
   </g>
  </g>
 </g>
 <g id="connect-on">
  <linearGradient gradientUnits="userSpaceOnUse" id="SVGID_21_" x1="1233.1075" y1="181.5623" gradientTransform="matrix(1 9.972931e-03 -9.972931e-03 1 6.3536 -3.7264)" x2="1233.6461" y2="235.5596">
   <stop offset="0" style="stop-color:#6C7D92"/>
   <stop offset="7.807338e-02" style="stop-color:#8794A6"/>
   <stop offset="0.1712" style="stop-color:#A5ADBB"/>
   <stop offset="0.2741" style="stop-color:#C0C5CF"/>
   <stop offset="0.3887" style="stop-color:#D9DBE0"/>
   <stop offset="0.5213" style="stop-color:#ECECEF"/>
   <stop offset="0.6881" style="stop-color:#F9F9FA"/>
   <stop offset="1" style="stop-color:#FFFFFF"/>
  </linearGradient>
  <circle cx="1237.6" class="st76" r="27" cy="217.1"/>
  <g>
   <path class="st77" d="M1233.2,206.1c-3.7,1.7-5.9,4.5-6.7,8.5c-0.1,0.4-0.1,0.8-0.1,1.2c0,0.4-0.1,0.7-0.6,0.7&#xd;    c-0.5,0-0.5-0.4-0.5-0.8c0.2-3.1,1.3-5.7,3.4-7.9c1.1-1.1,2.3-2,3.7-2.6c0.3-0.1,0.4-0.3,0.5-0.7c0.1-2.2,1.7-3.9,3.9-4&#xd;    c2.1-0.1,3.9,1.4,4.2,3.5c0.3,2.1-0.8,3.9-2.8,4.6c-1.9,0.6-4-0.3-4.9-2.2C1233.4,206.4,1233.3,206.3,1233.2,206.1z M1237.1,207.8&#xd;    c1.7,0,3.1-1.3,3.1-3c0-1.7-1.4-3.1-3-3.1c-1.6,0-3,1.4-3,3C1234.1,206.4,1235.4,207.8,1237.1,207.8z"/>
   <path class="st77" d="M1249.1,218.5c2.2,1.6,2.8,3.7,1.7,5.7c-1,1.8-3.2,2.6-5.1,1.9c-1.8-0.7-3-2.9-2.5-4.8&#xd;    c0.5-2.2,2.4-3.4,4.9-3.2c0-0.8,0.1-1.6,0-2.4c-0.3-3.5-1.8-6.3-4.6-8.3c-0.1-0.1-0.2-0.1-0.2-0.2c-0.3-0.2-0.5-0.5-0.2-0.8&#xd;    c0.2-0.1,0.6-0.2,0.8-0.1c0.8,0.6,1.7,1.3,2.3,2C1248.8,211.3,1249.6,214.7,1249.1,218.5z M1244.2,222.2c0,1.8,1.3,3.1,3,3.1&#xd;    c1.6,0,3-1.4,3.1-3c0-1.7-1.4-3.1-3.1-3.1C1245.5,219.2,1244.2,220.5,1244.2,222.2z"/>
   <path class="st77" d="M1230.5,225.1c2.4,1.9,5,2.7,8,2.4c1.2-0.1,2.3-0.6,3.4-0.9c0.4-0.1,0.7-0.2,0.9,0.2&#xd;    c0.2,0.4-0.1,0.6-0.4,0.7c-4.3,1.8-8.3,1.4-12.1-1.3c-0.4-0.3-0.6-0.3-1.1-0.1c-1.7,0.8-3.7,0.2-4.8-1.2c-1.2-1.5-1.2-3.5-0.1-5.1&#xd;    c1-1.5,3-2.1,4.6-1.5c1.8,0.6,2.9,2.4,2.8,4.3C1231.5,223.4,1231.2,224,1230.5,225.1z M1230.5,222.3c0-1.8-1.3-3.1-3-3.1&#xd;    c-1.7,0-3.1,1.3-3.1,3c0,1.7,1.4,3.1,3,3.1C1229.1,225.3,1230.4,223.9,1230.5,222.3z"/>
  </g>
 </g>
 <g id="connect-on-pressed">
  <linearGradient gradientUnits="userSpaceOnUse" id="SVGID_22_" x1="1313.1116" y1="180.7644" gradientTransform="matrix(1 9.972931e-03 -9.972931e-03 1 6.3536 -3.7264)" x2="1313.6501" y2="234.7617">
   <stop offset="0" style="stop-color:#6C7D92"/>
   <stop offset="7.807338e-02" style="stop-color:#8794A6"/>
   <stop offset="0.1712" style="stop-color:#A5ADBB"/>
   <stop offset="0.2741" style="stop-color:#C0C5CF"/>
   <stop offset="0.3887" style="stop-color:#D9DBE0"/>
   <stop offset="0.5213" style="stop-color:#ECECEF"/>
   <stop offset="0.6881" style="stop-color:#F9F9FA"/>
   <stop offset="1" style="stop-color:#FFFFFF"/>
  </linearGradient>
  <circle cx="1317.6" class="st78" r="27" cy="217.1"/>
  <g>
   <path class="st79" d="M1313.2,206.1c-3.7,1.7-5.9,4.5-6.7,8.5c-0.1,0.4-0.1,0.8-0.1,1.2c0,0.4-0.1,0.7-0.6,0.7&#xd;    c-0.5,0-0.5-0.4-0.5-0.8c0.2-3.1,1.3-5.7,3.4-7.9c1.1-1.1,2.3-2,3.7-2.6c0.3-0.1,0.4-0.3,0.5-0.7c0.1-2.2,1.7-3.9,3.9-4&#xd;    c2.1-0.1,3.9,1.4,4.2,3.5c0.3,2.1-0.8,3.9-2.8,4.6c-1.9,0.6-4-0.3-4.9-2.2C1313.4,206.4,1313.3,206.3,1313.2,206.1z M1317.1,207.8&#xd;    c1.7,0,3.1-1.3,3.1-3c0-1.7-1.4-3.1-3-3.1c-1.6,0-3,1.4-3,3C1314.1,206.4,1315.4,207.8,1317.1,207.8z"/>
   <path class="st79" d="M1329.1,218.5c2.2,1.6,2.8,3.7,1.7,5.7c-1,1.8-3.2,2.6-5.1,1.9c-1.8-0.7-3-2.9-2.5-4.8&#xd;    c0.5-2.2,2.4-3.4,4.9-3.2c0-0.8,0.1-1.6,0-2.4c-0.3-3.5-1.8-6.3-4.6-8.3c-0.1-0.1-0.2-0.1-0.2-0.2c-0.3-0.2-0.5-0.5-0.2-0.8&#xd;    c0.2-0.1,0.6-0.2,0.8-0.1c0.8,0.6,1.7,1.3,2.3,2C1328.8,211.3,1329.6,214.7,1329.1,218.5z M1324.2,222.2c0,1.8,1.3,3.1,3,3.1&#xd;    c1.6,0,3-1.4,3.1-3c0-1.7-1.4-3.1-3.1-3.1C1325.5,219.2,1324.2,220.5,1324.2,222.2z"/>
   <path class="st79" d="M1310.5,225.1c2.4,1.9,5,2.7,8,2.4c1.2-0.1,2.3-0.6,3.4-0.9c0.4-0.1,0.7-0.2,0.9,0.2&#xd;    c0.2,0.4-0.1,0.6-0.4,0.7c-4.3,1.8-8.3,1.4-12.1-1.3c-0.4-0.3-0.6-0.3-1.1-0.1c-1.7,0.8-3.7,0.2-4.8-1.2c-1.2-1.5-1.2-3.5-0.1-5.1&#xd;    c1-1.5,3-2.1,4.6-1.5c1.8,0.6,2.9,2.4,2.8,4.3C1311.5,223.4,1311.2,224,1310.5,225.1z M1310.5,222.3c0-1.8-1.3-3.1-3-3.1&#xd;    c-1.7,0-3.1,1.3-3.1,3c0,1.7,1.4,3.1,3,3.1C1309.1,225.3,1310.5,223.9,1310.5,222.3z"/>
  </g>
 </g>
 <g id="connect-off">
  <linearGradient gradientUnits="userSpaceOnUse" id="SVGID_23_" x1="1397.6609" y1="178.9211" gradientTransform="matrix(1 9.972931e-03 -9.972931e-03 1 6.3536 -3.7264)" x2="1398.1995" y2="232.9184">
   <stop offset="0" style="stop-color:#29313C"/>
   <stop offset="1" style="stop-color:#080D15"/>
  </linearGradient>
  <circle cx="1402.2" class="st80" r="27" cy="216.1"/>
  <g>
   <path class="st81" d="M1398.3,205.1c-3.7,1.7-6,4.5-6.7,8.5c-0.1,0.4-0.1,0.8-0.1,1.2c0,0.4-0.1,0.7-0.6,0.7&#xd;    c-0.5,0-0.5-0.4-0.5-0.8c0.2-3.1,1.3-5.7,3.5-7.9c1.1-1.1,2.4-2,3.8-2.6c0.3-0.1,0.5-0.3,0.5-0.7c0.1-2.2,1.8-3.9,4-4&#xd;    c2.1-0.1,3.9,1.4,4.3,3.5c0.3,2.1-0.9,3.9-2.9,4.6c-2,0.6-4.1-0.3-5-2.2C1398.4,205.4,1398.3,205.3,1398.3,205.1z M1402.2,206.8&#xd;    c1.7,0,3.1-1.3,3.1-3c0-1.7-1.4-3.1-3.1-3.1c-1.7,0-3.1,1.4-3.1,3C1399.2,205.4,1400.5,206.8,1402.2,206.8z"/>
   <path class="st81" d="M1414.3,217.5c2.2,1.6,2.8,3.7,1.7,5.7c-1,1.8-3.2,2.6-5.2,1.9c-1.9-0.7-3-2.9-2.5-4.8&#xd;    c0.5-2.2,2.4-3.4,5-3.2c0-0.8,0.1-1.6,0-2.4c-0.3-3.5-1.8-6.3-4.7-8.3c-0.1-0.1-0.2-0.1-0.2-0.2c-0.3-0.2-0.5-0.5-0.2-0.8&#xd;    c0.2-0.1,0.6-0.2,0.8-0.1c0.8,0.6,1.7,1.3,2.4,2C1414,210.3,1414.8,213.7,1414.3,217.5z M1409.4,221.2c0,1.8,1.3,3.1,3,3.1&#xd;    c1.6,0,3.1-1.4,3.1-3c0-1.7-1.4-3.1-3.1-3.1C1410.7,218.2,1409.4,219.5,1409.4,221.2z"/>
   <path class="st81" d="M1395.4,224.1c2.4,1.9,5.1,2.7,8.1,2.4c1.2-0.1,2.3-0.6,3.5-0.9c0.4-0.1,0.7-0.2,0.9,0.2&#xd;    c0.2,0.4-0.1,0.6-0.5,0.7c-4.3,1.8-8.4,1.4-12.3-1.3c-0.4-0.3-0.6-0.3-1.1-0.1c-1.7,0.8-3.8,0.2-4.9-1.2c-1.2-1.5-1.3-3.5-0.1-5.1&#xd;    c1-1.5,3-2.1,4.7-1.5c1.8,0.6,3,2.4,2.8,4.3C1396.5,222.4,1396.2,223,1395.4,224.1z M1395.4,221.3c0-1.8-1.3-3.1-3-3.1&#xd;    c-1.7,0-3.1,1.3-3.1,3c0,1.7,1.4,3.1,3,3.1C1394,224.3,1395.4,222.9,1395.4,221.3z"/>
  </g>
 </g>
 <g id="connect-off-pressed">
  <linearGradient gradientUnits="userSpaceOnUse" id="SVGID_24_" x1="1476.6581" y1="178.1332" gradientTransform="matrix(1 9.972931e-03 -9.972931e-03 1 6.3536 -3.7264)" x2="1477.1965" y2="232.1305">
   <stop offset="0" style="stop-color:#29313C"/>
   <stop offset="1" style="stop-color:#080D15"/>
  </linearGradient>
  <circle cx="1481.2" class="st82" r="27" cy="216.1"/>
  <g>
   <path class="st83" d="M1477.3,205.1c-3.7,1.7-6,4.5-6.7,8.5c-0.1,0.4-0.1,0.8-0.1,1.2c0,0.4-0.1,0.7-0.6,0.7&#xd;    c-0.5,0-0.5-0.4-0.5-0.8c0.2-3.1,1.3-5.7,3.5-7.9c1.1-1.1,2.4-2,3.8-2.6c0.3-0.1,0.5-0.3,0.5-0.7c0.1-2.2,1.8-3.9,4-4&#xd;    c2.1-0.1,3.9,1.4,4.3,3.5c0.3,2.1-0.9,3.9-2.9,4.6c-2,0.6-4.1-0.3-5-2.2C1477.4,205.4,1477.3,205.3,1477.3,205.1z M1481.2,206.8&#xd;    c1.7,0,3.1-1.3,3.1-3c0-1.7-1.4-3.1-3.1-3.1c-1.7,0-3,1.4-3.1,3C1478.2,205.4,1479.5,206.8,1481.2,206.8z"/>
   <path class="st83" d="M1493.3,217.5c2.2,1.6,2.8,3.7,1.7,5.7c-1,1.8-3.2,2.6-5.2,1.9c-1.9-0.7-3-2.9-2.5-4.8&#xd;    c0.5-2.2,2.4-3.4,5-3.2c0-0.8,0.1-1.6,0-2.4c-0.3-3.5-1.8-6.3-4.7-8.3c-0.1-0.1-0.2-0.1-0.2-0.2c-0.3-0.2-0.5-0.5-0.2-0.8&#xd;    c0.2-0.1,0.6-0.2,0.8-0.1c0.8,0.6,1.7,1.3,2.4,2C1493,210.3,1493.9,213.7,1493.3,217.5z M1488.4,221.2c0,1.8,1.3,3.1,3,3.1&#xd;    c1.6,0,3.1-1.4,3.1-3c0-1.7-1.4-3.1-3.1-3.1C1489.7,218.2,1488.4,219.5,1488.4,221.2z"/>
   <path class="st83" d="M1474.4,224.1c2.4,1.9,5.1,2.7,8.1,2.4c1.2-0.1,2.3-0.6,3.5-0.9c0.4-0.1,0.7-0.2,0.9,0.2&#xd;    c0.2,0.4-0.1,0.6-0.5,0.7c-4.3,1.8-8.4,1.4-12.3-1.3c-0.4-0.3-0.6-0.3-1.1-0.1c-1.7,0.8-3.8,0.2-4.9-1.2c-1.2-1.5-1.3-3.5-0.1-5.1&#xd;    c1-1.5,3-2.1,4.7-1.5c1.8,0.6,3,2.4,2.8,4.3C1475.5,222.4,1475.2,223,1474.4,224.1z M1474.4,221.3c0-1.8-1.3-3.1-3-3.1&#xd;    c-1.7,0-3.1,1.3-3.1,3c0,1.7,1.4,3.1,3,3.1C1473.1,224.3,1474.4,222.9,1474.4,221.3z"/>
  </g>
 </g>
 <g id="observe">
  <g>
   <g>
    <path class="st84" d="M1236.3,151.5c-3.8,0-7-1.6-9.7-4.7c-0.5-0.6-1-1.2-1.6-1.8c-0.3-0.3-0.3-0.6,0-1c2.1-2.8,4.5-5.1,7.7-6&#xd;     c5.1-1.5,9.6,0,13.5,4.3c0.5,0.5,0.9,1.1,1.4,1.7c0.3,0.3,0.3,0.6,0,1c-1.8,2.2-3.6,4.2-6,5.3&#xd;     C1239.9,151.1,1238.2,151.5,1236.3,151.5z M1246.7,144.5c-5.6-8-15.3-7.9-20.8,0C1231.6,152.5,1241.1,152.5,1246.7,144.5z"/>
    <path class="st84" d="M1236.3,149.6c-2.4,0-4.3-2.3-4.3-5.2c0-2.7,2-5,4.3-5c2.3,0,4.3,2.3,4.3,5.1&#xd;     C1240.6,147.3,1238.6,149.6,1236.3,149.6z M1236.3,140.5c-1.9,0-3.4,1.7-3.4,3.9c0,2.3,1.5,4.1,3.4,4.1c1.9,0,3.4-1.8,3.4-3.9&#xd;     C1239.7,142.3,1238.2,140.5,1236.3,140.5z"/>
   </g>
  </g>
 </g>
 <g id="observe-pressed">
  <g>
   <g>
    <path class="st85" d="M1266.5,151.5c-3.8,0-7-1.6-9.7-4.7c-0.5-0.6-1-1.2-1.6-1.8c-0.3-0.3-0.3-0.6,0-1c2.1-2.8,4.5-5.1,7.7-6&#xd;     c5.1-1.5,9.6,0,13.5,4.3c0.5,0.5,0.9,1.1,1.4,1.7c0.3,0.3,0.3,0.6,0,1c-1.8,2.2-3.6,4.2-6,5.3&#xd;     C1270.1,151.1,1268.3,151.5,1266.5,151.5z M1276.9,144.5c-5.6-8-15.3-7.9-20.8,0C1261.8,152.5,1271.2,152.5,1276.9,144.5z"/>
    <path class="st85" d="M1266.5,149.6c-2.4,0-4.3-2.3-4.3-5.2c0-2.7,2-5,4.3-5c2.3,0,4.3,2.3,4.3,5.1&#xd;     C1270.8,147.3,1268.8,149.6,1266.5,149.6z M1266.5,140.5c-1.9,0-3.4,1.7-3.4,3.9c0,2.3,1.5,4.1,3.4,4.1c1.9,0,3.4-1.8,3.4-3.9&#xd;     C1269.9,142.3,1268.4,140.5,1266.5,140.5z"/>
   </g>
  </g>
 </g>
 <g id="control">
  <g>
   <path class="st86" d="M1299,154.2c-1.8,0-3.6,0-5.4,0c-1.1,0-1.6-0.5-1.6-1.6c0-2.8,0-5.5,0-8.3c0-0.6,0.2-1.1,0.8-1.4&#xd;    c0.3-0.1,0.6-0.1,0.9-0.1c0.4,0,0.4,0,0.4-0.5c0-1.1,0-2.1,0-3.2c0-3,2.5-5.3,5.3-5c2.4,0.3,4.2,2.4,4.3,4.9c0,1.1,0,2.2,0,3.3&#xd;    c0,0.4,0.1,0.5,0.4,0.5c0.4,0,0.8,0,1.1,0.2c0.5,0.2,0.7,0.7,0.7,1.2c0,2.8,0,5.6,0,8.5c0,0.9-0.6,1.4-1.4,1.4&#xd;    C1302.7,154.2,1300.8,154.2,1299,154.2z M1299,153.3c1.8,0,3.6,0,5.5,0c0.5,0,0.6-0.1,0.6-0.6c0-2.8,0-5.5,0-8.3&#xd;    c0-0.5-0.1-0.7-0.6-0.7c-3.6,0-7.3,0-10.9,0c-0.5,0-0.7,0.2-0.7,0.7c0,2.7,0,5.5,0,8.2c0,0.5,0.2,0.7,0.6,0.7&#xd;    C1295.4,153.3,1297.2,153.3,1299,153.3z M1299,142.9c1.2,0,2.4,0,3.6,0c0.3,0,0.4-0.1,0.4-0.4c0-1.1,0-2.2,0-3.3&#xd;    c-0.1-2.2-1.6-3.7-3.3-4c-2.4-0.4-4.6,1.4-4.6,4c0,1.1,0,2.2,0,3.3c0,0.3,0.1,0.4,0.4,0.4C1296.7,142.9,1297.8,142.9,1299,142.9z"/>
  </g>
 </g>
 <g id="control-pressed">
  <g>
   <path class="st87" d="M1327.3,154.2c-1.8,0-3.6,0-5.4,0c-1.1,0-1.6-0.5-1.6-1.6c0-2.8,0-5.5,0-8.3c0-0.6,0.2-1.1,0.8-1.4&#xd;    c0.3-0.1,0.6-0.1,0.9-0.1c0.4,0,0.4,0,0.4-0.5c0-1.1,0-2.1,0-3.2c0-3,2.5-5.3,5.3-5c2.4,0.3,4.2,2.4,4.3,4.9c0,1.1,0,2.2,0,3.3&#xd;    c0,0.4,0.1,0.5,0.4,0.5c0.4,0,0.8,0,1.1,0.2c0.5,0.2,0.7,0.7,0.7,1.2c0,2.8,0,5.6,0,8.5c0,0.9-0.6,1.4-1.4,1.4&#xd;    C1331.1,154.2,1329.2,154.2,1327.3,154.2z M1327.4,153.3c1.8,0,3.6,0,5.5,0c0.5,0,0.6-0.1,0.6-0.6c0-2.8,0-5.5,0-8.3&#xd;    c0-0.5-0.1-0.7-0.6-0.7c-3.6,0-7.3,0-10.9,0c-0.5,0-0.7,0.2-0.7,0.7c0,2.7,0,5.5,0,8.2c0,0.5,0.2,0.7,0.6,0.7&#xd;    C1323.7,153.3,1325.6,153.3,1327.4,153.3z M1327.4,142.9c1.2,0,2.4,0,3.6,0c0.3,0,0.4-0.1,0.4-0.4c0-1.1,0-2.2,0-3.3&#xd;    c-0.1-2.2-1.6-3.7-3.3-4c-2.4-0.4-4.6,1.4-4.6,4c0,1.1,0,2.2,0,3.3c0,0.3,0.1,0.4,0.4,0.4C1325,142.9,1326.2,142.9,1327.4,142.9z"/>
  </g>
 </g>
 <g id="radio_x5F_observe_x5F_on">
  <g>
   <g>
    <path class="st88" d="M1349.7,154.6c-2.3,0-4.3-1-5.9-3c-0.3-0.4-0.6-0.8-0.9-1.2c-0.2-0.2-0.2-0.4,0-0.6&#xd;     c1.3-1.8,2.8-3.3,4.7-3.9c3.1-0.9,5.9,0,8.2,2.8c0.3,0.3,0.6,0.7,0.9,1.1c0.2,0.2,0.2,0.4,0,0.6c-1.1,1.4-2.2,2.7-3.6,3.4&#xd;     C1351.9,154.3,1350.8,154.6,1349.7,154.6z M1356,150.1c-3.4-5.2-9.3-5-12.6,0C1346.8,155.2,1352.6,155.2,1356,150.1z"/>
    <path class="st88" d="M1349.7,153.4c-1.4,0-2.6-1.5-2.6-3.3c0-1.7,1.2-3.2,2.6-3.2c1.4,0,2.6,1.5,2.6,3.3&#xd;     C1352.3,151.9,1351.1,153.4,1349.7,153.4z M1349.7,147.5c-1.2,0-2.1,1.1-2.1,2.5c0,1.5,0.9,2.6,2.1,2.6c1.1,0,2.1-1.1,2.1-2.5&#xd;     C1351.8,148.7,1350.8,147.5,1349.7,147.5z"/>
   </g>
  </g>
 </g>
 <g id="radio_x5F_observe_x5F_off">
  <g>
   <g>
    <path class="st89" d="M1364.4,154.6c-2.3,0-4.3-1-5.9-3c-0.3-0.4-0.6-0.8-0.9-1.2c-0.2-0.2-0.2-0.4,0-0.6&#xd;     c1.3-1.8,2.8-3.3,4.7-3.9c3.1-0.9,5.9,0,8.2,2.8c0.3,0.3,0.6,0.7,0.9,1.1c0.2,0.2,0.2,0.4,0,0.6c-1.1,1.4-2.2,2.7-3.6,3.4&#xd;     C1366.6,154.3,1365.5,154.6,1364.4,154.6z M1370.7,150.1c-3.4-5.2-9.3-5-12.6,0C1361.5,155.2,1367.3,155.2,1370.7,150.1z"/>
    <path class="st89" d="M1364.4,153.4c-1.4,0-2.6-1.5-2.6-3.3c0-1.7,1.2-3.2,2.6-3.2c1.4,0,2.6,1.5,2.6,3.3&#xd;     C1367,151.9,1365.8,153.4,1364.4,153.4z M1364.4,147.5c-1.2,0-2.1,1.1-2.1,2.5c0,1.5,0.9,2.6,2.1,2.6c1.1,0,2.1-1.1,2.1-2.5&#xd;     C1366.5,148.7,1365.6,147.5,1364.4,147.5z"/>
   </g>
  </g>
 </g>
 <g id="radio_x5F_control_x5F_on">
  <g>
   <path class="st90" d="M1377.2,155c-1.2,0-2.3,0-3.5,0c-0.7,0-1-0.3-1-1c0-1.8,0-3.6,0-5.4c0-0.4,0.2-0.7,0.5-0.9&#xd;    c0.2-0.1,0.4-0.1,0.6-0.1c0.3,0,0.3,0,0.3-0.3c0-0.7,0-1.4,0-2.1c0-1.9,1.6-3.4,3.4-3.2c1.5,0.2,2.7,1.5,2.7,3.2&#xd;    c0,0.7,0,1.4,0,2.1c0,0.2,0.1,0.3,0.3,0.3c0.2,0,0.5,0,0.7,0.1c0.3,0.1,0.4,0.5,0.4,0.8c0,1.8,0,3.7,0,5.5c0,0.6-0.4,0.9-0.9,0.9&#xd;    C1379.6,155,1378.4,155,1377.2,155z M1377.2,154.4c1.2,0,2.3,0,3.5,0c0.3,0,0.4-0.1,0.4-0.4c0-1.8,0-3.6,0-5.4&#xd;    c0-0.3-0.1-0.4-0.4-0.4c-2.3,0-4.7,0-7,0c-0.3,0-0.4,0.1-0.4,0.4c0,1.8,0,3.5,0,5.3c0,0.3,0.1,0.4,0.4,0.4&#xd;    C1374.9,154.4,1376.1,154.4,1377.2,154.4z M1377.2,147.6c0.8,0,1.5,0,2.3,0c0.2,0,0.2,0,0.2-0.2c0-0.7,0-1.4,0-2.2&#xd;    c0-1.4-1-2.4-2.1-2.6c-1.5-0.3-2.9,0.9-3,2.6c0,0.7,0,1.4,0,2.2c0,0.2,0.1,0.3,0.3,0.3C1375.7,147.6,1376.5,147.6,1377.2,147.6z"/>
  </g>
 </g>
 <g id="radio_x5F_control_x5F_off">
  <g>
   <path class="st91" d="M1387.4,155c-1.2,0-2.3,0-3.5,0c-0.7,0-1-0.3-1-1c0-1.8,0-3.6,0-5.4c0-0.4,0.2-0.7,0.5-0.9&#xd;    c0.2-0.1,0.4-0.1,0.6-0.1c0.3,0,0.3,0,0.3-0.3c0-0.7,0-1.4,0-2.1c0-1.9,1.6-3.4,3.4-3.2c1.5,0.2,2.7,1.5,2.7,3.2&#xd;    c0,0.7,0,1.4,0,2.1c0,0.2,0.1,0.3,0.3,0.3c0.2,0,0.5,0,0.7,0.1c0.3,0.1,0.4,0.5,0.4,0.8c0,1.8,0,3.7,0,5.5c0,0.6-0.4,0.9-0.9,0.9&#xd;    C1389.8,155,1388.6,155,1387.4,155z M1387.4,154.4c1.2,0,2.3,0,3.5,0c0.3,0,0.4-0.1,0.4-0.4c0-1.8,0-3.6,0-5.4&#xd;    c0-0.3-0.1-0.4-0.4-0.4c-2.3,0-4.7,0-7,0c-0.3,0-0.4,0.1-0.4,0.4c0,1.8,0,3.5,0,5.3c0,0.3,0.1,0.4,0.4,0.4&#xd;    C1385.1,154.4,1386.3,154.4,1387.4,154.4z M1387.5,147.6c0.8,0,1.5,0,2.3,0c0.2,0,0.2,0,0.2-0.2c0-0.7,0-1.4,0-2.2&#xd;    c0-1.4-1-2.4-2.1-2.6c-1.5-0.3-2.9,0.9-3,2.6c0,0.7,0,1.4,0,2.2c0,0.2,0.1,0.3,0.3,0.3C1385.9,147.6,1386.7,147.6,1387.5,147.6z"/>
  </g>
 </g>
 <g id="radio_x5F_control_x5F_blanc">
  <g>
   <path class="st92" d="M1398.6,155.6c-1.2,0-2.3,0-3.5,0c-0.7,0-1-0.3-1-1c0-1.8,0-3.6,0-5.4c0-0.4,0.2-0.7,0.5-0.9&#xd;    c0.2-0.1,0.4-0.1,0.6-0.1c0.3,0,0.3,0,0.3-0.3c0-0.7,0-1.4,0-2.1c0-1.9,1.6-3.4,3.4-3.2c1.5,0.2,2.7,1.5,2.7,3.2&#xd;    c0,0.7,0,1.4,0,2.1c0,0.2,0.1,0.3,0.3,0.3c0.2,0,0.5,0,0.7,0.1c0.3,0.1,0.4,0.5,0.4,0.8c0,1.8,0,3.7,0,5.5c0,0.6-0.4,0.9-0.9,0.9&#xd;    C1401,155.6,1399.8,155.6,1398.6,155.6z M1398.7,155c1.2,0,2.3,0,3.5,0c0.3,0,0.4-0.1,0.4-0.4c0-1.8,0-3.6,0-5.4&#xd;    c0-0.3-0.1-0.4-0.4-0.4c-2.3,0-4.7,0-7,0c-0.3,0-0.4,0.1-0.4,0.4c0,1.8,0,3.5,0,5.3c0,0.3,0.1,0.4,0.4,0.4&#xd;    C1396.3,155,1397.5,155,1398.7,155z M1398.7,148.2c0.8,0,1.5,0,2.3,0c0.2,0,0.2,0,0.2-0.2c0-0.7,0-1.4,0-2.2c0-1.4-1-2.4-2.1-2.6&#xd;    c-1.5-0.3-2.9,0.9-3,2.6c0,0.7,0,1.4,0,2.2c0,0.2,0.1,0.3,0.3,0.3C1397.2,148.2,1397.9,148.2,1398.7,148.2z"/>
  </g>
 </g>
 <g id="radio_x5F_observe_x5F_blanc">
  <g>
   <g>
    <path class="st93" d="M1415.9,155.3c-2.3,0-4.3-1-5.9-3c-0.3-0.4-0.6-0.8-0.9-1.2c-0.2-0.2-0.2-0.4,0-0.6&#xd;     c1.3-1.8,2.8-3.3,4.7-3.9c3.1-0.9,5.9,0,8.2,2.8c0.3,0.3,0.6,0.7,0.9,1.1c0.2,0.2,0.2,0.4,0,0.6c-1.1,1.4-2.2,2.7-3.6,3.4&#xd;     C1418.1,155.1,1417,155.3,1415.9,155.3z M1422.2,150.8c-3.4-5.2-9.3-5-12.6,0C1413,156,1418.8,156,1422.2,150.8z"/>
    <path class="st93" d="M1415.9,154.1c-1.4,0-2.6-1.5-2.6-3.3c0-1.7,1.2-3.2,2.6-3.2c1.4,0,2.6,1.5,2.6,3.3&#xd;     C1418.5,152.6,1417.3,154.1,1415.9,154.1z M1415.9,148.3c-1.2,0-2.1,1.1-2.1,2.5c0,1.5,0.9,2.6,2.1,2.6c1.1,0,2.1-1.1,2.1-2.5&#xd;     C1418,149.4,1417.1,148.3,1415.9,148.3z"/>
   </g>
  </g>
 </g>
 <g id="play_x5F_actif">
  <g>
   <linearGradient gradientUnits="userSpaceOnUse" id="SVGID_25_" x1="1578.5121" y1="194.3537" x2="1578.5121" y2="174.3537">
    <stop offset="0" style="stop-color:#080D15"/>
    <stop offset="1" style="stop-color:#29313C"/>
   </linearGradient>
   <path class="st94" d="M1586.3,194.4h-15.7c-2.3,0-4.2-1.9-4.2-4.2v-11.7c0-2.3,1.9-4.2,4.2-4.2h15.7c2.3,0,4.2,1.9,4.2,4.2v11.7&#xd;    C1590.5,192.5,1588.6,194.4,1586.3,194.4z"/>
   <polygon class="st95" points="1575.2,179.3 1583.9,184.4 1575.2,189.4   "/>
  </g>
 </g>
 <g id="play_x5F_actif_x5F_pressed">
  <g>
   <linearGradient gradientUnits="userSpaceOnUse" id="SVGID_26_" x1="1610.5121" y1="193.3537" x2="1610.5121" y2="173.3537">
    <stop offset="0" style="stop-color:#080D15"/>
    <stop offset="1" style="stop-color:#29313C"/>
   </linearGradient>
   <path class="st96" d="M1618.3,193.4h-15.7c-2.3,0-4.2-1.9-4.2-4.2v-11.7c0-2.3,1.9-4.2,4.2-4.2h15.7c2.3,0,4.2,1.9,4.2,4.2v11.7&#xd;    C1622.5,191.5,1620.6,193.4,1618.3,193.4z"/>
   <polygon class="st97" points="1607.2,178.3 1615.9,183.4 1607.2,188.4   "/>
  </g>
 </g>
 <g id="pause_x5F_actif">
  <g>
   <linearGradient gradientUnits="userSpaceOnUse" id="SVGID_27_" x1="1578.5122" y1="234.9272" x2="1578.5122" y2="214.9272">
    <stop offset="0" style="stop-color:#FFFFFF"/>
    <stop offset="0.3119" style="stop-color:#F9F9FA"/>
    <stop offset="0.4787" style="stop-color:#ECECEF"/>
    <stop offset="0.6113" style="stop-color:#D9DBE0"/>
    <stop offset="0.7259" style="stop-color:#C0C5CF"/>
    <stop offset="0.8288" style="stop-color:#A5ADBB"/>
    <stop offset="0.9219" style="stop-color:#8794A6"/>
    <stop offset="1" style="stop-color:#6C7D92"/>
   </linearGradient>
   <path class="st98" d="M1586.3,234.9h-15.7c-2.3,0-4.2-1.9-4.2-4.2v-11.7c0-2.3,1.9-4.2,4.2-4.2h15.7c2.3,0,4.2,1.9,4.2,4.2v11.7&#xd;    C1590.5,233.1,1588.6,234.9,1586.3,234.9z"/>
   <g>
    <line class="st99" x1="1576.1" y1="228.7" x2="1576.1" y2="221.1"/>
    <line class="st99" x1="1580.9" y1="228.7" x2="1580.9" y2="221.1"/>
   </g>
  </g>
 </g>
 <g id="pause_x5F_actif_x5F_pressed">
  <g>
   <linearGradient gradientUnits="userSpaceOnUse" id="SVGID_28_" x1="1613" y1="234.9272" x2="1613" y2="214.9272">
    <stop offset="0" style="stop-color:#FFFFFF"/>
    <stop offset="0.3119" style="stop-color:#F9F9FA"/>
    <stop offset="0.4787" style="stop-color:#ECECEF"/>
    <stop offset="0.6113" style="stop-color:#D9DBE0"/>
    <stop offset="0.7259" style="stop-color:#C0C5CF"/>
    <stop offset="0.8288" style="stop-color:#A5ADBB"/>
    <stop offset="0.9219" style="stop-color:#8794A6"/>
    <stop offset="1" style="stop-color:#6C7D92"/>
   </linearGradient>
   <path class="st100" d="M1620.8,234.9h-15.7c-2.3,0-4.2-1.9-4.2-4.2v-11.7c0-2.3,1.9-4.2,4.2-4.2h15.7c2.3,0,4.2,1.9,4.2,4.2v11.7&#xd;    C1625,233.1,1623.1,234.9,1620.8,234.9z"/>
   <g>
    <line class="st101" x1="1610.6" y1="228.7" x2="1610.6" y2="221.1"/>
    <line class="st101" x1="1615.4" y1="228.7" x2="1615.4" y2="221.1"/>
   </g>
  </g>
 </g>
 <g id="record">
  <g>
   <linearGradient gradientUnits="userSpaceOnUse" id="SVGID_29_" x1="1688.6024" y1="61.6024" x2="1688.6024" y2="30.6024">
    <stop offset="0" style="stop-color:#080D15"/>
    <stop offset="1" style="stop-color:#29313C"/>
   </linearGradient>
   <path class="st102" d="M1696.7,61.6h-16.3c-8.2,0-14.9-6.7-14.9-14.9v-1.3c0-8.2,6.7-14.9,14.9-14.9h16.3&#xd;    c8.2,0,14.9,6.7,14.9,14.9v1.3C1711.6,54.9,1704.9,61.6,1696.7,61.6z"/>
   <g>
    <circle cx="1688.5" class="st103" r="9" cy="46"/>
   </g>
  </g>
 </g>
 <g id="record_x5F_pressed">
  <g>
   <linearGradient gradientUnits="userSpaceOnUse" id="SVGID_30_" x1="1745.1482" y1="28.1921" x2="1745.1482" y2="59.1921">
    <stop offset="0" style="stop-color:#080D15"/>
    <stop offset="1" style="stop-color:#29313C"/>
   </linearGradient>
   <path class="st104" d="M1753.3,59.2H1737c-8.2,0-14.9-6.7-14.9-14.9v-1.3c0-8.2,6.7-14.9,14.9-14.9h16.3c8.2,0,14.9,6.7,14.9,14.9&#xd;    v1.3C1768.1,52.5,1761.5,59.2,1753.3,59.2z"/>
   <g>
    <circle cx="1745" class="st105" r="9" cy="43.6"/>
   </g>
  </g>
 </g>
 <g id="stop">
  <g>
   <linearGradient gradientUnits="userSpaceOnUse" id="SVGID_31_" x1="1688.6149" y1="95.1239" x2="1688.6149" y2="64.1239">
    <stop offset="0" style="stop-color:#FFFFFF"/>
    <stop offset="0.3119" style="stop-color:#F9F9FA"/>
    <stop offset="0.4787" style="stop-color:#ECECEF"/>
    <stop offset="0.6113" style="stop-color:#D9DBE0"/>
    <stop offset="0.7259" style="stop-color:#C0C5CF"/>
    <stop offset="0.8288" style="stop-color:#A5ADBB"/>
    <stop offset="0.9219" style="stop-color:#8794A6"/>
    <stop offset="1" style="stop-color:#6C7D92"/>
   </linearGradient>
   <path class="st106" d="M1696.7,95.1h-16.3c-8.2,0-14.9-6.7-14.9-14.9V79c0-8.2,6.7-14.9,14.9-14.9h16.3c8.2,0,14.9,6.7,14.9,14.9&#xd;    v1.3C1711.6,88.4,1704.9,95.1,1696.7,95.1z"/>
   <path class="st8" d="M1694.3,72.4h-10.9c-1.1,0-2.1,0.9-2.1,2.1v10.9c0,1.1,0.9,2.1,2.1,2.1h10.9c1.1,0,2.1-0.9,2.1-2.1V74.4&#xd;    C1696.3,73.3,1695.4,72.4,1694.3,72.4z"/>
  </g>
 </g>
 <g id="stopped_x5F_pressed">
  <g>
   <linearGradient gradientUnits="userSpaceOnUse" id="SVGID_32_" x1="1744.6149" y1="94.1239" x2="1744.6149" y2="63.1239">
    <stop offset="0" style="stop-color:#FFFFFF"/>
    <stop offset="0.3119" style="stop-color:#F9F9FA"/>
    <stop offset="0.4787" style="stop-color:#ECECEF"/>
    <stop offset="0.6113" style="stop-color:#D9DBE0"/>
    <stop offset="0.7259" style="stop-color:#C0C5CF"/>
    <stop offset="0.8288" style="stop-color:#A5ADBB"/>
    <stop offset="0.9219" style="stop-color:#8794A6"/>
    <stop offset="1" style="stop-color:#6C7D92"/>
   </linearGradient>
   <path class="st107" d="M1752.7,94.1h-16.3c-8.2,0-14.9-6.7-14.9-14.9V78c0-8.2,6.7-14.9,14.9-14.9h16.3c8.2,0,14.9,6.7,14.9,14.9&#xd;    v1.3C1767.6,87.4,1760.9,94.1,1752.7,94.1z"/>
   <path class="st10" d="M1750.3,71.4h-10.9c-1.1,0-2.1,0.9-2.1,2.1v10.9c0,1.1,0.9,2.1,2.1,2.1h10.9c1.1,0,2.1-0.9,2.1-2.1V73.4&#xd;    C1752.3,72.3,1751.4,71.4,1750.3,71.4z"/>
  </g>
 </g>
</svg>
