<?xml version="1.0" encoding="utf-8"?>
<!-- Generator: Adobe Illustrator 19.1.0, SVG Export Plug-In . SVG Version: 6.00 Build 0)  -->
<svg version="1.1" xmlns="http://www.w3.org/2000/svg" xmlns:xlink="http://www.w3.org/1999/xlink" x="0px" y="0px"
	 viewBox="0 0 1920 980" enable-background="new 0 0 1920 980" xml:space="preserve">
<g id="Calque_1">
	<g id="creernouvelagent-pressed">
		<path fill="#C7C6C6" d="M416.5,476.2c0,1.3,0,2.6,0,3.8c0,0.7,0,1.5,0,2.2c0,0.4,0.2,0.8,0.6,0.8c0.4,0,0.6-0.3,0.6-0.7
			c0-0.1,0-0.1,0-0.2c0-2.1,0-4.1,0-6.2c0-0.3-0.2-0.7-0.4-0.9c-1-1.1-2.1-2.1-3.1-3.1c-0.3-0.3-0.6-0.4-1.1-0.4c-2.7,0-5.4,0-8.1,0
			c-0.9,0-1,0.2-1,1c0,4.9,0,9.7,0,14.6c0,0.9,0.2,1,1.1,1c2.2,0,4.4,0,6.5,0c0.2,0,0.4,0,0.6-0.1c0.2-0.1,0.5-0.4,0.5-0.5
			c0-0.2-0.2-0.4-0.4-0.6c-0.1-0.1-0.3,0-0.5,0c-2,0-3.9,0-5.9,0c-0.2,0-0.4,0-0.6,0c0-4.8,0-9.5,0-14.2c2.6,0,5.1,0,7.7,0
			c0,0.9,0,1.7,0,2.6c0,0.8,0.2,0.9,0.9,0.9C414.7,476.2,415.5,476.2,416.5,476.2z M414.1,485.7c0,0.6,0,1.1,0,1.6
			c0,0.6,0.2,0.8,0.6,0.8c0.5,0,0.6-0.4,0.6-0.8c0-0.5,0-1,0-1.6c0.6,0,1.1,0,1.6,0c0.4,0,0.7-0.1,0.7-0.6c0-0.5-0.3-0.6-0.7-0.6
			c-0.5,0-1,0-1.6,0c0-0.6,0-1.1,0-1.6c0-0.4-0.1-0.8-0.6-0.8c-0.5,0-0.6,0.3-0.6,0.8c0,0.5,0,1,0,1.6c-0.6,0-1.1,0-1.7,0
			c-0.4,0-0.7,0.2-0.7,0.6c0,0.4,0.3,0.6,0.7,0.6C413,485.7,413.5,485.7,414.1,485.7z"/>
		<path fill="#C7C6C6" d="M416.5,476.2c-0.9,0-1.8,0-2.6,0c-0.8,0-0.9-0.2-0.9-0.9c0-0.8,0-1.7,0-2.6c-2.6,0-5.1,0-7.7,0
			c0,4.7,0,9.4,0,14.2c0.2,0,0.4,0,0.6,0c2,0,3.9,0,5.9,0c0.2,0,0.4,0,0.5,0c0.2,0.2,0.4,0.4,0.4,0.6c0,0.2-0.3,0.4-0.5,0.5
			c-0.1,0.1-0.4,0.1-0.6,0.1c-2.2,0-4.4,0-6.5,0c-0.9,0-1.1-0.2-1.1-1c0-4.9,0-9.7,0-14.6c0-0.9,0.2-1,1-1c2.7,0,5.4,0,8.1,0
			c0.4,0,0.8,0.1,1.1,0.4c1,1.1,2.1,2.1,3.1,3.1c0.2,0.2,0.4,0.6,0.4,0.9c0,2.1,0,4.1,0,6.2c0,0.1,0,0.1,0,0.2
			c0,0.4-0.2,0.7-0.6,0.7c-0.5,0-0.6-0.3-0.6-0.8c0-0.7,0-1.5,0-2.2C416.5,478.8,416.5,477.5,416.5,476.2z M415.4,474.9
			c-0.4-0.4-0.8-0.9-1.2-1.4c0,0.5,0,0.9,0,1.4C414.6,474.9,415,474.9,415.4,474.9z"/>
		<path fill="#C7C6C6" d="M414.1,485.7c-0.6,0-1.1,0-1.6,0c-0.4,0-0.7-0.2-0.7-0.6c0-0.4,0.3-0.6,0.7-0.6c0.5,0,1.1,0,1.7,0
			c0-0.6,0-1.1,0-1.6c0-0.4,0.1-0.8,0.6-0.8c0.5,0,0.6,0.3,0.6,0.8c0,0.5,0,1,0,1.6c0.6,0,1.1,0,1.6,0c0.4,0,0.8,0.1,0.7,0.6
			c0,0.5-0.3,0.6-0.7,0.6c-0.5,0-1,0-1.6,0c0,0.6,0,1.1,0,1.6c0,0.4-0.1,0.8-0.6,0.8c-0.4,0-0.6-0.2-0.6-0.8
			C414.1,486.7,414.1,486.3,414.1,485.7z"/>
	</g>
	<g id="importer-pressed">
		<path fill="#C7C6C6" d="M442.4,489.8c-1.9,0-3.7,0-5.6,0c-1.6,0-2.8-1.1-2.8-2.7c0-1.2,0-2.5,0-3.7c0-0.5,0.3-0.9,0.7-0.9
			c0.5,0,0.8,0.3,0.8,0.9c0,1.2,0,2.3,0,3.5c0,1,0.4,1.4,1.4,1.4c3.7,0,7.4,0,11.1,0c1,0,1.4-0.4,1.4-1.4c0-1.1,0-2.3,0-3.4
			c0-0.6,0.3-0.9,0.7-0.9c0.5,0,0.8,0.3,0.8,0.9c0,1.2,0,2.5,0,3.7c0,1.5-1.2,2.6-2.7,2.7C446.2,489.8,444.3,489.8,442.4,489.8z"/>
		<path fill="#C7C6C6" d="M443.2,482.1c0.7-0.7,1.5-1.4,2.3-2.1c0.1-0.1,0.2-0.2,0.4-0.3c0.3-0.2,0.6-0.2,0.9,0.1
			c0.3,0.3,0.3,0.6,0.1,0.9c-0.1,0.1-0.2,0.2-0.3,0.3c-1.2,1.2-2.3,2.3-3.5,3.5c-0.5,0.5-0.9,0.5-1.4,0c-1.2-1.2-2.4-2.4-3.5-3.5
			c-0.4-0.4-0.4-0.8-0.1-1.1c0.3-0.3,0.7-0.3,1.2,0.1c0.8,0.8,1.6,1.6,2.5,2.3c0-0.2,0-0.3,0-0.5c0-2.4,0-4.9,0-7.3
			c0-0.2,0-0.3,0-0.5c0.1-0.4,0.3-0.6,0.7-0.7c0.4,0,0.7,0.2,0.8,0.7c0,0.2,0,0.3,0,0.5c0,2.4,0,4.8,0,7.2
			C443.2,481.9,443.2,482.1,443.2,482.1z"/>
	</g>
	<g id="exporter-pressed">
		<path fill="#C7C6C6" d="M469.1,490.1c-1.8,0-3.6,0-5.5,0c-1.6,0-2.7-1.1-2.8-2.7c0-1.2,0-2.4,0-3.6c0-0.5,0.3-0.9,0.8-0.9
			c0.4,0,0.7,0.3,0.7,0.9c0,1.1,0,2.3,0,3.4c0,1,0.4,1.4,1.4,1.4c3.6,0,7.3,0,10.9,0c1,0,1.4-0.4,1.4-1.4c0-1.1,0-2.2,0-3.4
			c0-0.6,0.3-0.9,0.7-0.9c0.5,0,0.7,0.3,0.7,0.9c0,1.2,0,2.4,0,3.6c0,1.5-1.2,2.6-2.7,2.6C472.8,490.1,471,490.1,469.1,490.1z"/>
		<path fill="#C7C6C6" d="M469.9,476.7c0,0.2,0,0.3,0,0.5c0,2.4,0,4.7,0,7.1c0,0.8-0.2,1.1-0.7,1.1c-0.5,0-0.7-0.4-0.7-1.1
			c0-2.4,0-4.7,0-7.1c0-0.2,0-0.3,0-0.6c-0.2,0.1-0.3,0.2-0.4,0.3c-0.7,0.7-1.4,1.4-2.1,2.1c-0.3,0.2-0.6,0.4-0.9,0.2
			c-0.3-0.2-0.4-0.4-0.4-0.8c0-0.2,0.1-0.3,0.2-0.4c1.2-1.2,2.4-2.4,3.6-3.6c0.4-0.4,0.8-0.4,1.2,0c1.2,1.2,2.4,2.4,3.6,3.6
			c0.4,0.4,0.4,0.8,0.1,1.1c-0.3,0.3-0.7,0.3-1.1-0.1c-0.8-0.8-1.5-1.5-2.3-2.3C470,476.7,469.9,476.7,469.9,476.7z"/>
	</g>
	<g id="supprimerplusieurs-pressed">
		<g>
			<path fill="#C7C6C6" d="M505.7,478c0,1.3,0,2.6,0,3.8c0,0.7,0,1.5,0,2.2c0,0.4,0.2,0.8,0.6,0.8c0.4,0,0.6-0.3,0.6-0.7
				c0-0.1,0-0.1,0-0.2c0-2.1,0-4.1,0-6.2c0-0.3-0.2-0.7-0.4-0.9c-1-1.1-2.1-2.1-3.1-3.1c-0.3-0.3-0.6-0.4-1.1-0.4
				c-2.7,0-5.4,0-8.1,0c-0.9,0-1,0.2-1,1c0,4.9,0,9.7,0,14.6c0,0.9,0.2,1,1.1,1c2.2,0,4.4,0,6.5,0c0.2,0,0.4,0,0.6-0.1
				c0.2-0.1,0.5-0.4,0.5-0.5c0-0.2-0.2-0.4-0.4-0.6c-0.1-0.1-0.3,0-0.5,0c-2,0-3.9,0-5.9,0c-0.2,0-0.4,0-0.6,0c0-4.8,0-9.5,0-14.2
				c2.6,0,5.1,0,7.7,0c0,0.9,0,1.7,0,2.6c0,0.8,0.2,0.9,0.9,0.9C503.9,478,504.8,478,505.7,478z"/>
			<path fill="#C7C6C6" d="M505.7,478c-0.9,0-1.8,0-2.6,0c-0.8,0-0.9-0.2-0.9-0.9c0-0.8,0-1.7,0-2.6c-2.6,0-5.1,0-7.7,0
				c0,4.7,0,9.4,0,14.2c0.2,0,0.4,0,0.6,0c2,0,3.9,0,5.9,0c0.2,0,0.4,0,0.5,0c0.2,0.2,0.4,0.4,0.4,0.6c0,0.2-0.3,0.4-0.5,0.5
				c-0.1,0.1-0.4,0.1-0.6,0.1c-2.2,0-4.4,0-6.5,0c-0.9,0-1.1-0.2-1.1-1c0-4.9,0-9.7,0-14.6c0-0.9,0.2-1,1-1c2.7,0,5.4,0,8.1,0
				c0.4,0,0.8,0.1,1.1,0.4c1,1.1,2.1,2.1,3.1,3.1c0.2,0.2,0.4,0.6,0.4,0.9c0,2.1,0,4.1,0,6.2c0,0.1,0,0.1,0,0.2
				c0,0.4-0.2,0.7-0.6,0.7c-0.5,0-0.6-0.3-0.6-0.8c0-0.7,0-1.5,0-2.2C505.7,480.6,505.7,479.3,505.7,478z M504.6,476.8
				c-0.4-0.4-0.8-0.9-1.2-1.4c0,0.5,0,0.9,0,1.4C503.8,476.8,504.3,476.8,504.6,476.8z"/>
			<path fill="#C7C6C6" d="M503.7,488c-0.4-0.4-0.8-0.8-1.2-1.2c-0.3-0.3-0.4-0.6-0.1-0.9c0.3-0.3,0.6-0.2,0.9,0.1
				c0.4,0.4,0.7,0.7,1.2,1.2c0.4-0.4,0.8-0.8,1.1-1.1c0.3-0.3,0.6-0.4,1-0.1c0.3,0.3,0.2,0.7-0.1,1c-0.4,0.3-0.7,0.7-1.1,1.1
				c0.4,0.4,0.8,0.8,1.1,1.1c0.3,0.3,0.4,0.6,0.1,1c-0.3,0.3-0.6,0.2-0.9-0.1c-0.4-0.4-0.7-0.7-1.1-1.1c-0.4,0.4-0.8,0.7-1.1,1.1
				c-0.3,0.3-0.6,0.5-1,0.1c-0.3-0.3-0.3-0.6,0.1-1C502.9,488.7,503.3,488.4,503.7,488z"/>
		</g>
	</g>
</g>
<g id="loupe">
	<g>
		<g>
			<path fill="#535A66" d="M623.7,530.4c0.9-0.9,1.8-1.7,2.7-2.6c-1-1.3-1.4-2.8-1-4.5c0.3-1.2,1-2.2,2-3c2.1-1.5,5-1.2,6.8,0.7
				c1.8,1.9,1.8,4.8,0.2,6.8c-1.6,1.9-4.6,2.7-7.2,0.8c-0.9,0.9-1.8,1.8-2.6,2.6C624.2,531,624,530.7,623.7,530.4z M626.3,524.5
				c0,2.2,1.8,4,4,4c2.2,0,4-1.8,4-4c0-2.2-1.8-4-4-4C628.1,520.5,626.3,522.3,626.3,524.5z"/>
		</g>
	</g>
</g>
<g id="dupliquer">
	<g>
		<path fill="none" stroke="#F39200" stroke-width="0.8119" stroke-miterlimit="10" d="M666.8,521.8c0-0.1,0-0.2,0-0.2
			c0-0.6,0-1.2,0-1.9c0-0.2,0-0.2,0.2-0.2c2.4,0,4.8,0,7.2,0c0.2,0,0.2,0.1,0.2,0.2c0,2.8,0,5.6,0,8.5c0,0.2-0.1,0.2-0.3,0.2
			c-1.1,0-2.1,0-3.2,0c-0.1,0-0.1,0-0.2,0c0,0.1,0,0.2,0,0.2c0,0.6,0,1.2,0,1.9c0,0.2-0.1,0.3-0.2,0.3c-2.4,0-4.7,0-7.1,0
			c-0.2,0-0.3-0.1-0.3-0.3c0-2.8,0-5.6,0-8.4c0-0.2,0.1-0.3,0.3-0.3c1,0,2.1,0,3.1,0C666.6,521.8,666.7,521.8,666.8,521.8z
			 M670.4,530.4c0-2.8,0-5.6,0-8.4c-2.4,0-4.7,0-7,0c0,2.8,0,5.6,0,8.4C665.7,530.4,668.1,530.4,670.4,530.4z M667.1,519.7
			c0,0.7,0,1.4,0,2.1c0.1,0,0.2,0,0.2,0c1,0,2.1,0,3.1,0c0.3,0,0.3,0,0.3,0.3c0,1.9,0,3.8,0,5.7c0,0.1,0,0.2,0,0.2
			c1.1,0,2.3,0,3.4,0c0-2.8,0-5.6,0-8.4C671.7,519.7,669.4,519.7,667.1,519.7z"/>
	</g>
</g>
<g id="dupliquer-pressed">
	<g>
		<path fill="none" stroke="#804A1E" stroke-width="0.8119" stroke-miterlimit="10" d="M666.8,542.1c0-0.1,0-0.2,0-0.2
			c0-0.6,0-1.2,0-1.9c0-0.2,0-0.2,0.2-0.2c2.4,0,4.8,0,7.2,0c0.2,0,0.2,0.1,0.2,0.2c0,2.8,0,5.6,0,8.5c0,0.2-0.1,0.2-0.3,0.2
			c-1.1,0-2.1,0-3.2,0c-0.1,0-0.1,0-0.2,0c0,0.1,0,0.2,0,0.2c0,0.6,0,1.2,0,1.9c0,0.2-0.1,0.3-0.2,0.3c-2.4,0-4.7,0-7.1,0
			c-0.2,0-0.3-0.1-0.3-0.3c0-2.8,0-5.6,0-8.4c0-0.2,0.1-0.3,0.3-0.3c1,0,2.1,0,3.1,0C666.6,542.1,666.7,542.1,666.8,542.1z
			 M670.4,550.7c0-2.8,0-5.6,0-8.4c-2.4,0-4.7,0-7,0c0,2.8,0,5.6,0,8.4C665.7,550.7,668.1,550.7,670.4,550.7z M667.1,540
			c0,0.7,0,1.4,0,2.1c0.1,0,0.2,0,0.2,0c1,0,2.1,0,3.1,0c0.3,0,0.3,0,0.3,0.3c0,1.9,0,3.8,0,5.7c0,0.1,0,0.2,0,0.2
			c1.1,0,2.3,0,3.4,0c0-2.8,0-5.6,0-8.4C671.7,540,669.4,540,667.1,540z"/>
	</g>
</g>
<g id="supprimer">
	<g>
		<g>
			<line fill="none" stroke="#F39200" stroke-width="1.1589" stroke-miterlimit="10" x1="703.3" y1="520.2" x2="693.3" y2="530.3"/>
			<line fill="none" stroke="#F39200" stroke-width="1.1589" stroke-miterlimit="10" x1="703.2" y1="530.3" x2="693.3" y2="520.3"/>
		</g>
	</g>
</g>
<g id="supprimer-pressed">
	<g>
		<g>
			<g>
				
					<line fill="none" stroke="#804A1E" stroke-width="1.1589" stroke-miterlimit="10" x1="703.3" y1="540.5" x2="693.3" y2="550.6"/>
				
					<line fill="none" stroke="#804A1E" stroke-width="1.1589" stroke-miterlimit="10" x1="703.2" y1="550.7" x2="693.3" y2="540.6"/>
			</g>
		</g>
	</g>
</g>
<g id="triangletrierpar">
	<polygon fill="#535A66" points="722,522.1 725.7,528.5 729.3,522.1 	"/>
</g>
<g id="creernouvelagent">
	<g>
		<path fill="#FFFFFF" d="M420.5,446.7c0,1.3,0,2.6,0,3.8c0,0.7,0,1.5,0,2.2c0,0.4,0.2,0.8,0.6,0.8c0.4,0,0.6-0.3,0.6-0.7
			c0-0.1,0-0.1,0-0.2c0-2.1,0-4.1,0-6.2c0-0.3-0.2-0.7-0.4-0.9c-1-1.1-2.1-2.1-3.1-3.1c-0.3-0.3-0.6-0.4-1.1-0.4c-2.7,0-5.4,0-8.1,0
			c-0.9,0-1,0.2-1,1c0,4.9,0,9.7,0,14.6c0,0.9,0.2,1,1.1,1c2.2,0,4.4,0,6.5,0c0.2,0,0.4,0,0.6-0.1c0.2-0.1,0.5-0.4,0.5-0.5
			c0-0.2-0.2-0.4-0.4-0.6c-0.1-0.1-0.3,0-0.5,0c-2,0-3.9,0-5.9,0c-0.2,0-0.4,0-0.6,0c0-4.8,0-9.5,0-14.2c2.6,0,5.1,0,7.7,0
			c0,0.9,0,1.7,0,2.6c0,0.8,0.2,0.9,0.9,0.9C418.7,446.7,419.6,446.7,420.5,446.7z M418.1,456.2c0,0.6,0,1.1,0,1.6
			c0,0.6,0.2,0.8,0.6,0.8c0.5,0,0.6-0.4,0.6-0.8c0-0.5,0-1,0-1.6c0.6,0,1.1,0,1.6,0c0.4,0,0.7-0.1,0.7-0.6c0-0.5-0.3-0.6-0.7-0.6
			c-0.5,0-1,0-1.6,0c0-0.6,0-1.1,0-1.6c0-0.4-0.1-0.8-0.6-0.8c-0.5,0-0.6,0.3-0.6,0.8c0,0.5,0,1,0,1.6c-0.6,0-1.1,0-1.7,0
			c-0.4,0-0.7,0.2-0.7,0.6c0,0.4,0.3,0.6,0.7,0.6C417,456.2,417.5,456.2,418.1,456.2z"/>
		<path fill="#FFFFFF" d="M420.5,446.7c-0.9,0-1.8,0-2.6,0c-0.8,0-0.9-0.2-0.9-0.9c0-0.8,0-1.7,0-2.6c-2.6,0-5.1,0-7.7,0
			c0,4.7,0,9.4,0,14.2c0.2,0,0.4,0,0.6,0c2,0,3.9,0,5.9,0c0.2,0,0.4,0,0.5,0c0.2,0.2,0.4,0.4,0.4,0.6c0,0.2-0.3,0.4-0.5,0.5
			c-0.1,0.1-0.4,0.1-0.6,0.1c-2.2,0-4.4,0-6.5,0c-0.9,0-1.1-0.2-1.1-1c0-4.9,0-9.7,0-14.6c0-0.9,0.2-1,1-1c2.7,0,5.4,0,8.1,0
			c0.4,0,0.8,0.1,1.1,0.4c1,1.1,2.1,2.1,3.1,3.1c0.2,0.2,0.4,0.6,0.4,0.9c0,2.1,0,4.1,0,6.2c0,0.1,0,0.1,0,0.2
			c0,0.4-0.2,0.7-0.6,0.7c-0.5,0-0.6-0.3-0.6-0.8c0-0.7,0-1.5,0-2.2C420.5,449.3,420.5,448,420.5,446.7z M419.4,445.5
			c-0.4-0.4-0.8-0.9-1.2-1.4c0,0.5,0,0.9,0,1.4C418.7,445.5,419.1,445.5,419.4,445.5z"/>
		<path fill="#FFFFFF" d="M418.1,456.2c-0.6,0-1.1,0-1.6,0c-0.4,0-0.7-0.2-0.7-0.6c0-0.4,0.3-0.6,0.7-0.6c0.5,0,1.1,0,1.7,0
			c0-0.6,0-1.1,0-1.6c0-0.4,0.1-0.8,0.6-0.8c0.5,0,0.6,0.3,0.6,0.8c0,0.5,0,1,0,1.6c0.6,0,1.1,0,1.6,0c0.4,0,0.8,0.1,0.7,0.6
			c0,0.5-0.3,0.6-0.7,0.6c-0.5,0-1,0-1.6,0c0,0.6,0,1.1,0,1.6c0,0.4-0.1,0.8-0.6,0.8c-0.4,0-0.6-0.2-0.6-0.8
			C418.1,457.3,418.1,456.8,418.1,456.2z"/>
	</g>
</g>
<g id="importer">
	<g>
		<g>
			<path fill="#FFFFFF" d="M447.4,459.2c-1.9,0-3.7,0-5.6,0c-1.6,0-2.8-1.1-2.8-2.7c0-1.2,0-2.5,0-3.7c0-0.5,0.3-0.9,0.7-0.9
				c0.5,0,0.8,0.3,0.8,0.9c0,1.2,0,2.3,0,3.5c0,1,0.4,1.4,1.4,1.4c3.7,0,7.4,0,11.1,0c1,0,1.4-0.4,1.4-1.4c0-1.1,0-2.3,0-3.4
				c0-0.6,0.3-0.9,0.7-0.9c0.5,0,0.8,0.3,0.8,0.9c0,1.2,0,2.5,0,3.7c0,1.5-1.2,2.6-2.7,2.7C451.2,459.2,449.3,459.2,447.4,459.2z"/>
			<path fill="#FFFFFF" d="M448.2,451.5c0.7-0.7,1.5-1.4,2.3-2.1c0.1-0.1,0.2-0.2,0.4-0.3c0.3-0.2,0.6-0.2,0.9,0.1
				c0.3,0.3,0.3,0.6,0.1,0.9c-0.1,0.1-0.2,0.2-0.3,0.3c-1.2,1.2-2.3,2.3-3.5,3.5c-0.5,0.5-0.9,0.5-1.4,0c-1.2-1.2-2.4-2.4-3.5-3.5
				c-0.4-0.4-0.4-0.8-0.1-1.1c0.3-0.3,0.7-0.3,1.2,0.1c0.8,0.8,1.6,1.6,2.5,2.3c0-0.2,0-0.3,0-0.5c0-2.4,0-4.9,0-7.3
				c0-0.2,0-0.3,0-0.5c0.1-0.4,0.3-0.6,0.7-0.7c0.4,0,0.7,0.2,0.8,0.7c0,0.2,0,0.3,0,0.5c0,2.4,0,4.8,0,7.2
				C448.2,451.3,448.2,451.5,448.2,451.5z"/>
		</g>
	</g>
</g>
<g id="Calque_25">
	<g id="creernouvelagent-disabled_1_">
		<path fill="#535A66" d="M417.1,510.2c0,1.3,0,2.6,0,3.8c0,0.7,0,1.5,0,2.2c0,0.4,0.2,0.8,0.6,0.8c0.4,0,0.6-0.3,0.6-0.7
			c0-0.1,0-0.1,0-0.2c0-2.1,0-4.1,0-6.2c0-0.3-0.2-0.7-0.4-0.9c-1-1.1-2.1-2.1-3.1-3.1c-0.3-0.3-0.6-0.4-1.1-0.4c-2.7,0-5.4,0-8.1,0
			c-0.9,0-1,0.2-1,1c0,4.9,0,9.7,0,14.6c0,0.9,0.2,1,1.1,1c2.2,0,4.4,0,6.5,0c0.2,0,0.4,0,0.6-0.1c0.2-0.1,0.5-0.4,0.5-0.5
			c0-0.2-0.2-0.4-0.4-0.6c-0.1-0.1-0.3,0-0.5,0c-2,0-3.9,0-5.9,0c-0.2,0-0.4,0-0.6,0c0-4.8,0-9.5,0-14.2c2.6,0,5.1,0,7.7,0
			c0,0.9,0,1.7,0,2.6c0,0.8,0.2,0.9,0.9,0.9C415.3,510.2,416.2,510.2,417.1,510.2z M414.7,519.7c0,0.6,0,1.1,0,1.6
			c0,0.6,0.2,0.8,0.6,0.8c0.5,0,0.6-0.4,0.6-0.8c0-0.5,0-1,0-1.6c0.6,0,1.1,0,1.6,0c0.4,0,0.7-0.1,0.7-0.6c0-0.5-0.3-0.6-0.7-0.6
			c-0.5,0-1,0-1.6,0c0-0.6,0-1.1,0-1.6c0-0.4-0.1-0.8-0.6-0.8c-0.5,0-0.6,0.3-0.6,0.8c0,0.5,0,1,0,1.6c-0.6,0-1.1,0-1.7,0
			c-0.4,0-0.7,0.2-0.7,0.6c0,0.4,0.3,0.6,0.7,0.6C413.6,519.7,414.1,519.7,414.7,519.7z"/>
		<path fill="#535A66" d="M417.1,510.2c-0.9,0-1.8,0-2.6,0c-0.8,0-0.9-0.2-0.9-0.9c0-0.8,0-1.7,0-2.6c-2.6,0-5.1,0-7.7,0
			c0,4.7,0,9.4,0,14.2c0.2,0,0.4,0,0.6,0c2,0,3.9,0,5.9,0c0.2,0,0.4,0,0.5,0c0.2,0.2,0.4,0.4,0.4,0.6c0,0.2-0.3,0.4-0.5,0.5
			c-0.1,0.1-0.4,0.1-0.6,0.1c-2.2,0-4.4,0-6.5,0c-0.9,0-1.1-0.2-1.1-1c0-4.9,0-9.7,0-14.6c0-0.9,0.2-1,1-1c2.7,0,5.4,0,8.1,0
			c0.4,0,0.8,0.1,1.1,0.4c1,1.1,2.1,2.1,3.1,3.1c0.2,0.2,0.4,0.6,0.4,0.9c0,2.1,0,4.1,0,6.2c0,0.1,0,0.1,0,0.2
			c0,0.4-0.2,0.7-0.6,0.7c-0.5,0-0.6-0.3-0.6-0.8c0-0.7,0-1.5,0-2.2C417.1,512.7,417.1,511.5,417.1,510.2z M416,508.9
			c-0.4-0.4-0.8-0.9-1.2-1.4c0,0.5,0,0.9,0,1.4C415.2,508.9,415.7,508.9,416,508.9z"/>
		<path fill="#535A66" d="M414.7,519.7c-0.6,0-1.1,0-1.6,0c-0.4,0-0.7-0.2-0.7-0.6c0-0.4,0.3-0.6,0.7-0.6c0.5,0,1.1,0,1.7,0
			c0-0.6,0-1.1,0-1.6c0-0.4,0.1-0.8,0.6-0.8c0.5,0,0.6,0.3,0.6,0.8c0,0.5,0,1,0,1.6c0.6,0,1.1,0,1.6,0c0.4,0,0.8,0.1,0.7,0.6
			c0,0.5-0.3,0.6-0.7,0.6c-0.5,0-1,0-1.6,0c0,0.6,0,1.1,0,1.6c0,0.4-0.1,0.8-0.6,0.8c-0.4,0-0.6-0.2-0.6-0.8
			C414.7,520.7,414.7,520.2,414.7,519.7z"/>
	</g>
	<g id="importer-disabled_1_">
		<g>
			<path fill="#535A66" d="M444,522.6c-1.9,0-3.7,0-5.6,0c-1.6,0-2.8-1.1-2.8-2.7c0-1.2,0-2.5,0-3.7c0-0.5,0.3-0.9,0.7-0.9
				c0.5,0,0.8,0.3,0.8,0.9c0,1.2,0,2.3,0,3.5c0,1,0.4,1.4,1.4,1.4c3.7,0,7.4,0,11.1,0c1,0,1.4-0.4,1.4-1.4c0-1.1,0-2.3,0-3.4
				c0-0.6,0.3-0.9,0.7-0.9c0.5,0,0.8,0.3,0.8,0.9c0,1.2,0,2.5,0,3.7c0,1.5-1.2,2.6-2.7,2.7C447.8,522.6,445.9,522.6,444,522.6z"/>
			<path fill="#535A66" d="M444.8,515c0.7-0.7,1.5-1.4,2.3-2.1c0.1-0.1,0.2-0.2,0.4-0.3c0.3-0.2,0.6-0.2,0.9,0.1
				c0.3,0.3,0.3,0.6,0.1,0.9c-0.1,0.1-0.2,0.2-0.3,0.3c-1.2,1.2-2.3,2.3-3.5,3.5c-0.5,0.5-0.9,0.5-1.4,0c-1.2-1.2-2.4-2.4-3.5-3.5
				c-0.4-0.4-0.4-0.8-0.1-1.1c0.3-0.3,0.7-0.3,1.2,0.1c0.8,0.8,1.6,1.6,2.5,2.3c0-0.2,0-0.3,0-0.5c0-2.4,0-4.9,0-7.3
				c0-0.2,0-0.3,0-0.5c0.1-0.4,0.3-0.6,0.7-0.7c0.4,0,0.7,0.2,0.8,0.7c0,0.2,0,0.3,0,0.5c0,2.4,0,4.8,0,7.2
				C444.8,514.8,444.8,515,444.8,515z"/>
		</g>
	</g>
	<g id="exporter-disabled">
		<path fill="#535A66" d="M470.8,523.4c-1.8,0-3.6,0-5.5,0c-1.6,0-2.7-1.1-2.8-2.7c0-1.2,0-2.4,0-3.6c0-0.5,0.3-0.9,0.8-0.9
			c0.4,0,0.7,0.3,0.7,0.9c0,1.1,0,2.3,0,3.4c0,1,0.4,1.4,1.4,1.4c3.6,0,7.3,0,10.9,0c1,0,1.4-0.4,1.4-1.4c0-1.1,0-2.2,0-3.4
			c0-0.6,0.3-0.9,0.7-0.9c0.5,0,0.7,0.3,0.7,0.9c0,1.2,0,2.4,0,3.6c0,1.5-1.2,2.6-2.7,2.6C474.5,523.4,472.6,523.4,470.8,523.4z"/>
		<path fill="#535A66" d="M471.6,509.9c0,0.2,0,0.3,0,0.5c0,2.4,0,4.7,0,7.1c0,0.8-0.2,1.1-0.7,1.1c-0.5,0-0.7-0.4-0.7-1.1
			c0-2.4,0-4.7,0-7.1c0-0.2,0-0.3,0-0.6c-0.2,0.1-0.3,0.2-0.4,0.3c-0.7,0.7-1.4,1.4-2.1,2.1c-0.3,0.2-0.6,0.4-0.9,0.2
			c-0.3-0.2-0.4-0.4-0.4-0.8c0-0.2,0.1-0.3,0.2-0.4c1.2-1.2,2.4-2.4,3.6-3.6c0.4-0.4,0.8-0.4,1.2,0c1.2,1.2,2.4,2.4,3.6,3.6
			c0.4,0.4,0.4,0.8,0.1,1.1c-0.3,0.3-0.7,0.3-1.1-0.1c-0.8-0.8-1.5-1.5-2.3-2.3C471.7,509.9,471.6,509.9,471.6,509.9z"/>
	</g>
	<g id="supprimerplusieurs-disabled">
		<g>
			<path fill="#535A66" d="M505.8,510c0,1.3,0,2.6,0,3.8c0,0.7,0,1.5,0,2.2c0,0.4,0.2,0.8,0.6,0.8c0.4,0,0.6-0.3,0.6-0.7
				c0-0.1,0-0.1,0-0.2c0-2.1,0-4.1,0-6.2c0-0.3-0.2-0.7-0.4-0.9c-1-1.1-2.1-2.1-3.1-3.1c-0.3-0.3-0.6-0.4-1.1-0.4
				c-2.7,0-5.4,0-8.1,0c-0.9,0-1,0.2-1,1c0,4.9,0,9.7,0,14.6c0,0.9,0.2,1,1.1,1c2.2,0,4.4,0,6.5,0c0.2,0,0.4,0,0.6-0.1
				c0.2-0.1,0.5-0.4,0.5-0.5c0-0.2-0.2-0.4-0.4-0.6c-0.1-0.1-0.3,0-0.5,0c-2,0-3.9,0-5.9,0c-0.2,0-0.4,0-0.6,0c0-4.8,0-9.5,0-14.2
				c2.6,0,5.1,0,7.7,0c0,0.9,0,1.7,0,2.6c0,0.8,0.2,0.9,0.9,0.9C504.1,510,504.9,510,505.8,510z"/>
			<path fill="#535A66" d="M505.8,510c-0.9,0-1.8,0-2.6,0c-0.8,0-0.9-0.2-0.9-0.9c0-0.8,0-1.7,0-2.6c-2.6,0-5.1,0-7.7,0
				c0,4.7,0,9.4,0,14.2c0.2,0,0.4,0,0.6,0c2,0,3.9,0,5.9,0c0.2,0,0.4,0,0.5,0c0.2,0.2,0.4,0.4,0.4,0.6c0,0.2-0.3,0.4-0.5,0.5
				c-0.1,0.1-0.4,0.1-0.6,0.1c-2.2,0-4.4,0-6.5,0c-0.9,0-1.1-0.2-1.1-1c0-4.9,0-9.7,0-14.6c0-0.9,0.2-1,1-1c2.7,0,5.4,0,8.1,0
				c0.4,0,0.8,0.1,1.1,0.4c1,1.1,2.1,2.1,3.1,3.1c0.2,0.2,0.4,0.6,0.4,0.9c0,2.1,0,4.1,0,6.2c0,0.1,0,0.1,0,0.2
				c0,0.4-0.2,0.7-0.6,0.7c-0.5,0-0.6-0.3-0.6-0.8c0-0.7,0-1.5,0-2.2C505.8,512.6,505.8,511.3,505.8,510z M504.8,508.8
				c-0.4-0.4-0.8-0.9-1.2-1.4c0,0.5,0,0.9,0,1.4C504,508.8,504.4,508.8,504.8,508.8z"/>
			<path fill="#535A66" d="M503.9,520c-0.4-0.4-0.8-0.8-1.2-1.2c-0.3-0.3-0.4-0.6-0.1-0.9c0.3-0.3,0.6-0.2,0.9,0.1
				c0.4,0.4,0.7,0.7,1.2,1.2c0.4-0.4,0.8-0.8,1.1-1.1c0.3-0.3,0.6-0.4,1-0.1c0.3,0.3,0.2,0.7-0.1,1c-0.4,0.3-0.7,0.7-1.1,1.1
				c0.4,0.4,0.8,0.8,1.1,1.1c0.3,0.3,0.4,0.6,0.1,1c-0.3,0.3-0.6,0.2-0.9-0.1c-0.4-0.4-0.7-0.7-1.1-1.1c-0.4,0.4-0.8,0.7-1.1,1.1
				c-0.3,0.3-0.6,0.5-1,0.1c-0.3-0.3-0.3-0.6,0.1-1C503.1,520.7,503.5,520.4,503.9,520z"/>
		</g>
	</g>
</g>
<g id="exporter">
	<g>
		<path fill="#FFFFFF" d="M474.2,459.9c-1.8,0-3.6,0-5.5,0c-1.6,0-2.7-1.1-2.8-2.7c0-1.2,0-2.4,0-3.6c0-0.5,0.3-0.9,0.8-0.9
			c0.4,0,0.7,0.3,0.7,0.9c0,1.1,0,2.3,0,3.4c0,1,0.4,1.4,1.4,1.4c3.6,0,7.3,0,10.9,0c1,0,1.4-0.4,1.4-1.4c0-1.1,0-2.2,0-3.4
			c0-0.6,0.3-0.9,0.7-0.9c0.5,0,0.7,0.3,0.7,0.9c0,1.2,0,2.4,0,3.6c0,1.5-1.2,2.6-2.7,2.6C477.9,459.9,476,459.9,474.2,459.9z"/>
		<path fill="#FFFFFF" d="M475,446.5c0,0.2,0,0.3,0,0.5c0,2.4,0,4.7,0,7.1c0,0.8-0.2,1.1-0.7,1.1c-0.5,0-0.7-0.4-0.7-1.1
			c0-2.4,0-4.7,0-7.1c0-0.2,0-0.3,0-0.6c-0.2,0.1-0.3,0.2-0.4,0.3c-0.7,0.7-1.4,1.4-2.1,2.1c-0.3,0.2-0.6,0.4-0.9,0.2
			c-0.3-0.2-0.4-0.4-0.4-0.8c0-0.2,0.1-0.3,0.2-0.4c1.2-1.2,2.4-2.4,3.6-3.6c0.4-0.4,0.8-0.4,1.2,0c1.2,1.2,2.4,2.4,3.6,3.6
			c0.4,0.4,0.4,0.8,0.1,1.1c-0.3,0.3-0.7,0.3-1.1-0.1c-0.8-0.8-1.5-1.5-2.3-2.3C475.1,446.5,475,446.5,475,446.5z"/>
	</g>
</g>
<g id="supprimerplusieurs">
	<g>
		<g>
			<path fill="#FFFFFF" d="M509.3,446.5c0,1.3,0,2.6,0,3.8c0,0.7,0,1.5,0,2.2c0,0.4,0.2,0.8,0.6,0.8c0.4,0,0.6-0.3,0.6-0.7
				c0-0.1,0-0.1,0-0.2c0-2.1,0-4.1,0-6.2c0-0.3-0.2-0.7-0.4-0.9c-1-1.1-2.1-2.1-3.1-3.1c-0.3-0.3-0.6-0.4-1.1-0.4
				c-2.7,0-5.4,0-8.1,0c-0.9,0-1,0.2-1,1c0,4.9,0,9.7,0,14.6c0,0.9,0.2,1,1.1,1c2.2,0,4.4,0,6.5,0c0.2,0,0.4,0,0.6-0.1
				c0.2-0.1,0.5-0.4,0.5-0.5c0-0.2-0.2-0.4-0.4-0.6c-0.1-0.1-0.3,0-0.5,0c-2,0-3.9,0-5.9,0c-0.2,0-0.4,0-0.6,0c0-4.8,0-9.5,0-14.2
				c2.6,0,5.1,0,7.7,0c0,0.9,0,1.7,0,2.6c0,0.8,0.2,0.9,0.9,0.9C507.5,446.5,508.3,446.5,509.3,446.5z"/>
			<path fill="#FFFFFF" d="M509.3,446.5c-0.9,0-1.8,0-2.6,0c-0.8,0-0.9-0.2-0.9-0.9c0-0.8,0-1.7,0-2.6c-2.6,0-5.1,0-7.7,0
				c0,4.7,0,9.4,0,14.2c0.2,0,0.4,0,0.6,0c2,0,3.9,0,5.9,0c0.2,0,0.4,0,0.5,0c0.2,0.2,0.4,0.4,0.4,0.6c0,0.2-0.3,0.4-0.5,0.5
				c-0.1,0.1-0.4,0.1-0.6,0.1c-2.2,0-4.4,0-6.5,0c-0.9,0-1.1-0.2-1.1-1c0-4.9,0-9.7,0-14.6c0-0.9,0.2-1,1-1c2.7,0,5.4,0,8.1,0
				c0.4,0,0.8,0.1,1.1,0.4c1,1.1,2.1,2.1,3.1,3.1c0.2,0.2,0.4,0.6,0.4,0.9c0,2.1,0,4.1,0,6.2c0,0.1,0,0.1,0,0.2
				c0,0.4-0.2,0.7-0.6,0.7c-0.5,0-0.6-0.3-0.6-0.8c0-0.7,0-1.5,0-2.2C509.3,449.1,509.3,447.8,509.3,446.5z M508.2,445.3
				c-0.4-0.4-0.8-0.9-1.2-1.4c0,0.5,0,0.9,0,1.4C507.4,445.3,507.8,445.3,508.2,445.3z"/>
			<path fill="#FFFFFF" d="M507.3,456.5c-0.4-0.4-0.8-0.8-1.2-1.2c-0.3-0.3-0.4-0.6-0.1-0.9c0.3-0.3,0.6-0.2,0.9,0.1
				c0.4,0.4,0.7,0.7,1.2,1.2c0.4-0.4,0.8-0.8,1.1-1.1c0.3-0.3,0.6-0.4,1-0.1c0.3,0.3,0.2,0.7-0.1,1c-0.4,0.3-0.7,0.7-1.1,1.1
				c0.4,0.4,0.8,0.8,1.1,1.1c0.3,0.3,0.4,0.6,0.1,1c-0.3,0.3-0.6,0.2-0.9-0.1c-0.4-0.4-0.7-0.7-1.1-1.1c-0.4,0.4-0.8,0.7-1.1,1.1
				c-0.3,0.3-0.6,0.5-1,0.1c-0.3-0.3-0.3-0.6,0.1-1C506.5,457.2,506.9,456.9,507.3,456.5z"/>
		</g>
	</g>
</g>
<g id="on">
	<g>
		<linearGradient id="SVGID_1_" gradientUnits="userSpaceOnUse" x1="818.5409" y1="462.1777" x2="818.5409" y2="442.3776">
			<stop  offset="0" style="stop-color:#FFFFFF"/>
			<stop  offset="0.3119" style="stop-color:#FDFDFE"/>
			<stop  offset="0.4787" style="stop-color:#F6F6F9"/>
			<stop  offset="0.6113" style="stop-color:#E9EAEF"/>
			<stop  offset="0.7259" style="stop-color:#D8DAE2"/>
			<stop  offset="0.8288" style="stop-color:#C1C6D1"/>
			<stop  offset="0.9219" style="stop-color:#A5AEBD"/>
			<stop  offset="1" style="stop-color:#8896AA"/>
		</linearGradient>
		<path fill="url(#SVGID_1_)" stroke="#17191E" stroke-width="1.123" stroke-miterlimit="10" d="M826.4,462.2h-15.7
			c-2.3,0-4.2-1.9-4.2-4.2v-11.5c0-2.3,1.9-4.2,4.2-4.2h15.7c2.3,0,4.2,1.9,4.2,4.2V458C830.5,460.3,828.7,462.2,826.4,462.2z"/>
		<path fill="#282D34" d="M817.6,446.4c0-0.5,0.4-1,1-1s1,0.4,1,1v4.2c0,0.5-0.4,1-1,1s-1-0.4-1-1V446.4z M818.5,459.1
			c-3.4,0-6.2-2.8-6.2-6.2c0-1.5,0.6-3,1.6-4.1c0.4-0.4,1-0.4,1.4-0.1c0.4,0.4,0.4,1,0.1,1.4c-0.7,0.8-1.1,1.8-1.1,2.8
			c0,2.3,1.9,4.3,4.3,4.3s4.3-1.9,4.3-4.3c0-1-0.4-2.1-1.1-2.8c-0.4-0.4-0.3-1,0.1-1.4c0.4-0.4,1-0.3,1.4,0.1c1,1.1,1.6,2.6,1.6,4.1
			C824.8,456.3,822,459.1,818.5,459.1z"/>
	</g>
</g>
<g id="on-pressed_1_">
	<g>
		<linearGradient id="SVGID_2_" gradientUnits="userSpaceOnUse" x1="818.5409" y1="485.1837" x2="818.5409" y2="465.3837">
			<stop  offset="0" style="stop-color:#FFFFFF"/>
			<stop  offset="0.3119" style="stop-color:#FDFDFE"/>
			<stop  offset="0.4787" style="stop-color:#F6F6F9"/>
			<stop  offset="0.6113" style="stop-color:#E9EAEF"/>
			<stop  offset="0.7259" style="stop-color:#D8DAE2"/>
			<stop  offset="0.8288" style="stop-color:#C1C6D1"/>
			<stop  offset="0.9219" style="stop-color:#A5AEBD"/>
			<stop  offset="1" style="stop-color:#8896AA"/>
		</linearGradient>
		<path fill="url(#SVGID_2_)" stroke="#17191E" stroke-width="1.123" stroke-miterlimit="10" d="M826.4,485.2h-15.7
			c-2.3,0-4.2-1.9-4.2-4.2v-11.5c0-2.3,1.9-4.2,4.2-4.2h15.7c2.3,0,4.2,1.9,4.2,4.2V481C830.5,483.3,828.7,485.2,826.4,485.2z"/>
		<path fill="#878787" d="M817.6,469.4c0-0.5,0.4-1,1-1s1,0.4,1,1v4.2c0,0.5-0.4,1-1,1s-1-0.4-1-1V469.4z M818.5,482.1
			c-3.4,0-6.2-2.8-6.2-6.2c0-1.5,0.6-3,1.6-4.1c0.4-0.4,1-0.4,1.4-0.1c0.4,0.4,0.4,1,0.1,1.4c-0.7,0.8-1.1,1.8-1.1,2.8
			c0,2.3,1.9,4.3,4.3,4.3s4.3-1.9,4.3-4.3c0-1-0.4-2.1-1.1-2.8c-0.4-0.4-0.3-1,0.1-1.4c0.4-0.4,1-0.3,1.4,0.1c1,1.1,1.6,2.6,1.6,4.1
			C824.8,479.3,822,482.1,818.5,482.1z"/>
	</g>
</g>
<g id="off">
	<g>
		<linearGradient id="SVGID_3_" gradientUnits="userSpaceOnUse" x1="818.0311" y1="511.6422" x2="818.0311" y2="491.8422">
			<stop  offset="0" style="stop-color:#17191E"/>
			<stop  offset="1" style="stop-color:#3C424F"/>
		</linearGradient>
		<path fill="url(#SVGID_3_)" stroke="#17191E" stroke-miterlimit="10" d="M825.9,511.6h-15.7c-2.3,0-4.2-1.9-4.2-4.2V496
			c0-2.3,1.9-4.2,4.2-4.2h15.7c2.3,0,4.2,1.9,4.2,4.2v11.5C830,509.8,828.2,511.6,825.9,511.6z"/>
		<path fill="#F6F6F6" d="M817.1,495.9c0-0.5,0.4-1,1-1s1,0.4,1,1v4.2c0,0.5-0.4,1-1,1s-1-0.4-1-1V495.9z M818,508.6
			c-3.4,0-6.2-2.8-6.2-6.2c0-1.5,0.6-3,1.6-4.1c0.4-0.4,1-0.4,1.4-0.1c0.4,0.4,0.4,1,0.1,1.4c-0.7,0.8-1.1,1.8-1.1,2.8
			c0,2.3,1.9,4.3,4.3,4.3s4.3-1.9,4.3-4.3c0-1-0.4-2.1-1.1-2.8c-0.4-0.4-0.3-1,0.1-1.4c0.4-0.4,1-0.3,1.4,0.1c1,1.1,1.6,2.6,1.6,4.1
			C824.2,505.8,821.5,508.6,818,508.6z"/>
	</g>
</g>
<g id="off-pressed">
	<g>
		<linearGradient id="SVGID_4_" gradientUnits="userSpaceOnUse" x1="818.0311" y1="534.6224" x2="818.0311" y2="514.8223">
			<stop  offset="0" style="stop-color:#17191E"/>
			<stop  offset="1" style="stop-color:#3C424F"/>
		</linearGradient>
		<path fill="url(#SVGID_4_)" stroke="#17191E" stroke-miterlimit="10" d="M825.9,534.6h-15.7c-2.3,0-4.2-1.9-4.2-4.2V519
			c0-2.3,1.9-4.2,4.2-4.2h15.7c2.3,0,4.2,1.9,4.2,4.2v11.5C830,532.8,828.2,534.6,825.9,534.6z"/>
		<path fill="#575756" d="M817.1,518.9c0-0.5,0.4-1,1-1s1,0.4,1,1v4.2c0,0.5-0.4,1-1,1s-1-0.4-1-1V518.9z M818,531.6
			c-3.4,0-6.2-2.8-6.2-6.2c0-1.5,0.6-3,1.6-4.1c0.4-0.4,1-0.4,1.4-0.1c0.4,0.4,0.4,1,0.1,1.4c-0.7,0.8-1.1,1.8-1.1,2.8
			c0,2.3,1.9,4.3,4.3,4.3s4.3-1.9,4.3-4.3c0-1-0.4-2.1-1.1-2.8c-0.4-0.4-0.3-1,0.1-1.4c0.4-0.4,1-0.3,1.4,0.1c1,1.1,1.6,2.6,1.6,4.1
			C824.2,528.8,821.5,531.6,818,531.6z"/>
	</g>
</g>
<g id="freezeactif">
	<g>
		<linearGradient id="SVGID_5_" gradientUnits="userSpaceOnUse" x1="895.1262" y1="462.1766" x2="895.1262" y2="442.3766">
			<stop  offset="0" style="stop-color:#FFFFFF"/>
			<stop  offset="0.3119" style="stop-color:#FDFDFE"/>
			<stop  offset="0.4787" style="stop-color:#F6F6F9"/>
			<stop  offset="0.6113" style="stop-color:#E9EAEF"/>
			<stop  offset="0.7259" style="stop-color:#D8DAE2"/>
			<stop  offset="0.8288" style="stop-color:#C1C6D1"/>
			<stop  offset="0.9219" style="stop-color:#A5AEBD"/>
			<stop  offset="1" style="stop-color:#8896AA"/>
		</linearGradient>
		<path fill="url(#SVGID_5_)" stroke="#17191E" stroke-width="1.123" stroke-miterlimit="10" d="M903,462.2h-15.7
			c-2.3,0-4.2-1.9-4.2-4.2v-11.5c0-2.3,1.9-4.2,4.2-4.2H903c2.3,0,4.2,1.9,4.2,4.2V458C907.1,460.3,905.3,462.2,903,462.2z"/>
		<path fill="#282D34" d="M900.3,453.2h-3.1l2.2,2.2c0.3,0.3,0.3,0.9,0,1.3c-0.3,0.3-0.9,0.3-1.3,0l-2.2-2.2v3.1
			c0,0.5-0.4,0.9-0.9,0.9c-0.5,0-0.9-0.4-0.9-0.9v-3.1l-2.2,2.2c-0.3,0.3-0.9,0.3-1.3,0c-0.3-0.3-0.3-0.9,0-1.3l2.2-2.2h-3.1
			c-0.5,0-0.9-0.4-0.9-0.9s0.4-0.9,0.9-0.9h3.1l-2.2-2.2c-0.3-0.3-0.3-0.9,0-1.3c0.3-0.3,0.9-0.3,1.3,0l2.2,2.2v-3.1
			c0-0.5,0.4-0.9,0.9-0.9c0.5,0,0.9,0.4,0.9,0.9v3.1l2.2-2.2c0.3-0.3,0.9-0.3,1.3,0c0.3,0.3,0.3,0.9,0,1.3l-2.2,2.2h3.1
			c0.5,0,0.9,0.4,0.9,0.9S900.8,453.2,900.3,453.2z"/>
	</g>
</g>
<g id="freezeactif-pressed">
	<g>
		<linearGradient id="SVGID_6_" gradientUnits="userSpaceOnUse" x1="895.1262" y1="485.1827" x2="895.1262" y2="465.3826">
			<stop  offset="0" style="stop-color:#FFFFFF"/>
			<stop  offset="0.3119" style="stop-color:#FDFDFE"/>
			<stop  offset="0.4787" style="stop-color:#F6F6F9"/>
			<stop  offset="0.6113" style="stop-color:#E9EAEF"/>
			<stop  offset="0.7259" style="stop-color:#D8DAE2"/>
			<stop  offset="0.8288" style="stop-color:#C1C6D1"/>
			<stop  offset="0.9219" style="stop-color:#A5AEBD"/>
			<stop  offset="1" style="stop-color:#8896AA"/>
		</linearGradient>
		<path fill="url(#SVGID_6_)" stroke="#17191E" stroke-width="1.123" stroke-miterlimit="10" d="M903,485.2h-15.7
			c-2.3,0-4.2-1.9-4.2-4.2v-11.5c0-2.3,1.9-4.2,4.2-4.2H903c2.3,0,4.2,1.9,4.2,4.2V481C907.1,483.3,905.3,485.2,903,485.2z"/>
		<path fill="#878787" d="M900.3,476.2h-3.1l2.2,2.2c0.3,0.3,0.3,0.9,0,1.3c-0.3,0.3-0.9,0.3-1.3,0l-2.2-2.2v3.1
			c0,0.5-0.4,0.9-0.9,0.9c-0.5,0-0.9-0.4-0.9-0.9v-3.1l-2.2,2.2c-0.3,0.3-0.9,0.3-1.3,0c-0.3-0.3-0.3-0.9,0-1.3l2.2-2.2h-3.1
			c-0.5,0-0.9-0.4-0.9-0.9s0.4-0.9,0.9-0.9h3.1l-2.2-2.2c-0.3-0.3-0.3-0.9,0-1.3c0.3-0.3,0.9-0.3,1.3,0l2.2,2.2v-3.1
			c0-0.5,0.4-0.9,0.9-0.9c0.5,0,0.9,0.4,0.9,0.9v3.1l2.2-2.2c0.3-0.3,0.9-0.3,1.3,0c0.3,0.3,0.3,0.9,0,1.3l-2.2,2.2h3.1
			c0.5,0,0.9,0.4,0.9,0.9S900.8,476.2,900.3,476.2z"/>
	</g>
</g>
<g id="freezeinactif">
	<g>
		<linearGradient id="SVGID_7_" gradientUnits="userSpaceOnUse" x1="894.4468" y1="511.6433" x2="894.4468" y2="491.8395">
			<stop  offset="0" style="stop-color:#17191E"/>
			<stop  offset="1" style="stop-color:#3C424F"/>
		</linearGradient>
		<path fill="url(#SVGID_7_)" stroke="#17191E" stroke-width="1.1232" stroke-miterlimit="10" d="M902.3,511.6h-15.7
			c-2.3,0-4.2-1.9-4.2-4.2V496c0-2.3,1.9-4.2,4.2-4.2h15.7c2.3,0,4.2,1.9,4.2,4.2v11.5C906.4,509.8,904.6,511.6,902.3,511.6z"/>
		<path fill="#F6F6F6" d="M899.7,502.6h-3.1l2.2,2.2c0.3,0.3,0.3,0.9,0,1.3c-0.3,0.3-0.9,0.3-1.3,0l-2.2-2.2v3.1
			c0,0.5-0.4,0.9-0.9,0.9c-0.5,0-0.9-0.4-0.9-0.9v-3.1l-2.2,2.2c-0.3,0.3-0.9,0.3-1.3,0c-0.3-0.3-0.3-0.9,0-1.3l2.2-2.2h-3.1
			c-0.5,0-0.9-0.4-0.9-0.9s0.4-0.9,0.9-0.9h3.1l-2.2-2.2c-0.3-0.3-0.3-0.9,0-1.3c0.3-0.3,0.9-0.3,1.3,0l2.2,2.2v-3.1
			c0-0.5,0.4-0.9,0.9-0.9c0.5,0,0.9,0.4,0.9,0.9v3.1l2.2-2.2c0.3-0.3,0.9-0.3,1.3,0c0.3,0.3,0.3,0.9,0,1.3l-2.2,2.2h3.1
			c0.5,0,0.9,0.4,0.9,0.9S900.2,502.6,899.7,502.6z"/>
	</g>
</g>
<g id="freezeinactif-pressed_1_">
	<g>
		<linearGradient id="SVGID_8_" gradientUnits="userSpaceOnUse" x1="894.4468" y1="534.6234" x2="894.4468" y2="514.8196">
			<stop  offset="0" style="stop-color:#17191E"/>
			<stop  offset="1" style="stop-color:#3C424F"/>
		</linearGradient>
		<path fill="url(#SVGID_8_)" stroke="#17191E" stroke-width="1.1232" stroke-miterlimit="10" d="M902.3,534.6h-15.7
			c-2.3,0-4.2-1.9-4.2-4.2V519c0-2.3,1.9-4.2,4.2-4.2h15.7c2.3,0,4.2,1.9,4.2,4.2v11.5C906.4,532.8,904.6,534.6,902.3,534.6z"/>
		<path fill="#575756" d="M899.7,525.6h-3.1l2.2,2.2c0.3,0.3,0.3,0.9,0,1.3c-0.3,0.3-0.9,0.3-1.3,0l-2.2-2.2v3.1
			c0,0.5-0.4,0.9-0.9,0.9c-0.5,0-0.9-0.4-0.9-0.9v-3.1l-2.2,2.2c-0.3,0.3-0.9,0.3-1.3,0c-0.3-0.3-0.3-0.9,0-1.3l2.2-2.2h-3.1
			c-0.5,0-0.9-0.4-0.9-0.9s0.4-0.9,0.9-0.9h3.1l-2.2-2.2c-0.3-0.3-0.3-0.9,0-1.3c0.3-0.3,0.9-0.3,1.3,0l2.2,2.2v-3.1
			c0-0.5,0.4-0.9,0.9-0.9c0.5,0,0.9,0.4,0.9,0.9v3.1l2.2-2.2c0.3-0.3,0.9-0.3,1.3,0c0.3,0.3,0.3,0.9,0,1.3l-2.2,2.2h3.1
			c0.5,0,0.9,0.4,0.9,0.9S900.2,525.6,899.7,525.6z"/>
	</g>
</g>
<g id="muteactif">
	<g>
		<linearGradient id="SVGID_9_" gradientUnits="userSpaceOnUse" x1="959.9786" y1="462.1778" x2="959.9786" y2="442.3778">
			<stop  offset="0" style="stop-color:#FFFFFF"/>
			<stop  offset="0.3119" style="stop-color:#FDFDFE"/>
			<stop  offset="0.4787" style="stop-color:#F6F6F9"/>
			<stop  offset="0.6113" style="stop-color:#E9EAEF"/>
			<stop  offset="0.7259" style="stop-color:#D8DAE2"/>
			<stop  offset="0.8288" style="stop-color:#C1C6D1"/>
			<stop  offset="0.9219" style="stop-color:#A5AEBD"/>
			<stop  offset="1" style="stop-color:#8896AA"/>
		</linearGradient>
		<path fill="url(#SVGID_9_)" stroke="#17191E" stroke-width="1.123" stroke-miterlimit="10" d="M967.8,462.2h-15.7
			c-2.3,0-4.2-1.9-4.2-4.2v-11.5c0-2.3,1.9-4.2,4.2-4.2h15.7c2.3,0,4.2,1.9,4.2,4.2V458C972,460.3,970.1,462.2,967.8,462.2z"/>
		<path fill="#282D34" d="M967.5,448.7l-4,3.1c0,0,0,0.1,0,0.1c0,0.1,0,0.2,0,0.3c0,1.7,0,3.4,0,5c0,0.1,0,0.2,0,0.3
			c-0.1,0.3-0.5,0.4-0.8,0.2c-0.5-0.4-1-0.8-1.5-1.2c-0.6-0.5-1.2-1-1.9-1.5l-3.7,2.9c-0.1,0.1-0.3,0.2-0.5,0.2
			c-0.2,0-0.4-0.1-0.6-0.3c-0.3-0.3-0.2-0.8,0.1-1.1l2.8-2.2c-0.3,0-0.5,0-0.8-0.1c-0.4-0.1-0.7-0.4-0.7-0.8c0-0.9,0-1.8,0-2.8
			c0-0.6,0.3-1,1-1c0.6,0,1.2-0.1,1.8-0.2c0.1,0,0.3-0.1,0.4-0.2c1.2-1,2.4-1.9,3.6-2.9c0.2-0.1,0.4-0.2,0.6-0.1
			c0.2,0.1,0.3,0.3,0.3,0.5c0,0.9,0,1.9,0,2.8l3.1-2.4c0.3-0.3,0.8-0.2,1.1,0.1C967.9,448,967.9,448.4,967.5,448.7z"/>
	</g>
</g>
<g id="muteactif-pressed_1_">
	<g>
		<linearGradient id="SVGID_10_" gradientUnits="userSpaceOnUse" x1="959.9786" y1="485.1839" x2="959.9786" y2="465.3839">
			<stop  offset="0" style="stop-color:#FFFFFF"/>
			<stop  offset="0.3119" style="stop-color:#FDFDFE"/>
			<stop  offset="0.4787" style="stop-color:#F6F6F9"/>
			<stop  offset="0.6113" style="stop-color:#E9EAEF"/>
			<stop  offset="0.7259" style="stop-color:#D8DAE2"/>
			<stop  offset="0.8288" style="stop-color:#C1C6D1"/>
			<stop  offset="0.9219" style="stop-color:#A5AEBD"/>
			<stop  offset="1" style="stop-color:#8896AA"/>
		</linearGradient>
		<path fill="url(#SVGID_10_)" stroke="#17191E" stroke-width="1.123" stroke-miterlimit="10" d="M967.8,485.2h-15.7
			c-2.3,0-4.2-1.9-4.2-4.2v-11.5c0-2.3,1.9-4.2,4.2-4.2h15.7c2.3,0,4.2,1.9,4.2,4.2V481C972,483.3,970.1,485.2,967.8,485.2z"/>
		<path fill="#878787" d="M967.5,471.7l-4,3.1c0,0,0,0.1,0,0.1c0,0.1,0,0.2,0,0.3c0,1.7,0,3.4,0,5c0,0.1,0,0.2,0,0.3
			c-0.1,0.3-0.5,0.4-0.8,0.2c-0.5-0.4-1-0.8-1.5-1.2c-0.6-0.5-1.2-1-1.9-1.5l-3.7,2.9c-0.1,0.1-0.3,0.2-0.5,0.2
			c-0.2,0-0.4-0.1-0.6-0.3c-0.3-0.3-0.2-0.8,0.1-1.1l2.8-2.2c-0.3,0-0.5,0-0.8-0.1c-0.4-0.1-0.7-0.4-0.7-0.8c0-0.9,0-1.8,0-2.8
			c0-0.6,0.3-1,1-1c0.6,0,1.2-0.1,1.8-0.2c0.1,0,0.3-0.1,0.4-0.2c1.2-1,2.4-1.9,3.6-2.9c0.2-0.1,0.4-0.2,0.6-0.1
			c0.2,0.1,0.3,0.3,0.3,0.5c0,0.9,0,1.9,0,2.8l3.1-2.4c0.3-0.3,0.8-0.2,1.1,0.1C967.9,471,967.9,471.5,967.5,471.7z"/>
	</g>
</g>
<g id="muteinactif">
	<g>
		<linearGradient id="SVGID_11_" gradientUnits="userSpaceOnUse" x1="960.0224" y1="511.6421" x2="960.0224" y2="491.8436">
			<stop  offset="0" style="stop-color:#17191E"/>
			<stop  offset="1" style="stop-color:#3C424F"/>
		</linearGradient>
		<path fill="url(#SVGID_11_)" stroke="#17191E" stroke-width="1.1229" stroke-miterlimit="10" d="M967.9,511.6h-15.7
			c-2.3,0-4.2-1.9-4.2-4.2V496c0-2.3,1.9-4.2,4.2-4.2h15.7c2.3,0,4.2,1.9,4.2,4.2v11.5C972,509.8,970.2,511.6,967.9,511.6z"/>
		<path fill="#F6F6F6" d="M967.6,498.2l-4,3.1c0,0,0,0.1,0,0.1c0,0.1,0,0.2,0,0.3c0,1.7,0,3.4,0,5c0,0.1,0,0.2,0,0.3
			c-0.1,0.3-0.5,0.4-0.8,0.2c-0.5-0.4-1-0.8-1.5-1.2c-0.6-0.5-1.2-1-1.9-1.5l-3.7,2.9c-0.1,0.1-0.3,0.2-0.5,0.2
			c-0.2,0-0.4-0.1-0.6-0.3c-0.3-0.3-0.2-0.8,0.1-1.1l2.8-2.2c-0.3,0-0.5,0-0.8-0.1c-0.4-0.1-0.7-0.4-0.7-0.8c0-0.9,0-1.8,0-2.8
			c0-0.6,0.3-1,1-1c0.6,0,1.2-0.1,1.8-0.2c0.1,0,0.3-0.1,0.4-0.2c1.2-1,2.4-1.9,3.6-2.9c0.2-0.1,0.4-0.2,0.6-0.1
			c0.2,0.1,0.3,0.3,0.3,0.5c0,0.9,0,1.9,0,2.8l3.1-2.4c0.3-0.3,0.8-0.2,1.1,0.1C968,497.4,967.9,497.9,967.6,498.2z"/>
	</g>
</g>
<g id="muteinactif-pressed">
	<g>
		<linearGradient id="SVGID_12_" gradientUnits="userSpaceOnUse" x1="960.0224" y1="534.6222" x2="960.0224" y2="514.8237">
			<stop  offset="0" style="stop-color:#17191E"/>
			<stop  offset="1" style="stop-color:#3C424F"/>
		</linearGradient>
		<path fill="url(#SVGID_12_)" stroke="#17191E" stroke-width="1.1229" stroke-miterlimit="10" d="M967.9,534.6h-15.7
			c-2.3,0-4.2-1.9-4.2-4.2V519c0-2.3,1.9-4.2,4.2-4.2h15.7c2.3,0,4.2,1.9,4.2,4.2v11.5C972,532.8,970.2,534.6,967.9,534.6z"/>
		<path fill="#575756" d="M967.6,521.1l-4,3.1c0,0,0,0.1,0,0.1c0,0.1,0,0.2,0,0.3c0,1.7,0,3.4,0,5c0,0.1,0,0.2,0,0.3
			c-0.1,0.3-0.5,0.4-0.8,0.2c-0.5-0.4-1-0.8-1.5-1.2c-0.6-0.5-1.2-1-1.9-1.5l-3.7,2.9c-0.1,0.1-0.3,0.2-0.5,0.2
			c-0.2,0-0.4-0.1-0.6-0.3c-0.3-0.3-0.2-0.8,0.1-1.1l2.8-2.2c-0.3,0-0.5,0-0.8-0.1c-0.4-0.1-0.7-0.4-0.7-0.8c0-0.9,0-1.8,0-2.8
			c0-0.6,0.3-1,1-1c0.6,0,1.2-0.1,1.8-0.2c0.1,0,0.3-0.1,0.4-0.2c1.2-1,2.4-1.9,3.6-2.9c0.2-0.1,0.4-0.2,0.6-0.1
			c0.2,0.1,0.3,0.3,0.3,0.5c0,0.9,0,1.9,0,2.8l3.1-2.4c0.3-0.3,0.8-0.2,1.1,0.1C968,520.4,967.9,520.9,967.6,521.1z"/>
	</g>
</g>
</svg>
