<?xml version='1.0' encoding='utf-8'?>
<!-- Generator: Adobe Illustrator 19.1.0, SVG Export Plug-In . SVG Version: 6.00 Build 0)  -->
<svg version="1.1" xmlns="http://www.w3.org/2000/svg" viewBox="0 0 1920 980" xml:space="preserve" x="0px" y="0px" enable-background="new 0 0 1920 980" xmlns:xlink="http://www.w3.org/1999/xlink">
 <g id="Calque_1">
  <g id="creernouvelagent-pressed">
   <path d="M416.5,476.2c0,1.3,0,2.6,0,3.8c0,0.7,0,1.5,0,2.2c0,0.4,0.2,0.8,0.6,0.8c0.4,0,0.6-0.3,0.6-0.7&#xd;    c0-0.1,0-0.1,0-0.2c0-2.1,0-4.1,0-6.2c0-0.3-0.2-0.7-0.4-0.9c-1-1.1-2.1-2.1-3.1-3.1c-0.3-0.3-0.6-0.4-1.1-0.4c-2.7,0-5.4,0-8.1,0&#xd;    c-0.9,0-1,0.2-1,1c0,4.9,0,9.7,0,14.6c0,0.9,0.2,1,1.1,1c2.2,0,4.4,0,6.5,0c0.2,0,0.4,0,0.6-0.1c0.2-0.1,0.5-0.4,0.5-0.5&#xd;    c0-0.2-0.2-0.4-0.4-0.6c-0.1-0.1-0.3,0-0.5,0c-2,0-3.9,0-5.9,0c-0.2,0-0.4,0-0.6,0c0-4.8,0-9.5,0-14.2c2.6,0,5.1,0,7.7,0&#xd;    c0,0.9,0,1.7,0,2.6c0,0.8,0.2,0.9,0.9,0.9C414.7,476.2,415.5,476.2,416.5,476.2z M414.1,485.7c0,0.6,0,1.1,0,1.6&#xd;    c0,0.6,0.2,0.8,0.6,0.8c0.5,0,0.6-0.4,0.6-0.8c0-0.5,0-1,0-1.6c0.6,0,1.1,0,1.6,0c0.4,0,0.7-0.1,0.7-0.6c0-0.5-0.3-0.6-0.7-0.6&#xd;    c-0.5,0-1,0-1.6,0c0-0.6,0-1.1,0-1.6c0-0.4-0.1-0.8-0.6-0.8c-0.5,0-0.6,0.3-0.6,0.8c0,0.5,0,1,0,1.6c-0.6,0-1.1,0-1.7,0&#xd;    c-0.4,0-0.7,0.2-0.7,0.6c0,0.4,0.3,0.6,0.7,0.6C413,485.7,413.5,485.7,414.1,485.7z" fill="#C7C6C6"/>
   <path d="M416.5,476.2c-0.9,0-1.8,0-2.6,0c-0.8,0-0.9-0.2-0.9-0.9c0-0.8,0-1.7,0-2.6c-2.6,0-5.1,0-7.7,0&#xd;    c0,4.7,0,9.4,0,14.2c0.2,0,0.4,0,0.6,0c2,0,3.9,0,5.9,0c0.2,0,0.4,0,0.5,0c0.2,0.2,0.4,0.4,0.4,0.6c0,0.2-0.3,0.4-0.5,0.5&#xd;    c-0.1,0.1-0.4,0.1-0.6,0.1c-2.2,0-4.4,0-6.5,0c-0.9,0-1.1-0.2-1.1-1c0-4.9,0-9.7,0-14.6c0-0.9,0.2-1,1-1c2.7,0,5.4,0,8.1,0&#xd;    c0.4,0,0.8,0.1,1.1,0.4c1,1.1,2.1,2.1,3.1,3.1c0.2,0.2,0.4,0.6,0.4,0.9c0,2.1,0,4.1,0,6.2c0,0.1,0,0.1,0,0.2&#xd;    c0,0.4-0.2,0.7-0.6,0.7c-0.5,0-0.6-0.3-0.6-0.8c0-0.7,0-1.5,0-2.2C416.5,478.8,416.5,477.5,416.5,476.2z M415.4,474.9&#xd;    c-0.4-0.4-0.8-0.9-1.2-1.4c0,0.5,0,0.9,0,1.4C414.6,474.9,415,474.9,415.4,474.9z" fill="#C7C6C6"/>
   <path d="M414.1,485.7c-0.6,0-1.1,0-1.6,0c-0.4,0-0.7-0.2-0.7-0.6c0-0.4,0.3-0.6,0.7-0.6c0.5,0,1.1,0,1.7,0&#xd;    c0-0.6,0-1.1,0-1.6c0-0.4,0.1-0.8,0.6-0.8c0.5,0,0.6,0.3,0.6,0.8c0,0.5,0,1,0,1.6c0.6,0,1.1,0,1.6,0c0.4,0,0.8,0.1,0.7,0.6&#xd;    c0,0.5-0.3,0.6-0.7,0.6c-0.5,0-1,0-1.6,0c0,0.6,0,1.1,0,1.6c0,0.4-0.1,0.8-0.6,0.8c-0.4,0-0.6-0.2-0.6-0.8&#xd;    C414.1,486.7,414.1,486.3,414.1,485.7z" fill="#C7C6C6"/>
  </g>
  <g id="importer-pressed">
   <path d="M442.4,489.8c-1.9,0-3.7,0-5.6,0c-1.6,0-2.8-1.1-2.8-2.7c0-1.2,0-2.5,0-3.7c0-0.5,0.3-0.9,0.7-0.9&#xd;    c0.5,0,0.8,0.3,0.8,0.9c0,1.2,0,2.3,0,3.5c0,1,0.4,1.4,1.4,1.4c3.7,0,7.4,0,11.1,0c1,0,1.4-0.4,1.4-1.4c0-1.1,0-2.3,0-3.4&#xd;    c0-0.6,0.3-0.9,0.7-0.9c0.5,0,0.8,0.3,0.8,0.9c0,1.2,0,2.5,0,3.7c0,1.5-1.2,2.6-2.7,2.7C446.2,489.8,444.3,489.8,442.4,489.8z" fill="#C7C6C6"/>
   <path d="M443.2,482.1c0.7-0.7,1.5-1.4,2.3-2.1c0.1-0.1,0.2-0.2,0.4-0.3c0.3-0.2,0.6-0.2,0.9,0.1&#xd;    c0.3,0.3,0.3,0.6,0.1,0.9c-0.1,0.1-0.2,0.2-0.3,0.3c-1.2,1.2-2.3,2.3-3.5,3.5c-0.5,0.5-0.9,0.5-1.4,0c-1.2-1.2-2.4-2.4-3.5-3.5&#xd;    c-0.4-0.4-0.4-0.8-0.1-1.1c0.3-0.3,0.7-0.3,1.2,0.1c0.8,0.8,1.6,1.6,2.5,2.3c0-0.2,0-0.3,0-0.5c0-2.4,0-4.9,0-7.3&#xd;    c0-0.2,0-0.3,0-0.5c0.1-0.4,0.3-0.6,0.7-0.7c0.4,0,0.7,0.2,0.8,0.7c0,0.2,0,0.3,0,0.5c0,2.4,0,4.8,0,7.2&#xd;    C443.2,481.9,443.2,482.1,443.2,482.1z" fill="#C7C6C6"/>
  </g>
  <g id="exporter-pressed">
   <path d="M469.1,490.1c-1.8,0-3.6,0-5.5,0c-1.6,0-2.7-1.1-2.8-2.7c0-1.2,0-2.4,0-3.6c0-0.5,0.3-0.9,0.8-0.9&#xd;    c0.4,0,0.7,0.3,0.7,0.9c0,1.1,0,2.3,0,3.4c0,1,0.4,1.4,1.4,1.4c3.6,0,7.3,0,10.9,0c1,0,1.4-0.4,1.4-1.4c0-1.1,0-2.2,0-3.4&#xd;    c0-0.6,0.3-0.9,0.7-0.9c0.5,0,0.7,0.3,0.7,0.9c0,1.2,0,2.4,0,3.6c0,1.5-1.2,2.6-2.7,2.6C472.8,490.1,471,490.1,469.1,490.1z" fill="#C7C6C6"/>
   <path d="M469.9,476.7c0,0.2,0,0.3,0,0.5c0,2.4,0,4.7,0,7.1c0,0.8-0.2,1.1-0.7,1.1c-0.5,0-0.7-0.4-0.7-1.1&#xd;    c0-2.4,0-4.7,0-7.1c0-0.2,0-0.3,0-0.6c-0.2,0.1-0.3,0.2-0.4,0.3c-0.7,0.7-1.4,1.4-2.1,2.1c-0.3,0.2-0.6,0.4-0.9,0.2&#xd;    c-0.3-0.2-0.4-0.4-0.4-0.8c0-0.2,0.1-0.3,0.2-0.4c1.2-1.2,2.4-2.4,3.6-3.6c0.4-0.4,0.8-0.4,1.2,0c1.2,1.2,2.4,2.4,3.6,3.6&#xd;    c0.4,0.4,0.4,0.8,0.1,1.1c-0.3,0.3-0.7,0.3-1.1-0.1c-0.8-0.8-1.5-1.5-2.3-2.3C470,476.7,469.9,476.7,469.9,476.7z" fill="#C7C6C6"/>
  </g>
  <g id="supprimerplusieurs-pressed">
   <g>
    <path d="M505.7,478c0,1.3,0,2.6,0,3.8c0,0.7,0,1.5,0,2.2c0,0.4,0.2,0.8,0.6,0.8c0.4,0,0.6-0.3,0.6-0.7&#xd;     c0-0.1,0-0.1,0-0.2c0-2.1,0-4.1,0-6.2c0-0.3-0.2-0.7-0.4-0.9c-1-1.1-2.1-2.1-3.1-3.1c-0.3-0.3-0.6-0.4-1.1-0.4&#xd;     c-2.7,0-5.4,0-8.1,0c-0.9,0-1,0.2-1,1c0,4.9,0,9.7,0,14.6c0,0.9,0.2,1,1.1,1c2.2,0,4.4,0,6.5,0c0.2,0,0.4,0,0.6-0.1&#xd;     c0.2-0.1,0.5-0.4,0.5-0.5c0-0.2-0.2-0.4-0.4-0.6c-0.1-0.1-0.3,0-0.5,0c-2,0-3.9,0-5.9,0c-0.2,0-0.4,0-0.6,0c0-4.8,0-9.5,0-14.2&#xd;     c2.6,0,5.1,0,7.7,0c0,0.9,0,1.7,0,2.6c0,0.8,0.2,0.9,0.9,0.9C503.9,478,504.8,478,505.7,478z" fill="#C7C6C6"/>
    <path d="M505.7,478c-0.9,0-1.8,0-2.6,0c-0.8,0-0.9-0.2-0.9-0.9c0-0.8,0-1.7,0-2.6c-2.6,0-5.1,0-7.7,0&#xd;     c0,4.7,0,9.4,0,14.2c0.2,0,0.4,0,0.6,0c2,0,3.9,0,5.9,0c0.2,0,0.4,0,0.5,0c0.2,0.2,0.4,0.4,0.4,0.6c0,0.2-0.3,0.4-0.5,0.5&#xd;     c-0.1,0.1-0.4,0.1-0.6,0.1c-2.2,0-4.4,0-6.5,0c-0.9,0-1.1-0.2-1.1-1c0-4.9,0-9.7,0-14.6c0-0.9,0.2-1,1-1c2.7,0,5.4,0,8.1,0&#xd;     c0.4,0,0.8,0.1,1.1,0.4c1,1.1,2.1,2.1,3.1,3.1c0.2,0.2,0.4,0.6,0.4,0.9c0,2.1,0,4.1,0,6.2c0,0.1,0,0.1,0,0.2&#xd;     c0,0.4-0.2,0.7-0.6,0.7c-0.5,0-0.6-0.3-0.6-0.8c0-0.7,0-1.5,0-2.2C505.7,480.6,505.7,479.3,505.7,478z M504.6,476.8&#xd;     c-0.4-0.4-0.8-0.9-1.2-1.4c0,0.5,0,0.9,0,1.4C503.8,476.8,504.3,476.8,504.6,476.8z" fill="#C7C6C6"/>
    <path d="M503.7,488c-0.4-0.4-0.8-0.8-1.2-1.2c-0.3-0.3-0.4-0.6-0.1-0.9c0.3-0.3,0.6-0.2,0.9,0.1&#xd;     c0.4,0.4,0.7,0.7,1.2,1.2c0.4-0.4,0.8-0.8,1.1-1.1c0.3-0.3,0.6-0.4,1-0.1c0.3,0.3,0.2,0.7-0.1,1c-0.4,0.3-0.7,0.7-1.1,1.1&#xd;     c0.4,0.4,0.8,0.8,1.1,1.1c0.3,0.3,0.4,0.6,0.1,1c-0.3,0.3-0.6,0.2-0.9-0.1c-0.4-0.4-0.7-0.7-1.1-1.1c-0.4,0.4-0.8,0.7-1.1,1.1&#xd;     c-0.3,0.3-0.6,0.5-1,0.1c-0.3-0.3-0.3-0.6,0.1-1C502.9,488.7,503.3,488.4,503.7,488z" fill="#C7C6C6"/>
   </g>
  </g>
 </g>
 <g id="loupe">
  <g>
   <g>
    <path d="M623.7,530.4c0.9-0.9,1.8-1.7,2.7-2.6c-1-1.3-1.4-2.8-1-4.5c0.3-1.2,1-2.2,2-3c2.1-1.5,5-1.2,6.8,0.7&#xd;     c1.8,1.9,1.8,4.8,0.2,6.8c-1.6,1.9-4.6,2.7-7.2,0.8c-0.9,0.9-1.8,1.8-2.6,2.6C624.2,531,624,530.7,623.7,530.4z M626.3,524.5&#xd;     c0,2.2,1.8,4,4,4c2.2,0,4-1.8,4-4c0-2.2-1.8-4-4-4C628.1,520.5,626.3,522.3,626.3,524.5z" fill="#535A66"/>
   </g>
  </g>
 </g>
 <g id="dupliquer">
  <g>
   <path stroke-miterlimit="10" stroke="#F39200" d="M666.8,521.8c0-0.1,0-0.2,0-0.2&#xd;    c0-0.6,0-1.2,0-1.9c0-0.2,0-0.2,0.2-0.2c2.4,0,4.8,0,7.2,0c0.2,0,0.2,0.1,0.2,0.2c0,2.8,0,5.6,0,8.5c0,0.2-0.1,0.2-0.3,0.2&#xd;    c-1.1,0-2.1,0-3.2,0c-0.1,0-0.1,0-0.2,0c0,0.1,0,0.2,0,0.2c0,0.6,0,1.2,0,1.9c0,0.2-0.1,0.3-0.2,0.3c-2.4,0-4.7,0-7.1,0&#xd;    c-0.2,0-0.3-0.1-0.3-0.3c0-2.8,0-5.6,0-8.4c0-0.2,0.1-0.3,0.3-0.3c1,0,2.1,0,3.1,0C666.6,521.8,666.7,521.8,666.8,521.8z&#xd;     M670.4,530.4c0-2.8,0-5.6,0-8.4c-2.4,0-4.7,0-7,0c0,2.8,0,5.6,0,8.4C665.7,530.4,668.1,530.4,670.4,530.4z M667.1,519.7&#xd;    c0,0.7,0,1.4,0,2.1c0.1,0,0.2,0,0.2,0c1,0,2.1,0,3.1,0c0.3,0,0.3,0,0.3,0.3c0,1.9,0,3.8,0,5.7c0,0.1,0,0.2,0,0.2&#xd;    c1.1,0,2.3,0,3.4,0c0-2.8,0-5.6,0-8.4C671.7,519.7,669.4,519.7,667.1,519.7z" fill="none" stroke-width="0.8119"/>
  </g>
 </g>
 <g id="dupliquer-pressed">
  <g>
   <path stroke-miterlimit="10" stroke="#804A1E" d="M666.8,542.1c0-0.1,0-0.2,0-0.2&#xd;    c0-0.6,0-1.2,0-1.9c0-0.2,0-0.2,0.2-0.2c2.4,0,4.8,0,7.2,0c0.2,0,0.2,0.1,0.2,0.2c0,2.8,0,5.6,0,8.5c0,0.2-0.1,0.2-0.3,0.2&#xd;    c-1.1,0-2.1,0-3.2,0c-0.1,0-0.1,0-0.2,0c0,0.1,0,0.2,0,0.2c0,0.6,0,1.2,0,1.9c0,0.2-0.1,0.3-0.2,0.3c-2.4,0-4.7,0-7.1,0&#xd;    c-0.2,0-0.3-0.1-0.3-0.3c0-2.8,0-5.6,0-8.4c0-0.2,0.1-0.3,0.3-0.3c1,0,2.1,0,3.1,0C666.6,542.1,666.7,542.1,666.8,542.1z&#xd;     M670.4,550.7c0-2.8,0-5.6,0-8.4c-2.4,0-4.7,0-7,0c0,2.8,0,5.6,0,8.4C665.7,550.7,668.1,550.7,670.4,550.7z M667.1,540&#xd;    c0,0.7,0,1.4,0,2.1c0.1,0,0.2,0,0.2,0c1,0,2.1,0,3.1,0c0.3,0,0.3,0,0.3,0.3c0,1.9,0,3.8,0,5.7c0,0.1,0,0.2,0,0.2&#xd;    c1.1,0,2.3,0,3.4,0c0-2.8,0-5.6,0-8.4C671.7,540,669.4,540,667.1,540z" fill="none" stroke-width="0.8119"/>
  </g>
 </g>
 <g id="supprimer">
  <g>
   <g>
    <line stroke-miterlimit="10" stroke="#F39200" y1="520.2" fill="none" y2="530.3" stroke-width="1.1589" x1="703.3" x2="693.3"/>
    <line stroke-miterlimit="10" stroke="#F39200" y1="530.3" fill="none" y2="520.3" stroke-width="1.1589" x1="703.2" x2="693.3"/>
   </g>
  </g>
 </g>
 <g id="supprimer-pressed">
  <g>
   <g>
    <g>
     <line stroke-miterlimit="10" stroke="#804A1E" y1="540.5" fill="none" y2="550.6" stroke-width="1.1589" x1="703.3" x2="693.3"/>
     <line stroke-miterlimit="10" stroke="#804A1E" y1="550.7" fill="none" y2="540.6" stroke-width="1.1589" x1="703.2" x2="693.3"/>
    </g>
   </g>
  </g>
 </g>
 <g id="triangletrierpar">
  <polygon points="722,522.1 725.7,528.5 729.3,522.1  " fill="#535A66"/>
 </g>
 <g id="creernouvelagent">
  <g>
   <path d="M420.5,446.7c0,1.3,0,2.6,0,3.8c0,0.7,0,1.5,0,2.2c0,0.4,0.2,0.8,0.6,0.8c0.4,0,0.6-0.3,0.6-0.7&#xd;    c0-0.1,0-0.1,0-0.2c0-2.1,0-4.1,0-6.2c0-0.3-0.2-0.7-0.4-0.9c-1-1.1-2.1-2.1-3.1-3.1c-0.3-0.3-0.6-0.4-1.1-0.4c-2.7,0-5.4,0-8.1,0&#xd;    c-0.9,0-1,0.2-1,1c0,4.9,0,9.7,0,14.6c0,0.9,0.2,1,1.1,1c2.2,0,4.4,0,6.5,0c0.2,0,0.4,0,0.6-0.1c0.2-0.1,0.5-0.4,0.5-0.5&#xd;    c0-0.2-0.2-0.4-0.4-0.6c-0.1-0.1-0.3,0-0.5,0c-2,0-3.9,0-5.9,0c-0.2,0-0.4,0-0.6,0c0-4.8,0-9.5,0-14.2c2.6,0,5.1,0,7.7,0&#xd;    c0,0.9,0,1.7,0,2.6c0,0.8,0.2,0.9,0.9,0.9C418.7,446.7,419.6,446.7,420.5,446.7z M418.1,456.2c0,0.6,0,1.1,0,1.6&#xd;    c0,0.6,0.2,0.8,0.6,0.8c0.5,0,0.6-0.4,0.6-0.8c0-0.5,0-1,0-1.6c0.6,0,1.1,0,1.6,0c0.4,0,0.7-0.1,0.7-0.6c0-0.5-0.3-0.6-0.7-0.6&#xd;    c-0.5,0-1,0-1.6,0c0-0.6,0-1.1,0-1.6c0-0.4-0.1-0.8-0.6-0.8c-0.5,0-0.6,0.3-0.6,0.8c0,0.5,0,1,0,1.6c-0.6,0-1.1,0-1.7,0&#xd;    c-0.4,0-0.7,0.2-0.7,0.6c0,0.4,0.3,0.6,0.7,0.6C417,456.2,417.5,456.2,418.1,456.2z" fill="#FFFFFF"/>
   <path d="M420.5,446.7c-0.9,0-1.8,0-2.6,0c-0.8,0-0.9-0.2-0.9-0.9c0-0.8,0-1.7,0-2.6c-2.6,0-5.1,0-7.7,0&#xd;    c0,4.7,0,9.4,0,14.2c0.2,0,0.4,0,0.6,0c2,0,3.9,0,5.9,0c0.2,0,0.4,0,0.5,0c0.2,0.2,0.4,0.4,0.4,0.6c0,0.2-0.3,0.4-0.5,0.5&#xd;    c-0.1,0.1-0.4,0.1-0.6,0.1c-2.2,0-4.4,0-6.5,0c-0.9,0-1.1-0.2-1.1-1c0-4.9,0-9.7,0-14.6c0-0.9,0.2-1,1-1c2.7,0,5.4,0,8.1,0&#xd;    c0.4,0,0.8,0.1,1.1,0.4c1,1.1,2.1,2.1,3.1,3.1c0.2,0.2,0.4,0.6,0.4,0.9c0,2.1,0,4.1,0,6.2c0,0.1,0,0.1,0,0.2&#xd;    c0,0.4-0.2,0.7-0.6,0.7c-0.5,0-0.6-0.3-0.6-0.8c0-0.7,0-1.5,0-2.2C420.5,449.3,420.5,448,420.5,446.7z M419.4,445.5&#xd;    c-0.4-0.4-0.8-0.9-1.2-1.4c0,0.5,0,0.9,0,1.4C418.7,445.5,419.1,445.5,419.4,445.5z" fill="#FFFFFF"/>
   <path d="M418.1,456.2c-0.6,0-1.1,0-1.6,0c-0.4,0-0.7-0.2-0.7-0.6c0-0.4,0.3-0.6,0.7-0.6c0.5,0,1.1,0,1.7,0&#xd;    c0-0.6,0-1.1,0-1.6c0-0.4,0.1-0.8,0.6-0.8c0.5,0,0.6,0.3,0.6,0.8c0,0.5,0,1,0,1.6c0.6,0,1.1,0,1.6,0c0.4,0,0.8,0.1,0.7,0.6&#xd;    c0,0.5-0.3,0.6-0.7,0.6c-0.5,0-1,0-1.6,0c0,0.6,0,1.1,0,1.6c0,0.4-0.1,0.8-0.6,0.8c-0.4,0-0.6-0.2-0.6-0.8&#xd;    C418.1,457.3,418.1,456.8,418.1,456.2z" fill="#FFFFFF"/>
  </g>
 </g>
 <g id="importer">
  <g>
   <g>
    <path d="M447.4,459.2c-1.9,0-3.7,0-5.6,0c-1.6,0-2.8-1.1-2.8-2.7c0-1.2,0-2.5,0-3.7c0-0.5,0.3-0.9,0.7-0.9&#xd;     c0.5,0,0.8,0.3,0.8,0.9c0,1.2,0,2.3,0,3.5c0,1,0.4,1.4,1.4,1.4c3.7,0,7.4,0,11.1,0c1,0,1.4-0.4,1.4-1.4c0-1.1,0-2.3,0-3.4&#xd;     c0-0.6,0.3-0.9,0.7-0.9c0.5,0,0.8,0.3,0.8,0.9c0,1.2,0,2.5,0,3.7c0,1.5-1.2,2.6-2.7,2.7C451.2,459.2,449.3,459.2,447.4,459.2z" fill="#FFFFFF"/>
    <path d="M448.2,451.5c0.7-0.7,1.5-1.4,2.3-2.1c0.1-0.1,0.2-0.2,0.4-0.3c0.3-0.2,0.6-0.2,0.9,0.1&#xd;     c0.3,0.3,0.3,0.6,0.1,0.9c-0.1,0.1-0.2,0.2-0.3,0.3c-1.2,1.2-2.3,2.3-3.5,3.5c-0.5,0.5-0.9,0.5-1.4,0c-1.2-1.2-2.4-2.4-3.5-3.5&#xd;     c-0.4-0.4-0.4-0.8-0.1-1.1c0.3-0.3,0.7-0.3,1.2,0.1c0.8,0.8,1.6,1.6,2.5,2.3c0-0.2,0-0.3,0-0.5c0-2.4,0-4.9,0-7.3&#xd;     c0-0.2,0-0.3,0-0.5c0.1-0.4,0.3-0.6,0.7-0.7c0.4,0,0.7,0.2,0.8,0.7c0,0.2,0,0.3,0,0.5c0,2.4,0,4.8,0,7.2&#xd;     C448.2,451.3,448.2,451.5,448.2,451.5z" fill="#FFFFFF"/>
   </g>
  </g>
 </g>
 <g id="Calque_25">
  <g id="creernouvelagent-disabled_1_">
   <path d="M417.1,510.2c0,1.3,0,2.6,0,3.8c0,0.7,0,1.5,0,2.2c0,0.4,0.2,0.8,0.6,0.8c0.4,0,0.6-0.3,0.6-0.7&#xd;    c0-0.1,0-0.1,0-0.2c0-2.1,0-4.1,0-6.2c0-0.3-0.2-0.7-0.4-0.9c-1-1.1-2.1-2.1-3.1-3.1c-0.3-0.3-0.6-0.4-1.1-0.4c-2.7,0-5.4,0-8.1,0&#xd;    c-0.9,0-1,0.2-1,1c0,4.9,0,9.7,0,14.6c0,0.9,0.2,1,1.1,1c2.2,0,4.4,0,6.5,0c0.2,0,0.4,0,0.6-0.1c0.2-0.1,0.5-0.4,0.5-0.5&#xd;    c0-0.2-0.2-0.4-0.4-0.6c-0.1-0.1-0.3,0-0.5,0c-2,0-3.9,0-5.9,0c-0.2,0-0.4,0-0.6,0c0-4.8,0-9.5,0-14.2c2.6,0,5.1,0,7.7,0&#xd;    c0,0.9,0,1.7,0,2.6c0,0.8,0.2,0.9,0.9,0.9C415.3,510.2,416.2,510.2,417.1,510.2z M414.7,519.7c0,0.6,0,1.1,0,1.6&#xd;    c0,0.6,0.2,0.8,0.6,0.8c0.5,0,0.6-0.4,0.6-0.8c0-0.5,0-1,0-1.6c0.6,0,1.1,0,1.6,0c0.4,0,0.7-0.1,0.7-0.6c0-0.5-0.3-0.6-0.7-0.6&#xd;    c-0.5,0-1,0-1.6,0c0-0.6,0-1.1,0-1.6c0-0.4-0.1-0.8-0.6-0.8c-0.5,0-0.6,0.3-0.6,0.8c0,0.5,0,1,0,1.6c-0.6,0-1.1,0-1.7,0&#xd;    c-0.4,0-0.7,0.2-0.7,0.6c0,0.4,0.3,0.6,0.7,0.6C413.6,519.7,414.1,519.7,414.7,519.7z" fill="#535A66"/>
   <path d="M417.1,510.2c-0.9,0-1.8,0-2.6,0c-0.8,0-0.9-0.2-0.9-0.9c0-0.8,0-1.7,0-2.6c-2.6,0-5.1,0-7.7,0&#xd;    c0,4.7,0,9.4,0,14.2c0.2,0,0.4,0,0.6,0c2,0,3.9,0,5.9,0c0.2,0,0.4,0,0.5,0c0.2,0.2,0.4,0.4,0.4,0.6c0,0.2-0.3,0.4-0.5,0.5&#xd;    c-0.1,0.1-0.4,0.1-0.6,0.1c-2.2,0-4.4,0-6.5,0c-0.9,0-1.1-0.2-1.1-1c0-4.9,0-9.7,0-14.6c0-0.9,0.2-1,1-1c2.7,0,5.4,0,8.1,0&#xd;    c0.4,0,0.8,0.1,1.1,0.4c1,1.1,2.1,2.1,3.1,3.1c0.2,0.2,0.4,0.6,0.4,0.9c0,2.1,0,4.1,0,6.2c0,0.1,0,0.1,0,0.2&#xd;    c0,0.4-0.2,0.7-0.6,0.7c-0.5,0-0.6-0.3-0.6-0.8c0-0.7,0-1.5,0-2.2C417.1,512.7,417.1,511.5,417.1,510.2z M416,508.9&#xd;    c-0.4-0.4-0.8-0.9-1.2-1.4c0,0.5,0,0.9,0,1.4C415.2,508.9,415.7,508.9,416,508.9z" fill="#535A66"/>
   <path d="M414.7,519.7c-0.6,0-1.1,0-1.6,0c-0.4,0-0.7-0.2-0.7-0.6c0-0.4,0.3-0.6,0.7-0.6c0.5,0,1.1,0,1.7,0&#xd;    c0-0.6,0-1.1,0-1.6c0-0.4,0.1-0.8,0.6-0.8c0.5,0,0.6,0.3,0.6,0.8c0,0.5,0,1,0,1.6c0.6,0,1.1,0,1.6,0c0.4,0,0.8,0.1,0.7,0.6&#xd;    c0,0.5-0.3,0.6-0.7,0.6c-0.5,0-1,0-1.6,0c0,0.6,0,1.1,0,1.6c0,0.4-0.1,0.8-0.6,0.8c-0.4,0-0.6-0.2-0.6-0.8&#xd;    C414.7,520.7,414.7,520.2,414.7,519.7z" fill="#535A66"/>
  </g>
  <g id="importer-disabled_1_">
   <g>
    <path d="M444,522.6c-1.9,0-3.7,0-5.6,0c-1.6,0-2.8-1.1-2.8-2.7c0-1.2,0-2.5,0-3.7c0-0.5,0.3-0.9,0.7-0.9&#xd;     c0.5,0,0.8,0.3,0.8,0.9c0,1.2,0,2.3,0,3.5c0,1,0.4,1.4,1.4,1.4c3.7,0,7.4,0,11.1,0c1,0,1.4-0.4,1.4-1.4c0-1.1,0-2.3,0-3.4&#xd;     c0-0.6,0.3-0.9,0.7-0.9c0.5,0,0.8,0.3,0.8,0.9c0,1.2,0,2.5,0,3.7c0,1.5-1.2,2.6-2.7,2.7C447.8,522.6,445.9,522.6,444,522.6z" fill="#535A66"/>
    <path d="M444.8,515c0.7-0.7,1.5-1.4,2.3-2.1c0.1-0.1,0.2-0.2,0.4-0.3c0.3-0.2,0.6-0.2,0.9,0.1&#xd;     c0.3,0.3,0.3,0.6,0.1,0.9c-0.1,0.1-0.2,0.2-0.3,0.3c-1.2,1.2-2.3,2.3-3.5,3.5c-0.5,0.5-0.9,0.5-1.4,0c-1.2-1.2-2.4-2.4-3.5-3.5&#xd;     c-0.4-0.4-0.4-0.8-0.1-1.1c0.3-0.3,0.7-0.3,1.2,0.1c0.8,0.8,1.6,1.6,2.5,2.3c0-0.2,0-0.3,0-0.5c0-2.4,0-4.9,0-7.3&#xd;     c0-0.2,0-0.3,0-0.5c0.1-0.4,0.3-0.6,0.7-0.7c0.4,0,0.7,0.2,0.8,0.7c0,0.2,0,0.3,0,0.5c0,2.4,0,4.8,0,7.2&#xd;     C444.8,514.8,444.8,515,444.8,515z" fill="#535A66"/>
   </g>
  </g>
  <g id="exporter-disabled">
   <path d="M470.8,523.4c-1.8,0-3.6,0-5.5,0c-1.6,0-2.7-1.1-2.8-2.7c0-1.2,0-2.4,0-3.6c0-0.5,0.3-0.9,0.8-0.9&#xd;    c0.4,0,0.7,0.3,0.7,0.9c0,1.1,0,2.3,0,3.4c0,1,0.4,1.4,1.4,1.4c3.6,0,7.3,0,10.9,0c1,0,1.4-0.4,1.4-1.4c0-1.1,0-2.2,0-3.4&#xd;    c0-0.6,0.3-0.9,0.7-0.9c0.5,0,0.7,0.3,0.7,0.9c0,1.2,0,2.4,0,3.6c0,1.5-1.2,2.6-2.7,2.6C474.5,523.4,472.6,523.4,470.8,523.4z" fill="#535A66"/>
   <path d="M471.6,509.9c0,0.2,0,0.3,0,0.5c0,2.4,0,4.7,0,7.1c0,0.8-0.2,1.1-0.7,1.1c-0.5,0-0.7-0.4-0.7-1.1&#xd;    c0-2.4,0-4.7,0-7.1c0-0.2,0-0.3,0-0.6c-0.2,0.1-0.3,0.2-0.4,0.3c-0.7,0.7-1.4,1.4-2.1,2.1c-0.3,0.2-0.6,0.4-0.9,0.2&#xd;    c-0.3-0.2-0.4-0.4-0.4-0.8c0-0.2,0.1-0.3,0.2-0.4c1.2-1.2,2.4-2.4,3.6-3.6c0.4-0.4,0.8-0.4,1.2,0c1.2,1.2,2.4,2.4,3.6,3.6&#xd;    c0.4,0.4,0.4,0.8,0.1,1.1c-0.3,0.3-0.7,0.3-1.1-0.1c-0.8-0.8-1.5-1.5-2.3-2.3C471.7,509.9,471.6,509.9,471.6,509.9z" fill="#535A66"/>
  </g>
  <g id="supprimerplusieurs-disabled">
   <g>
    <path d="M505.8,510c0,1.3,0,2.6,0,3.8c0,0.7,0,1.5,0,2.2c0,0.4,0.2,0.8,0.6,0.8c0.4,0,0.6-0.3,0.6-0.7&#xd;     c0-0.1,0-0.1,0-0.2c0-2.1,0-4.1,0-6.2c0-0.3-0.2-0.7-0.4-0.9c-1-1.1-2.1-2.1-3.1-3.1c-0.3-0.3-0.6-0.4-1.1-0.4&#xd;     c-2.7,0-5.4,0-8.1,0c-0.9,0-1,0.2-1,1c0,4.9,0,9.7,0,14.6c0,0.9,0.2,1,1.1,1c2.2,0,4.4,0,6.5,0c0.2,0,0.4,0,0.6-0.1&#xd;     c0.2-0.1,0.5-0.4,0.5-0.5c0-0.2-0.2-0.4-0.4-0.6c-0.1-0.1-0.3,0-0.5,0c-2,0-3.9,0-5.9,0c-0.2,0-0.4,0-0.6,0c0-4.8,0-9.5,0-14.2&#xd;     c2.6,0,5.1,0,7.7,0c0,0.9,0,1.7,0,2.6c0,0.8,0.2,0.9,0.9,0.9C504.1,510,504.9,510,505.8,510z" fill="#535A66"/>
    <path d="M505.8,510c-0.9,0-1.8,0-2.6,0c-0.8,0-0.9-0.2-0.9-0.9c0-0.8,0-1.7,0-2.6c-2.6,0-5.1,0-7.7,0&#xd;     c0,4.7,0,9.4,0,14.2c0.2,0,0.4,0,0.6,0c2,0,3.9,0,5.9,0c0.2,0,0.4,0,0.5,0c0.2,0.2,0.4,0.4,0.4,0.6c0,0.2-0.3,0.4-0.5,0.5&#xd;     c-0.1,0.1-0.4,0.1-0.6,0.1c-2.2,0-4.4,0-6.5,0c-0.9,0-1.1-0.2-1.1-1c0-4.9,0-9.7,0-14.6c0-0.9,0.2-1,1-1c2.7,0,5.4,0,8.1,0&#xd;     c0.4,0,0.8,0.1,1.1,0.4c1,1.1,2.1,2.1,3.1,3.1c0.2,0.2,0.4,0.6,0.4,0.9c0,2.1,0,4.1,0,6.2c0,0.1,0,0.1,0,0.2&#xd;     c0,0.4-0.2,0.7-0.6,0.7c-0.5,0-0.6-0.3-0.6-0.8c0-0.7,0-1.5,0-2.2C505.8,512.6,505.8,511.3,505.8,510z M504.8,508.8&#xd;     c-0.4-0.4-0.8-0.9-1.2-1.4c0,0.5,0,0.9,0,1.4C504,508.8,504.4,508.8,504.8,508.8z" fill="#535A66"/>
    <path d="M503.9,520c-0.4-0.4-0.8-0.8-1.2-1.2c-0.3-0.3-0.4-0.6-0.1-0.9c0.3-0.3,0.6-0.2,0.9,0.1&#xd;     c0.4,0.4,0.7,0.7,1.2,1.2c0.4-0.4,0.8-0.8,1.1-1.1c0.3-0.3,0.6-0.4,1-0.1c0.3,0.3,0.2,0.7-0.1,1c-0.4,0.3-0.7,0.7-1.1,1.1&#xd;     c0.4,0.4,0.8,0.8,1.1,1.1c0.3,0.3,0.4,0.6,0.1,1c-0.3,0.3-0.6,0.2-0.9-0.1c-0.4-0.4-0.7-0.7-1.1-1.1c-0.4,0.4-0.8,0.7-1.1,1.1&#xd;     c-0.3,0.3-0.6,0.5-1,0.1c-0.3-0.3-0.3-0.6,0.1-1C503.1,520.7,503.5,520.4,503.9,520z" fill="#535A66"/>
   </g>
  </g>
 </g>
 <g id="exporter">
  <g>
   <path d="M474.2,459.9c-1.8,0-3.6,0-5.5,0c-1.6,0-2.7-1.1-2.8-2.7c0-1.2,0-2.4,0-3.6c0-0.5,0.3-0.9,0.8-0.9&#xd;    c0.4,0,0.7,0.3,0.7,0.9c0,1.1,0,2.3,0,3.4c0,1,0.4,1.4,1.4,1.4c3.6,0,7.3,0,10.9,0c1,0,1.4-0.4,1.4-1.4c0-1.1,0-2.2,0-3.4&#xd;    c0-0.6,0.3-0.9,0.7-0.9c0.5,0,0.7,0.3,0.7,0.9c0,1.2,0,2.4,0,3.6c0,1.5-1.2,2.6-2.7,2.6C477.9,459.9,476,459.9,474.2,459.9z" fill="#FFFFFF"/>
   <path d="M475,446.5c0,0.2,0,0.3,0,0.5c0,2.4,0,4.7,0,7.1c0,0.8-0.2,1.1-0.7,1.1c-0.5,0-0.7-0.4-0.7-1.1&#xd;    c0-2.4,0-4.7,0-7.1c0-0.2,0-0.3,0-0.6c-0.2,0.1-0.3,0.2-0.4,0.3c-0.7,0.7-1.4,1.4-2.1,2.1c-0.3,0.2-0.6,0.4-0.9,0.2&#xd;    c-0.3-0.2-0.4-0.4-0.4-0.8c0-0.2,0.1-0.3,0.2-0.4c1.2-1.2,2.4-2.4,3.6-3.6c0.4-0.4,0.8-0.4,1.2,0c1.2,1.2,2.4,2.4,3.6,3.6&#xd;    c0.4,0.4,0.4,0.8,0.1,1.1c-0.3,0.3-0.7,0.3-1.1-0.1c-0.8-0.8-1.5-1.5-2.3-2.3C475.1,446.5,475,446.5,475,446.5z" fill="#FFFFFF"/>
  </g>
 </g>
 <g id="supprimerplusieurs">
  <g>
   <g>
    <path d="M509.3,446.5c0,1.3,0,2.6,0,3.8c0,0.7,0,1.5,0,2.2c0,0.4,0.2,0.8,0.6,0.8c0.4,0,0.6-0.3,0.6-0.7&#xd;     c0-0.1,0-0.1,0-0.2c0-2.1,0-4.1,0-6.2c0-0.3-0.2-0.7-0.4-0.9c-1-1.1-2.1-2.1-3.1-3.1c-0.3-0.3-0.6-0.4-1.1-0.4&#xd;     c-2.7,0-5.4,0-8.1,0c-0.9,0-1,0.2-1,1c0,4.9,0,9.7,0,14.6c0,0.9,0.2,1,1.1,1c2.2,0,4.4,0,6.5,0c0.2,0,0.4,0,0.6-0.1&#xd;     c0.2-0.1,0.5-0.4,0.5-0.5c0-0.2-0.2-0.4-0.4-0.6c-0.1-0.1-0.3,0-0.5,0c-2,0-3.9,0-5.9,0c-0.2,0-0.4,0-0.6,0c0-4.8,0-9.5,0-14.2&#xd;     c2.6,0,5.1,0,7.7,0c0,0.9,0,1.7,0,2.6c0,0.8,0.2,0.9,0.9,0.9C507.5,446.5,508.3,446.5,509.3,446.5z" fill="#FFFFFF"/>
    <path d="M509.3,446.5c-0.9,0-1.8,0-2.6,0c-0.8,0-0.9-0.2-0.9-0.9c0-0.8,0-1.7,0-2.6c-2.6,0-5.1,0-7.7,0&#xd;     c0,4.7,0,9.4,0,14.2c0.2,0,0.4,0,0.6,0c2,0,3.9,0,5.9,0c0.2,0,0.4,0,0.5,0c0.2,0.2,0.4,0.4,0.4,0.6c0,0.2-0.3,0.4-0.5,0.5&#xd;     c-0.1,0.1-0.4,0.1-0.6,0.1c-2.2,0-4.4,0-6.5,0c-0.9,0-1.1-0.2-1.1-1c0-4.9,0-9.7,0-14.6c0-0.9,0.2-1,1-1c2.7,0,5.4,0,8.1,0&#xd;     c0.4,0,0.8,0.1,1.1,0.4c1,1.1,2.1,2.1,3.1,3.1c0.2,0.2,0.4,0.6,0.4,0.9c0,2.1,0,4.1,0,6.2c0,0.1,0,0.1,0,0.2&#xd;     c0,0.4-0.2,0.7-0.6,0.7c-0.5,0-0.6-0.3-0.6-0.8c0-0.7,0-1.5,0-2.2C509.3,449.1,509.3,447.8,509.3,446.5z M508.2,445.3&#xd;     c-0.4-0.4-0.8-0.9-1.2-1.4c0,0.5,0,0.9,0,1.4C507.4,445.3,507.8,445.3,508.2,445.3z" fill="#FFFFFF"/>
    <path d="M507.3,456.5c-0.4-0.4-0.8-0.8-1.2-1.2c-0.3-0.3-0.4-0.6-0.1-0.9c0.3-0.3,0.6-0.2,0.9,0.1&#xd;     c0.4,0.4,0.7,0.7,1.2,1.2c0.4-0.4,0.8-0.8,1.1-1.1c0.3-0.3,0.6-0.4,1-0.1c0.3,0.3,0.2,0.7-0.1,1c-0.4,0.3-0.7,0.7-1.1,1.1&#xd;     c0.4,0.4,0.8,0.8,1.1,1.1c0.3,0.3,0.4,0.6,0.1,1c-0.3,0.3-0.6,0.2-0.9-0.1c-0.4-0.4-0.7-0.7-1.1-1.1c-0.4,0.4-0.8,0.7-1.1,1.1&#xd;     c-0.3,0.3-0.6,0.5-1,0.1c-0.3-0.3-0.3-0.6,0.1-1C506.5,457.2,506.9,456.9,507.3,456.5z" fill="#FFFFFF"/>
   </g>
  </g>
 </g>
 <g id="on">
  <g>
   <linearGradient gradientUnits="userSpaceOnUse" id="SVGID_1_" y1="462.1777" y2="442.3776" x1="818.5409" x2="818.5409">
    <stop style="stop-color:#FFFFFF" offset="0"/>
    <stop style="stop-color:#FDFDFE" offset="0.3119"/>
    <stop style="stop-color:#F6F6F9" offset="0.4787"/>
    <stop style="stop-color:#E9EAEF" offset="0.6113"/>
    <stop style="stop-color:#D8DAE2" offset="0.7259"/>
    <stop style="stop-color:#C1C6D1" offset="0.8288"/>
    <stop style="stop-color:#A5AEBD" offset="0.9219"/>
    <stop style="stop-color:#8896AA" offset="1"/>
   </linearGradient>
   <path stroke-miterlimit="10" stroke="#17191E" d="M826.4,462.2h-15.7&#xd;    c-2.3,0-4.2-1.9-4.2-4.2v-11.5c0-2.3,1.9-4.2,4.2-4.2h15.7c2.3,0,4.2,1.9,4.2,4.2V458C830.5,460.3,828.7,462.2,826.4,462.2z" fill="url(#SVGID_1_)" stroke-width="1.123"/>
   <path d="M817.6,446.4c0-0.5,0.4-1,1-1s1,0.4,1,1v4.2c0,0.5-0.4,1-1,1s-1-0.4-1-1V446.4z M818.5,459.1&#xd;    c-3.4,0-6.2-2.8-6.2-6.2c0-1.5,0.6-3,1.6-4.1c0.4-0.4,1-0.4,1.4-0.1c0.4,0.4,0.4,1,0.1,1.4c-0.7,0.8-1.1,1.8-1.1,2.8&#xd;    c0,2.3,1.9,4.3,4.3,4.3s4.3-1.9,4.3-4.3c0-1-0.4-2.1-1.1-2.8c-0.4-0.4-0.3-1,0.1-1.4c0.4-0.4,1-0.3,1.4,0.1c1,1.1,1.6,2.6,1.6,4.1&#xd;    C824.8,456.3,822,459.1,818.5,459.1z" fill="#282D34"/>
  </g>
 </g>
 <g id="on-pressed_1_">
  <g>
   <linearGradient gradientUnits="userSpaceOnUse" id="SVGID_2_" y1="485.1837" y2="465.3837" x1="818.5409" x2="818.5409">
    <stop style="stop-color:#FFFFFF" offset="0"/>
    <stop style="stop-color:#FDFDFE" offset="0.3119"/>
    <stop style="stop-color:#F6F6F9" offset="0.4787"/>
    <stop style="stop-color:#E9EAEF" offset="0.6113"/>
    <stop style="stop-color:#D8DAE2" offset="0.7259"/>
    <stop style="stop-color:#C1C6D1" offset="0.8288"/>
    <stop style="stop-color:#A5AEBD" offset="0.9219"/>
    <stop style="stop-color:#8896AA" offset="1"/>
   </linearGradient>
   <path stroke-miterlimit="10" stroke="#17191E" d="M826.4,485.2h-15.7&#xd;    c-2.3,0-4.2-1.9-4.2-4.2v-11.5c0-2.3,1.9-4.2,4.2-4.2h15.7c2.3,0,4.2,1.9,4.2,4.2V481C830.5,483.3,828.7,485.2,826.4,485.2z" fill="url(#SVGID_2_)" stroke-width="1.123"/>
   <path d="M817.6,469.4c0-0.5,0.4-1,1-1s1,0.4,1,1v4.2c0,0.5-0.4,1-1,1s-1-0.4-1-1V469.4z M818.5,482.1&#xd;    c-3.4,0-6.2-2.8-6.2-6.2c0-1.5,0.6-3,1.6-4.1c0.4-0.4,1-0.4,1.4-0.1c0.4,0.4,0.4,1,0.1,1.4c-0.7,0.8-1.1,1.8-1.1,2.8&#xd;    c0,2.3,1.9,4.3,4.3,4.3s4.3-1.9,4.3-4.3c0-1-0.4-2.1-1.1-2.8c-0.4-0.4-0.3-1,0.1-1.4c0.4-0.4,1-0.3,1.4,0.1c1,1.1,1.6,2.6,1.6,4.1&#xd;    C824.8,479.3,822,482.1,818.5,482.1z" fill="#878787"/>
  </g>
 </g>
 <g id="off">
  <g>
   <linearGradient gradientUnits="userSpaceOnUse" id="SVGID_3_" y1="511.6422" y2="491.8422" x1="818.0311" x2="818.0311">
    <stop style="stop-color:#17191E" offset="0"/>
    <stop style="stop-color:#3C424F" offset="1"/>
   </linearGradient>
   <path stroke-miterlimit="10" stroke="#17191E" d="M825.9,511.6h-15.7c-2.3,0-4.2-1.9-4.2-4.2V496&#xd;    c0-2.3,1.9-4.2,4.2-4.2h15.7c2.3,0,4.2,1.9,4.2,4.2v11.5C830,509.8,828.2,511.6,825.9,511.6z" fill="url(#SVGID_3_)"/>
   <path d="M817.1,495.9c0-0.5,0.4-1,1-1s1,0.4,1,1v4.2c0,0.5-0.4,1-1,1s-1-0.4-1-1V495.9z M818,508.6&#xd;    c-3.4,0-6.2-2.8-6.2-6.2c0-1.5,0.6-3,1.6-4.1c0.4-0.4,1-0.4,1.4-0.1c0.4,0.4,0.4,1,0.1,1.4c-0.7,0.8-1.1,1.8-1.1,2.8&#xd;    c0,2.3,1.9,4.3,4.3,4.3s4.3-1.9,4.3-4.3c0-1-0.4-2.1-1.1-2.8c-0.4-0.4-0.3-1,0.1-1.4c0.4-0.4,1-0.3,1.4,0.1c1,1.1,1.6,2.6,1.6,4.1&#xd;    C824.2,505.8,821.5,508.6,818,508.6z" fill="#F6F6F6"/>
  </g>
 </g>
 <g id="off-pressed">
  <g>
   <linearGradient gradientUnits="userSpaceOnUse" id="SVGID_4_" y1="534.6224" y2="514.8223" x1="818.0311" x2="818.0311">
    <stop style="stop-color:#17191E" offset="0"/>
    <stop style="stop-color:#3C424F" offset="1"/>
   </linearGradient>
   <path stroke-miterlimit="10" stroke="#17191E" d="M825.9,534.6h-15.7c-2.3,0-4.2-1.9-4.2-4.2V519&#xd;    c0-2.3,1.9-4.2,4.2-4.2h15.7c2.3,0,4.2,1.9,4.2,4.2v11.5C830,532.8,828.2,534.6,825.9,534.6z" fill="url(#SVGID_4_)"/>
   <path d="M817.1,518.9c0-0.5,0.4-1,1-1s1,0.4,1,1v4.2c0,0.5-0.4,1-1,1s-1-0.4-1-1V518.9z M818,531.6&#xd;    c-3.4,0-6.2-2.8-6.2-6.2c0-1.5,0.6-3,1.6-4.1c0.4-0.4,1-0.4,1.4-0.1c0.4,0.4,0.4,1,0.1,1.4c-0.7,0.8-1.1,1.8-1.1,2.8&#xd;    c0,2.3,1.9,4.3,4.3,4.3s4.3-1.9,4.3-4.3c0-1-0.4-2.1-1.1-2.8c-0.4-0.4-0.3-1,0.1-1.4c0.4-0.4,1-0.3,1.4,0.1c1,1.1,1.6,2.6,1.6,4.1&#xd;    C824.2,528.8,821.5,531.6,818,531.6z" fill="#575756"/>
  </g>
 </g>
 <g id="freezeactif">
  <g>
   <linearGradient gradientUnits="userSpaceOnUse" id="SVGID_5_" y1="462.1766" y2="442.3766" x1="895.1262" x2="895.1262">
    <stop style="stop-color:#FFFFFF" offset="0"/>
    <stop style="stop-color:#FDFDFE" offset="0.3119"/>
    <stop style="stop-color:#F6F6F9" offset="0.4787"/>
    <stop style="stop-color:#E9EAEF" offset="0.6113"/>
    <stop style="stop-color:#D8DAE2" offset="0.7259"/>
    <stop style="stop-color:#C1C6D1" offset="0.8288"/>
    <stop style="stop-color:#A5AEBD" offset="0.9219"/>
    <stop style="stop-color:#8896AA" offset="1"/>
   </linearGradient>
   <path stroke-miterlimit="10" stroke="#17191E" d="M903,462.2h-15.7&#xd;    c-2.3,0-4.2-1.9-4.2-4.2v-11.5c0-2.3,1.9-4.2,4.2-4.2H903c2.3,0,4.2,1.9,4.2,4.2V458C907.1,460.3,905.3,462.2,903,462.2z" fill="url(#SVGID_5_)" stroke-width="1.123"/>
   <path d="M900.3,453.2h-3.1l2.2,2.2c0.3,0.3,0.3,0.9,0,1.3c-0.3,0.3-0.9,0.3-1.3,0l-2.2-2.2v3.1&#xd;    c0,0.5-0.4,0.9-0.9,0.9c-0.5,0-0.9-0.4-0.9-0.9v-3.1l-2.2,2.2c-0.3,0.3-0.9,0.3-1.3,0c-0.3-0.3-0.3-0.9,0-1.3l2.2-2.2h-3.1&#xd;    c-0.5,0-0.9-0.4-0.9-0.9s0.4-0.9,0.9-0.9h3.1l-2.2-2.2c-0.3-0.3-0.3-0.9,0-1.3c0.3-0.3,0.9-0.3,1.3,0l2.2,2.2v-3.1&#xd;    c0-0.5,0.4-0.9,0.9-0.9c0.5,0,0.9,0.4,0.9,0.9v3.1l2.2-2.2c0.3-0.3,0.9-0.3,1.3,0c0.3,0.3,0.3,0.9,0,1.3l-2.2,2.2h3.1&#xd;    c0.5,0,0.9,0.4,0.9,0.9S900.8,453.2,900.3,453.2z" fill="#282D34"/>
  </g>
 </g>
 <g id="freezeactif-pressed">
  <g>
   <linearGradient gradientUnits="userSpaceOnUse" id="SVGID_6_" y1="485.1827" y2="465.3826" x1="895.1262" x2="895.1262">
    <stop style="stop-color:#FFFFFF" offset="0"/>
    <stop style="stop-color:#FDFDFE" offset="0.3119"/>
    <stop style="stop-color:#F6F6F9" offset="0.4787"/>
    <stop style="stop-color:#E9EAEF" offset="0.6113"/>
    <stop style="stop-color:#D8DAE2" offset="0.7259"/>
    <stop style="stop-color:#C1C6D1" offset="0.8288"/>
    <stop style="stop-color:#A5AEBD" offset="0.9219"/>
    <stop style="stop-color:#8896AA" offset="1"/>
   </linearGradient>
   <path stroke-miterlimit="10" stroke="#17191E" d="M903,485.2h-15.7&#xd;    c-2.3,0-4.2-1.9-4.2-4.2v-11.5c0-2.3,1.9-4.2,4.2-4.2H903c2.3,0,4.2,1.9,4.2,4.2V481C907.1,483.3,905.3,485.2,903,485.2z" fill="url(#SVGID_6_)" stroke-width="1.123"/>
   <path d="M900.3,476.2h-3.1l2.2,2.2c0.3,0.3,0.3,0.9,0,1.3c-0.3,0.3-0.9,0.3-1.3,0l-2.2-2.2v3.1&#xd;    c0,0.5-0.4,0.9-0.9,0.9c-0.5,0-0.9-0.4-0.9-0.9v-3.1l-2.2,2.2c-0.3,0.3-0.9,0.3-1.3,0c-0.3-0.3-0.3-0.9,0-1.3l2.2-2.2h-3.1&#xd;    c-0.5,0-0.9-0.4-0.9-0.9s0.4-0.9,0.9-0.9h3.1l-2.2-2.2c-0.3-0.3-0.3-0.9,0-1.3c0.3-0.3,0.9-0.3,1.3,0l2.2,2.2v-3.1&#xd;    c0-0.5,0.4-0.9,0.9-0.9c0.5,0,0.9,0.4,0.9,0.9v3.1l2.2-2.2c0.3-0.3,0.9-0.3,1.3,0c0.3,0.3,0.3,0.9,0,1.3l-2.2,2.2h3.1&#xd;    c0.5,0,0.9,0.4,0.9,0.9S900.8,476.2,900.3,476.2z" fill="#878787"/>
  </g>
 </g>
 <g id="freezeinactif">
  <g>
   <linearGradient gradientUnits="userSpaceOnUse" id="SVGID_7_" y1="511.6433" y2="491.8395" x1="894.4468" x2="894.4468">
    <stop style="stop-color:#17191E" offset="0"/>
    <stop style="stop-color:#3C424F" offset="1"/>
   </linearGradient>
   <path stroke-miterlimit="10" stroke="#17191E" d="M902.3,511.6h-15.7&#xd;    c-2.3,0-4.2-1.9-4.2-4.2V496c0-2.3,1.9-4.2,4.2-4.2h15.7c2.3,0,4.2,1.9,4.2,4.2v11.5C906.4,509.8,904.6,511.6,902.3,511.6z" fill="url(#SVGID_7_)" stroke-width="1.1232"/>
   <path d="M899.7,502.6h-3.1l2.2,2.2c0.3,0.3,0.3,0.9,0,1.3c-0.3,0.3-0.9,0.3-1.3,0l-2.2-2.2v3.1&#xd;    c0,0.5-0.4,0.9-0.9,0.9c-0.5,0-0.9-0.4-0.9-0.9v-3.1l-2.2,2.2c-0.3,0.3-0.9,0.3-1.3,0c-0.3-0.3-0.3-0.9,0-1.3l2.2-2.2h-3.1&#xd;    c-0.5,0-0.9-0.4-0.9-0.9s0.4-0.9,0.9-0.9h3.1l-2.2-2.2c-0.3-0.3-0.3-0.9,0-1.3c0.3-0.3,0.9-0.3,1.3,0l2.2,2.2v-3.1&#xd;    c0-0.5,0.4-0.9,0.9-0.9c0.5,0,0.9,0.4,0.9,0.9v3.1l2.2-2.2c0.3-0.3,0.9-0.3,1.3,0c0.3,0.3,0.3,0.9,0,1.3l-2.2,2.2h3.1&#xd;    c0.5,0,0.9,0.4,0.9,0.9S900.2,502.6,899.7,502.6z" fill="#F6F6F6"/>
  </g>
 </g>
 <g id="freezeinactif-pressed_1_">
  <g>
   <linearGradient gradientUnits="userSpaceOnUse" id="SVGID_8_" y1="534.6234" y2="514.8196" x1="894.4468" x2="894.4468">
    <stop style="stop-color:#17191E" offset="0"/>
    <stop style="stop-color:#3C424F" offset="1"/>
   </linearGradient>
   <path stroke-miterlimit="10" stroke="#17191E" d="M902.3,534.6h-15.7&#xd;    c-2.3,0-4.2-1.9-4.2-4.2V519c0-2.3,1.9-4.2,4.2-4.2h15.7c2.3,0,4.2,1.9,4.2,4.2v11.5C906.4,532.8,904.6,534.6,902.3,534.6z" fill="url(#SVGID_8_)" stroke-width="1.1232"/>
   <path d="M899.7,525.6h-3.1l2.2,2.2c0.3,0.3,0.3,0.9,0,1.3c-0.3,0.3-0.9,0.3-1.3,0l-2.2-2.2v3.1&#xd;    c0,0.5-0.4,0.9-0.9,0.9c-0.5,0-0.9-0.4-0.9-0.9v-3.1l-2.2,2.2c-0.3,0.3-0.9,0.3-1.3,0c-0.3-0.3-0.3-0.9,0-1.3l2.2-2.2h-3.1&#xd;    c-0.5,0-0.9-0.4-0.9-0.9s0.4-0.9,0.9-0.9h3.1l-2.2-2.2c-0.3-0.3-0.3-0.9,0-1.3c0.3-0.3,0.9-0.3,1.3,0l2.2,2.2v-3.1&#xd;    c0-0.5,0.4-0.9,0.9-0.9c0.5,0,0.9,0.4,0.9,0.9v3.1l2.2-2.2c0.3-0.3,0.9-0.3,1.3,0c0.3,0.3,0.3,0.9,0,1.3l-2.2,2.2h3.1&#xd;    c0.5,0,0.9,0.4,0.9,0.9S900.2,525.6,899.7,525.6z" fill="#575756"/>
  </g>
 </g>
 <g id="muteactif">
  <g>
   <linearGradient gradientUnits="userSpaceOnUse" id="SVGID_9_" y1="462.1778" y2="442.3778" x1="959.9786" x2="959.9786">
    <stop style="stop-color:#FFFFFF" offset="0"/>
    <stop style="stop-color:#FDFDFE" offset="0.3119"/>
    <stop style="stop-color:#F6F6F9" offset="0.4787"/>
    <stop style="stop-color:#E9EAEF" offset="0.6113"/>
    <stop style="stop-color:#D8DAE2" offset="0.7259"/>
    <stop style="stop-color:#C1C6D1" offset="0.8288"/>
    <stop style="stop-color:#A5AEBD" offset="0.9219"/>
    <stop style="stop-color:#8896AA" offset="1"/>
   </linearGradient>
   <path stroke-miterlimit="10" stroke="#17191E" d="M967.8,462.2h-15.7&#xd;    c-2.3,0-4.2-1.9-4.2-4.2v-11.5c0-2.3,1.9-4.2,4.2-4.2h15.7c2.3,0,4.2,1.9,4.2,4.2V458C972,460.3,970.1,462.2,967.8,462.2z" fill="url(#SVGID_9_)" stroke-width="1.123"/>
   <path d="M967.5,448.7l-4,3.1c0,0,0,0.1,0,0.1c0,0.1,0,0.2,0,0.3c0,1.7,0,3.4,0,5c0,0.1,0,0.2,0,0.3&#xd;    c-0.1,0.3-0.5,0.4-0.8,0.2c-0.5-0.4-1-0.8-1.5-1.2c-0.6-0.5-1.2-1-1.9-1.5l-3.7,2.9c-0.1,0.1-0.3,0.2-0.5,0.2&#xd;    c-0.2,0-0.4-0.1-0.6-0.3c-0.3-0.3-0.2-0.8,0.1-1.1l2.8-2.2c-0.3,0-0.5,0-0.8-0.1c-0.4-0.1-0.7-0.4-0.7-0.8c0-0.9,0-1.8,0-2.8&#xd;    c0-0.6,0.3-1,1-1c0.6,0,1.2-0.1,1.8-0.2c0.1,0,0.3-0.1,0.4-0.2c1.2-1,2.4-1.9,3.6-2.9c0.2-0.1,0.4-0.2,0.6-0.1&#xd;    c0.2,0.1,0.3,0.3,0.3,0.5c0,0.9,0,1.9,0,2.8l3.1-2.4c0.3-0.3,0.8-0.2,1.1,0.1C967.9,448,967.9,448.4,967.5,448.7z" fill="#282D34"/>
  </g>
 </g>
 <g id="muteactif-pressed_1_">
  <g>
   <linearGradient gradientUnits="userSpaceOnUse" id="SVGID_10_" y1="485.1839" y2="465.3839" x1="959.9786" x2="959.9786">
    <stop style="stop-color:#FFFFFF" offset="0"/>
    <stop style="stop-color:#FDFDFE" offset="0.3119"/>
    <stop style="stop-color:#F6F6F9" offset="0.4787"/>
    <stop style="stop-color:#E9EAEF" offset="0.6113"/>
    <stop style="stop-color:#D8DAE2" offset="0.7259"/>
    <stop style="stop-color:#C1C6D1" offset="0.8288"/>
    <stop style="stop-color:#A5AEBD" offset="0.9219"/>
    <stop style="stop-color:#8896AA" offset="1"/>
   </linearGradient>
   <path stroke-miterlimit="10" stroke="#17191E" d="M967.8,485.2h-15.7&#xd;    c-2.3,0-4.2-1.9-4.2-4.2v-11.5c0-2.3,1.9-4.2,4.2-4.2h15.7c2.3,0,4.2,1.9,4.2,4.2V481C972,483.3,970.1,485.2,967.8,485.2z" fill="url(#SVGID_10_)" stroke-width="1.123"/>
   <path d="M967.5,471.7l-4,3.1c0,0,0,0.1,0,0.1c0,0.1,0,0.2,0,0.3c0,1.7,0,3.4,0,5c0,0.1,0,0.2,0,0.3&#xd;    c-0.1,0.3-0.5,0.4-0.8,0.2c-0.5-0.4-1-0.8-1.5-1.2c-0.6-0.5-1.2-1-1.9-1.5l-3.7,2.9c-0.1,0.1-0.3,0.2-0.5,0.2&#xd;    c-0.2,0-0.4-0.1-0.6-0.3c-0.3-0.3-0.2-0.8,0.1-1.1l2.8-2.2c-0.3,0-0.5,0-0.8-0.1c-0.4-0.1-0.7-0.4-0.7-0.8c0-0.9,0-1.8,0-2.8&#xd;    c0-0.6,0.3-1,1-1c0.6,0,1.2-0.1,1.8-0.2c0.1,0,0.3-0.1,0.4-0.2c1.2-1,2.4-1.9,3.6-2.9c0.2-0.1,0.4-0.2,0.6-0.1&#xd;    c0.2,0.1,0.3,0.3,0.3,0.5c0,0.9,0,1.9,0,2.8l3.1-2.4c0.3-0.3,0.8-0.2,1.1,0.1C967.9,471,967.9,471.5,967.5,471.7z" fill="#878787"/>
  </g>
 </g>
 <g id="muteinactif">
  <g>
   <linearGradient gradientUnits="userSpaceOnUse" id="SVGID_11_" y1="511.6421" y2="491.8436" x1="960.0224" x2="960.0224">
    <stop style="stop-color:#17191E" offset="0"/>
    <stop style="stop-color:#3C424F" offset="1"/>
   </linearGradient>
   <path stroke-miterlimit="10" stroke="#17191E" d="M967.9,511.6h-15.7&#xd;    c-2.3,0-4.2-1.9-4.2-4.2V496c0-2.3,1.9-4.2,4.2-4.2h15.7c2.3,0,4.2,1.9,4.2,4.2v11.5C972,509.8,970.2,511.6,967.9,511.6z" fill="url(#SVGID_11_)" stroke-width="1.1229"/>
   <path d="M967.6,498.2l-4,3.1c0,0,0,0.1,0,0.1c0,0.1,0,0.2,0,0.3c0,1.7,0,3.4,0,5c0,0.1,0,0.2,0,0.3&#xd;    c-0.1,0.3-0.5,0.4-0.8,0.2c-0.5-0.4-1-0.8-1.5-1.2c-0.6-0.5-1.2-1-1.9-1.5l-3.7,2.9c-0.1,0.1-0.3,0.2-0.5,0.2&#xd;    c-0.2,0-0.4-0.1-0.6-0.3c-0.3-0.3-0.2-0.8,0.1-1.1l2.8-2.2c-0.3,0-0.5,0-0.8-0.1c-0.4-0.1-0.7-0.4-0.7-0.8c0-0.9,0-1.8,0-2.8&#xd;    c0-0.6,0.3-1,1-1c0.6,0,1.2-0.1,1.8-0.2c0.1,0,0.3-0.1,0.4-0.2c1.2-1,2.4-1.9,3.6-2.9c0.2-0.1,0.4-0.2,0.6-0.1&#xd;    c0.2,0.1,0.3,0.3,0.3,0.5c0,0.9,0,1.9,0,2.8l3.1-2.4c0.3-0.3,0.8-0.2,1.1,0.1C968,497.4,967.9,497.9,967.6,498.2z" fill="#F6F6F6"/>
  </g>
 </g>
 <g id="muteinactif-pressed">
  <g>
   <linearGradient gradientUnits="userSpaceOnUse" id="SVGID_12_" y1="534.6222" y2="514.8237" x1="960.0224" x2="960.0224">
    <stop style="stop-color:#17191E" offset="0"/>
    <stop style="stop-color:#3C424F" offset="1"/>
   </linearGradient>
   <path stroke-miterlimit="10" stroke="#17191E" d="M967.9,534.6h-15.7&#xd;    c-2.3,0-4.2-1.9-4.2-4.2V519c0-2.3,1.9-4.2,4.2-4.2h15.7c2.3,0,4.2,1.9,4.2,4.2v11.5C972,532.8,970.2,534.6,967.9,534.6z" fill="url(#SVGID_12_)" stroke-width="1.1229"/>
   <path d="M967.6,521.1l-4,3.1c0,0,0,0.1,0,0.1c0,0.1,0,0.2,0,0.3c0,1.7,0,3.4,0,5c0,0.1,0,0.2,0,0.3&#xd;    c-0.1,0.3-0.5,0.4-0.8,0.2c-0.5-0.4-1-0.8-1.5-1.2c-0.6-0.5-1.2-1-1.9-1.5l-3.7,2.9c-0.1,0.1-0.3,0.2-0.5,0.2&#xd;    c-0.2,0-0.4-0.1-0.6-0.3c-0.3-0.3-0.2-0.8,0.1-1.1l2.8-2.2c-0.3,0-0.5,0-0.8-0.1c-0.4-0.1-0.7-0.4-0.7-0.8c0-0.9,0-1.8,0-2.8&#xd;    c0-0.6,0.3-1,1-1c0.6,0,1.2-0.1,1.8-0.2c0.1,0,0.3-0.1,0.4-0.2c1.2-1,2.4-1.9,3.6-2.9c0.2-0.1,0.4-0.2,0.6-0.1&#xd;    c0.2,0.1,0.3,0.3,0.3,0.5c0,0.9,0,1.9,0,2.8l3.1-2.4c0.3-0.3,0.8-0.2,1.1,0.1C968,520.4,967.9,520.9,967.6,521.1z" fill="#575756"/>
  </g>
 </g>
 <g id="outputIsMuted">
  <g>
   <line stroke-miterlimit="10" stroke="#FFFFFF" y1="506.7" fill="none" y2="512.7" stroke-width="2" x1="548.8" x2="542.7"/>
   <line stroke-miterlimit="10" stroke="#FFFFFF" y1="512.7" fill="none" y2="506.7" stroke-width="2" x1="548.8" x2="542.7"/>
  </g>
 </g>
 <g id="editeurDefinition">
  <linearGradient gradientUnits="userSpaceOnUse" id="tab-0_1_" y1="616.2708" y2="586.8051" x1="469.1121" x2="469.1121">
   <stop style="stop-color:#17191E" offset="0"/>
   <stop style="stop-color:#3C424F" offset="1"/>
  </linearGradient>
  <path stroke-miterlimit="10" stroke="#878787" d="M520.4,616.3h-94.2&#xd;   c-4.7,0-8.5-3.8-8.5-8.5v-12.5c0-4.7,3.8-8.5,8.5-8.5h94.2V616.3z" id="tab-0" fill="url(#tab-0_1_)" stroke-width="0.2932"/>
  <linearGradient gradientUnits="userSpaceOnUse" id="tab-0-Selected_1_" gradientTransform="matrix(-1 0 0 -1 1168.333 1295.4292)" y1="679.1584" y2="708.6241" x1="584.1666" x2="584.1666">
   <stop style="stop-color:#FFFFFF" offset="0"/>
   <stop style="stop-color:#FDFDFE" offset="0.3119"/>
   <stop style="stop-color:#F6F6F9" offset="0.4787"/>
   <stop style="stop-color:#E9EAEF" offset="0.6113"/>
   <stop style="stop-color:#D8DAE2" offset="0.7259"/>
   <stop style="stop-color:#C1C6D1" offset="0.8288"/>
   <stop style="stop-color:#A5AEBD" offset="0.9219"/>
   <stop style="stop-color:#8896AA" offset="1"/>
  </linearGradient>
  <path stroke-miterlimit="10" stroke="#17191E" d="&#xd;   M541.3,586.8l94.2,0v29.5h-93.1c-5.3,0-9.5-4.3-9.5-9.5v-11.4C532.8,590.6,536.6,586.8,541.3,586.8z" id="tab-0-Selected" fill="url(#tab-0-Selected_1_)" stroke-width="0.2932"/>
  <linearGradient gradientUnits="userSpaceOnUse" id="tab-1_1_" y1="653.6561" y2="624.1904" x1="469.1121" x2="469.1121">
   <stop style="stop-color:#17191E" offset="0"/>
   <stop style="stop-color:#3C424F" offset="1"/>
  </linearGradient>
  <rect stroke-miterlimit="10" stroke="#878787" id="tab-1" x="417.8" y="624.2" height="29.5" fill="url(#tab-1_1_)" width="102.7" stroke-width="0.2932"/>
  <linearGradient gradientUnits="userSpaceOnUse" id="tab-1-Selected_1_" gradientTransform="matrix(-1 0 0 -1 1168.3328 1277.8466)" y1="624.1905" y2="653.6561" x1="584.1664" x2="584.1664">
   <stop style="stop-color:#FFFFFF" offset="0"/>
   <stop style="stop-color:#FDFDFE" offset="0.3119"/>
   <stop style="stop-color:#F6F6F9" offset="0.4787"/>
   <stop style="stop-color:#E9EAEF" offset="0.6113"/>
   <stop style="stop-color:#D8DAE2" offset="0.7259"/>
   <stop style="stop-color:#C1C6D1" offset="0.8288"/>
   <stop style="stop-color:#A5AEBD" offset="0.9219"/>
   <stop style="stop-color:#8896AA" offset="1"/>
  </linearGradient>
  <rect stroke-miterlimit="10" stroke="#17191E" id="tab-1-Selected" x="532.8" y="624.2" height="29.5" fill="url(#tab-1-Selected_1_)" width="102.7" stroke-width="0.2932"/>
  <linearGradient gradientUnits="userSpaceOnUse" id="button_1_" y1="747.6381" y2="718.1724" x1="467.3487" x2="467.3487">
   <stop style="stop-color:#17191E" offset="0"/>
   <stop style="stop-color:#3C424F" offset="1"/>
  </linearGradient>
  <path stroke-miterlimit="10" stroke="#878787" d="M503.3,747.6h-71.8&#xd;   c-2.3,0-4.1-1.8-4.1-4.1v-21.3c0-2.3,1.8-4.1,4.1-4.1h71.8c2.3,0,4.1,1.8,4.1,4.1v21.3C507.3,745.8,505.5,747.6,503.3,747.6z" id="button" fill="url(#button_1_)" stroke-width="0.2588"/>
  <linearGradient gradientUnits="userSpaceOnUse" id="button-pressed_1_" y1="747.6381" y2="718.1724" x1="584.1664" x2="584.1664">
   <stop style="stop-color:#FFFFFF" offset="0"/>
   <stop style="stop-color:#FDFDFE" offset="0.3119"/>
   <stop style="stop-color:#F6F6F9" offset="0.4787"/>
   <stop style="stop-color:#E9EAEF" offset="0.6113"/>
   <stop style="stop-color:#D8DAE2" offset="0.7259"/>
   <stop style="stop-color:#C1C6D1" offset="0.8288"/>
   <stop style="stop-color:#A5AEBD" offset="0.9219"/>
   <stop style="stop-color:#8896AA" offset="1"/>
  </linearGradient>
  <path stroke-miterlimit="10" stroke="#17191E" d="&#xd;   M620.1,747.6h-71.8c-2.3,0-4.1-1.8-4.1-4.1v-21.3c0-2.3,1.8-4.1,4.1-4.1h71.8c2.3,0,4.1,1.8,4.1,4.1v21.3&#xd;   C624.2,745.8,622.3,747.6,620.1,747.6z" id="button-pressed" fill="url(#button-pressed_1_)" stroke-width="0.2588"/>
  <linearGradient gradientUnits="userSpaceOnUse" id="tab-2-Selected_1_" y1="696.4041" y2="666.9384" x1="584.1664" x2="584.1664">
   <stop style="stop-color:#FFFFFF" offset="0"/>
   <stop style="stop-color:#FDFDFE" offset="0.3119"/>
   <stop style="stop-color:#F6F6F9" offset="0.4787"/>
   <stop style="stop-color:#E9EAEF" offset="0.6113"/>
   <stop style="stop-color:#D8DAE2" offset="0.7259"/>
   <stop style="stop-color:#C1C6D1" offset="0.8288"/>
   <stop style="stop-color:#A5AEBD" offset="0.9219"/>
   <stop style="stop-color:#8896AA" offset="1"/>
  </linearGradient>
  <path stroke-miterlimit="10" stroke="#17191E" d="&#xd;   M627,696.4h-94.2v-29.5H626c5.3,0,9.5,4.3,9.5,9.5v11.4C635.5,692.6,631.7,696.4,627,696.4z" id="tab-2-Selected" fill="url(#tab-2-Selected_1_)" stroke-width="0.2932"/>
  <linearGradient gradientUnits="userSpaceOnUse" id="tab-2_1_" y1="696.4041" y2="666.9384" x1="469.1121" x2="469.1121">
   <stop style="stop-color:#17191E" offset="0"/>
   <stop style="stop-color:#3C424F" offset="1"/>
  </linearGradient>
  <path stroke-miterlimit="10" stroke="#878787" d="M511.9,696.4h-94.2&#xd;   v-29.5h93.1c5.3,0,9.5,4.3,9.5,9.5v11.4C520.4,692.6,516.6,696.4,511.9,696.4z" id="tab-2" fill="url(#tab-2_1_)" stroke-width="0.2932"/>
  <g id="closeEditor">
   <g>
    <line stroke-miterlimit="10" stroke="#FFFFFF" y1="610.8" fill="#FFFFFF" y2="624.2" stroke-width="1.3322" x1="711.5" x2="698.3"/>
    <line stroke-miterlimit="10" stroke="#FFFFFF" y1="624.3" fill="#FFFFFF" y2="610.8" stroke-width="1.3322" x1="711.4" x2="698.2"/>
   </g>
  </g>
  <g id="closeEditor-pressed">
   <g>
    <line stroke-miterlimit="10" stroke="#9D9C9C" y1="632.2" fill="#9D9C9C" y2="645.6" stroke-width="1.3322" x1="711.5" x2="698.2"/>
    <line stroke-miterlimit="10" stroke="#9D9C9C" y1="645.7" fill="#9D9C9C" y2="632.3" stroke-width="1.3322" x1="711.4" x2="698.2"/>
   </g>
  </g>
 </g>
 <g id="active-mapping">
  <g id="mappingActivation">
   <linearGradient gradientUnits="userSpaceOnUse" id="SVGID_13_" y1="656.119" y2="615.6081" x1="834.4445" x2="834.4445">
    <stop style="stop-color:#17191E" offset="0"/>
    <stop style="stop-color:#3C424F" offset="1"/>
   </linearGradient>
   <path stroke-miterlimit="10" stroke="#878787" d="M845.3,656.1h-21.7&#xd;    c-10.7,0-19.5-8.8-19.5-19.5v-1.5c0-10.7,8.8-19.5,19.5-19.5h21.7c10.7,0,19.5,8.8,19.5,19.5v1.5&#xd;    C864.8,647.3,856,656.1,845.3,656.1z" fill="url(#SVGID_13_)" stroke-width="1.1229"/>
   <g>
    <path stroke-miterlimit="10" stroke="#FFFFFF" d="M822.3,628.8L822.3,628.8&#xd;     c-3.5,0-6.3,2.8-6.3,6.3c0,3.5,2.8,6.3,6.3,6.3" fill="none" stroke-width="2" stroke-linecap="round"/>
    <line stroke-miterlimit="10" stroke="#FFFFFF" y1="641.4" fill="none" y2="641.4" stroke-width="2" x1="830.4" x2="822.3" stroke-linecap="round"/>
    <line stroke-miterlimit="10" stroke="#FFFFFF" y1="628.8" fill="none" y2="628.8" stroke-width="2" x1="837.4" x2="829.3" stroke-linecap="round"/>
    <g>
     <path stroke-miterlimit="10" stroke="#FFFFFF" d="M837.4,628.8h8.1&#xd;      c3.5,0,6.3,2.8,6.3,6.3c0,3.5-2.8,6.3-6.3,6.3" fill="none" stroke-width="2" stroke-linecap="round"/>
    </g>
    <g>
     <line stroke-miterlimit="10" stroke="#FFFFFF" y1="628.8" fill="none" y2="624.8" stroke-width="2" x1="828.3" x2="835.8" stroke-linecap="round"/>
     <line stroke-miterlimit="10" stroke="#FFFFFF" y1="628.8" fill="none" y2="632.8" stroke-width="2" x1="828.3" x2="835.8" stroke-linecap="round"/>
    </g>
    <g>
     <line stroke-miterlimit="10" stroke="#FFFFFF" y1="641.4" fill="none" y2="645.3" stroke-width="2" x1="839.6" x2="832.1" stroke-linecap="round"/>
     <line stroke-miterlimit="10" stroke="#FFFFFF" y1="641.4" fill="none" y2="637.4" stroke-width="2" x1="839.6" x2="832.1" stroke-linecap="round"/>
    </g>
    <line stroke-miterlimit="10" stroke="#FFFFFF" y1="641.4" fill="none" y2="641.4" stroke-width="2" x1="838.5" x2="830.4" stroke-linecap="round"/>
   </g>
  </g>
  <g id="mappingActivation-pressed">
   <linearGradient gradientUnits="userSpaceOnUse" id="SVGID_14_" y1="708.619" y2="668.1081" x1="834.4445" x2="834.4445">
    <stop style="stop-color:#17191E" offset="0"/>
    <stop style="stop-color:#3C424F" offset="1"/>
   </linearGradient>
   <path stroke-miterlimit="10" stroke="#878787" d="M845.3,708.6h-21.7&#xd;    c-10.7,0-19.5-8.8-19.5-19.5v-1.5c0-10.7,8.8-19.5,19.5-19.5h21.7c10.7,0,19.5,8.8,19.5,19.5v1.5&#xd;    C864.8,699.8,856,708.6,845.3,708.6z" fill="url(#SVGID_14_)" stroke-width="1.1229"/>
   <g>
    <path stroke-miterlimit="10" stroke="#878787" d="M822.3,681.3L822.3,681.3&#xd;     c-3.5,0-6.3,2.8-6.3,6.3c0,3.5,2.8,6.3,6.3,6.3" fill="none" stroke-width="2" stroke-linecap="round"/>
    <line stroke-miterlimit="10" stroke="#878787" y1="693.9" fill="none" y2="693.9" stroke-width="2" x1="830.4" x2="822.3" stroke-linecap="round"/>
    <line stroke-miterlimit="10" stroke="#878787" y1="681.3" fill="none" y2="681.3" stroke-width="2" x1="837.4" x2="829.3" stroke-linecap="round"/>
    <g>
     <path stroke-miterlimit="10" stroke="#878787" d="M837.4,681.3h8.1&#xd;      c3.5,0,6.3,2.8,6.3,6.3c0,3.5-2.8,6.3-6.3,6.3" fill="none" stroke-width="2" stroke-linecap="round"/>
    </g>
    <g>
     <line stroke-miterlimit="10" stroke="#878787" y1="681.3" fill="none" y2="677.3" stroke-width="2" x1="828.3" x2="835.8" stroke-linecap="round"/>
     <line stroke-miterlimit="10" stroke="#878787" y1="681.3" fill="none" y2="685.3" stroke-width="2" x1="828.3" x2="835.8" stroke-linecap="round"/>
    </g>
    <g>
     <line stroke-miterlimit="10" stroke="#878787" y1="693.9" fill="none" y2="697.8" stroke-width="2" x1="839.6" x2="832.1" stroke-linecap="round"/>
     <line stroke-miterlimit="10" stroke="#878787" y1="693.9" fill="none" y2="689.9" stroke-width="2" x1="839.6" x2="832.1" stroke-linecap="round"/>
    </g>
    <line stroke-miterlimit="10" stroke="#878787" y1="693.9" fill="none" y2="693.9" stroke-width="2" x1="838.5" x2="830.4" stroke-linecap="round"/>
   </g>
  </g>
  <g id="mappingActivation-activated-pressed">
   <linearGradient gradientUnits="userSpaceOnUse" id="SVGID_15_" y1="762.119" y2="721.6081" x1="834.4445" x2="834.4445">
    <stop style="stop-color:#FFFFFF" offset="0"/>
    <stop style="stop-color:#FDFDFE" offset="0.3119"/>
    <stop style="stop-color:#F6F6F9" offset="0.4787"/>
    <stop style="stop-color:#E9EAEF" offset="0.6113"/>
    <stop style="stop-color:#D8DAE2" offset="0.7259"/>
    <stop style="stop-color:#C1C6D1" offset="0.8288"/>
    <stop style="stop-color:#A5AEBD" offset="0.9219"/>
    <stop style="stop-color:#8896AA" offset="1"/>
   </linearGradient>
   <path stroke-miterlimit="10" stroke="#878787" d="M845.3,762.1h-21.7c-10.7,0-19.5-8.8-19.5-19.5v-1.5&#xd;    c0-10.7,8.8-19.5,19.5-19.5h21.7c10.7,0,19.5,8.8,19.5,19.5v1.5C864.8,753.3,856,762.1,845.3,762.1z" fill="url(#SVGID_15_)"/>
   <g>
    <path stroke-miterlimit="10" stroke="#878787" d="M822.3,734.8L822.3,734.8&#xd;     c-3.5,0-6.3,2.8-6.3,6.3s2.8,6.3,6.3,6.3" fill="none" stroke-width="2" stroke-linecap="round"/>
    <line stroke-miterlimit="10" stroke="#878787" y1="747.4" fill="none" y2="747.4" stroke-width="2" x1="830.4" x2="822.3" stroke-linecap="round"/>
    <line stroke-miterlimit="10" stroke="#878787" y1="734.8" fill="none" y2="734.8" stroke-width="2" x1="837.4" x2="829.3" stroke-linecap="round"/>
    <g>
     <path stroke-miterlimit="10" stroke="#878787" d="M837.4,734.8h8.1&#xd;      c3.5,0,6.3,2.8,6.3,6.3s-2.8,6.3-6.3,6.3" fill="none" stroke-width="2" stroke-linecap="round"/>
    </g>
    <g>
     <line stroke-miterlimit="10" stroke="#878787" y1="734.8" fill="none" y2="730.8" stroke-width="2" x1="828.3" x2="835.8" stroke-linecap="round"/>
     <line stroke-miterlimit="10" stroke="#878787" y1="734.8" fill="none" y2="738.8" stroke-width="2" x1="828.3" x2="835.8" stroke-linecap="round"/>
    </g>
    <g>
     <line stroke-miterlimit="10" stroke="#878787" y1="747.4" fill="none" y2="751.3" stroke-width="2" x1="839.6" x2="832.1" stroke-linecap="round"/>
     <line stroke-miterlimit="10" stroke="#878787" y1="747.4" fill="none" y2="743.4" stroke-width="2" x1="839.6" x2="832.1" stroke-linecap="round"/>
    </g>
    <line stroke-miterlimit="10" stroke="#878787" y1="747.4" fill="none" y2="747.4" stroke-width="2" x1="838.5" x2="830.4" stroke-linecap="round"/>
   </g>
  </g>
  <g id="mappingActivation-activated">
   <linearGradient gradientUnits="userSpaceOnUse" id="SVGID_16_" y1="815.619" y2="775.1081" x1="834.4445" x2="834.4445">
    <stop style="stop-color:#FFFFFF" offset="0"/>
    <stop style="stop-color:#FDFDFE" offset="0.3119"/>
    <stop style="stop-color:#F6F6F9" offset="0.4787"/>
    <stop style="stop-color:#E9EAEF" offset="0.6113"/>
    <stop style="stop-color:#D8DAE2" offset="0.7259"/>
    <stop style="stop-color:#C1C6D1" offset="0.8288"/>
    <stop style="stop-color:#A5AEBD" offset="0.9219"/>
    <stop style="stop-color:#8896AA" offset="1"/>
   </linearGradient>
   <path stroke-miterlimit="10" stroke="#878787" d="M845.3,815.6h-21.7c-10.7,0-19.5-8.8-19.5-19.5v-1.5&#xd;    c0-10.7,8.8-19.5,19.5-19.5h21.7c10.7,0,19.5,8.8,19.5,19.5v1.5C864.8,806.8,856,815.6,845.3,815.6z" fill="url(#SVGID_16_)"/>
   <g>
    <path stroke-miterlimit="10" stroke="#282D34" d="M822.3,788.3L822.3,788.3&#xd;     c-3.5,0-6.3,2.8-6.3,6.3s2.8,6.3,6.3,6.3" fill="none" stroke-width="2" stroke-linecap="round"/>
    <line stroke-miterlimit="10" stroke="#282D34" y1="800.9" fill="none" y2="800.9" stroke-width="2" x1="830.4" x2="822.3" stroke-linecap="round"/>
    <line stroke-miterlimit="10" stroke="#282D34" y1="788.3" fill="none" y2="788.3" stroke-width="2" x1="837.4" x2="829.3" stroke-linecap="round"/>
    <g>
     <path stroke-miterlimit="10" stroke="#282D34" d="M837.4,788.3h8.1&#xd;      c3.5,0,6.3,2.8,6.3,6.3s-2.8,6.3-6.3,6.3" fill="none" stroke-width="2" stroke-linecap="round"/>
    </g>
    <g>
     <line stroke-miterlimit="10" stroke="#282D34" y1="788.3" fill="none" y2="784.3" stroke-width="2" x1="828.3" x2="835.8" stroke-linecap="round"/>
     <line stroke-miterlimit="10" stroke="#282D34" y1="788.3" fill="none" y2="792.3" stroke-width="2" x1="828.3" x2="835.8" stroke-linecap="round"/>
    </g>
    <g>
     <line stroke-miterlimit="10" stroke="#282D34" y1="800.9" fill="none" y2="804.8" stroke-width="2" x1="839.6" x2="832.1" stroke-linecap="round"/>
     <line stroke-miterlimit="10" stroke="#282D34" y1="800.9" fill="none" y2="796.9" stroke-width="2" x1="839.6" x2="832.1" stroke-linecap="round"/>
    </g>
    <line stroke-miterlimit="10" stroke="#282D34" y1="800.9" fill="none" y2="800.9" stroke-width="2" x1="838.5" x2="830.4" stroke-linecap="round"/>
   </g>
  </g>
 </g>
 <g id="play-pause-scenario">
  <g id="pause-pressed">
   <linearGradient gradientUnits="userSpaceOnUse" id="SVGID_17_" y1="757.369" y2="716.8581" x1="937.4933" x2="937.4933">
    <stop style="stop-color:#FFFFFF" offset="0"/>
    <stop style="stop-color:#FDFDFE" offset="0.3119"/>
    <stop style="stop-color:#F6F6F9" offset="0.4787"/>
    <stop style="stop-color:#E9EAEF" offset="0.6113"/>
    <stop style="stop-color:#D8DAE2" offset="0.7259"/>
    <stop style="stop-color:#C1C6D1" offset="0.8288"/>
    <stop style="stop-color:#A5AEBD" offset="0.9219"/>
    <stop style="stop-color:#8896AA" offset="1"/>
   </linearGradient>
   <path stroke-miterlimit="10" stroke="#282D34" d="M948.3,757.4h-21.7c-10.7,0-19.5-8.8-19.5-19.5v-1.5&#xd;    c0-10.7,8.8-19.5,19.5-19.5h21.7c10.7,0,19.5,8.8,19.5,19.5v1.5C967.9,748.6,959.1,757.4,948.3,757.4z" fill="url(#SVGID_17_)"/>
   <g>
    <line stroke-miterlimit="10" stroke="#878787" y1="743.9" fill="none" y2="730.3" stroke-width="4" x1="933.3" x2="933.3" stroke-linecap="round"/>
    <line stroke-miterlimit="10" stroke="#878787" y1="743.9" fill="none" y2="730.3" stroke-width="4" x1="942" x2="942" stroke-linecap="round"/>
   </g>
  </g>
  <g id="play">
   <linearGradient gradientUnits="userSpaceOnUse" id="SVGID_18_" y1="651.369" y2="610.8581" x1="937.4933" x2="937.4933">
    <stop style="stop-color:#17191E" offset="0"/>
    <stop style="stop-color:#3C424F" offset="1"/>
   </linearGradient>
   <path stroke-miterlimit="10" stroke="#17191E" d="M948.3,651.4h-21.7&#xd;    c-10.7,0-19.5-8.8-19.5-19.5v-1.5c0-10.7,8.8-19.5,19.5-19.5h21.7c10.7,0,19.5,8.8,19.5,19.5v1.5&#xd;    C967.9,642.6,959.1,651.4,948.3,651.4z" fill="url(#SVGID_18_)" stroke-width="1.1229"/>
   <polygon stroke-linejoin="round" stroke-miterlimit="10" stroke="#FFFFFF" points="&#xd;    933,622.8 947.5,631.2 933,639.6   " fill="#FFFFFF" stroke-width="1.9906" stroke-linecap="round"/>
  </g>
  <g id="pause">
   <linearGradient gradientUnits="userSpaceOnUse" id="SVGID_19_" y1="810.869" y2="770.3581" x1="937.4933" x2="937.4933">
    <stop style="stop-color:#FFFFFF" offset="0"/>
    <stop style="stop-color:#FDFDFE" offset="0.3119"/>
    <stop style="stop-color:#F6F6F9" offset="0.4787"/>
    <stop style="stop-color:#E9EAEF" offset="0.6113"/>
    <stop style="stop-color:#D8DAE2" offset="0.7259"/>
    <stop style="stop-color:#C1C6D1" offset="0.8288"/>
    <stop style="stop-color:#A5AEBD" offset="0.9219"/>
    <stop style="stop-color:#8896AA" offset="1"/>
   </linearGradient>
   <path stroke-miterlimit="10" stroke="#282D34" d="M948.3,810.9h-21.7c-10.7,0-19.5-8.8-19.5-19.5v-1.5&#xd;    c0-10.7,8.8-19.5,19.5-19.5h21.7c10.7,0,19.5,8.8,19.5,19.5v1.5C967.9,802.1,959.1,810.9,948.3,810.9z" fill="url(#SVGID_19_)"/>
   <g>
    <line stroke-miterlimit="10" stroke="#282D34" y1="797.4" fill="none" y2="783.8" stroke-width="4" x1="933.3" x2="933.3" stroke-linecap="round"/>
    <line stroke-miterlimit="10" stroke="#282D34" y1="797.4" fill="none" y2="783.8" stroke-width="4" x1="942" x2="942" stroke-linecap="round"/>
   </g>
  </g>
  <g id="play-pressed">
   <linearGradient gradientUnits="userSpaceOnUse" id="SVGID_20_" y1="703.869" y2="663.3581" x1="937.4933" x2="937.4933">
    <stop style="stop-color:#17191E" offset="0"/>
    <stop style="stop-color:#3C424F" offset="1"/>
   </linearGradient>
   <path stroke-miterlimit="10" stroke="#17191E" d="M948.3,703.9h-21.7&#xd;    c-10.7,0-19.5-8.8-19.5-19.5v-1.5c0-10.7,8.8-19.5,19.5-19.5h21.7c10.7,0,19.5,8.8,19.5,19.5v1.5&#xd;    C967.9,695.1,959.1,703.9,948.3,703.9z" fill="url(#SVGID_20_)" stroke-width="1.1229"/>
   <polygon stroke-linejoin="round" stroke-miterlimit="10" stroke="#878787" points="&#xd;    933,675.3 947.5,683.7 933,692.1   " fill="#878787" stroke-width="1.9906" stroke-linecap="round"/>
  </g>
 </g>
 <g id="dropImpossible">
  <g>
   <circle stroke-miterlimit="10" r="8.5" stroke="#F39200" fill="none" cx="1015.7" cy="568.5" stroke-width="2.5333"/>
   <line stroke-miterlimit="10" stroke="#F39200" y1="562.5" fill="none" y2="574.6" stroke-width="2.5333" x1="1021.8" x2="1009.7"/>
  </g>
 </g>
 <g id="iconCombo">
  <polygon points="1082.7,570.4 1086.3,576.7 1090,570.4  " fill="#535A66"/>
 </g>
 <g id="check">
  <polyline stroke-linejoin="round" stroke-miterlimit="10" stroke="#FFFFFF" points="&#xd;   1084.1,590 1087.2,594.8 1091.7,587  " fill="none" stroke-linecap="round"/>
 </g>
 <g id="createButton">
  <g>
   <line stroke-miterlimit="10" stroke="#FFFFFF" y1="621" fill="none" y2="631.2" stroke-width="0.7642" x1="1107.5" x2="1107.5"/>
   <line stroke-miterlimit="10" stroke="#FFFFFF" y1="626.2" fill="none" y2="626.2" stroke-width="0.7642" x1="1112.6" x2="1102.5"/>
   <circle stroke-miterlimit="10" r="7.6" stroke="#FFFFFF" fill="none" cx="1107.5" cy="626.2" stroke-width="0.7642"/>
  </g>
 </g>
 <g id="createButton-pressed">
  <g>
   <line stroke-miterlimit="10" stroke="#878787" y1="620.5" fill="none" y2="630.6" stroke-width="0.7642" x1="1106.5" x2="1106.5"/>
   <line stroke-miterlimit="10" stroke="#878787" y1="625.6" fill="none" y2="625.6" stroke-width="0.7642" x1="1111.6" x2="1101.5"/>
   <circle stroke-miterlimit="10" r="7.6" stroke="#878787" fill="none" cx="1106.5" cy="625.6" stroke-width="0.7642"/>
  </g>
 </g>
 <g id="Calque_34">
  <g id="enabledToggle">
   <path d="M1057.7,672.4h49.9c5.1,0,9.2,4.1,9.2,9.2v4.4c0,5.1-4.1,9.2-9.2,9.2h-49.9c-5.1,0-9.2-4.1-9.2-9.2v-4.4&#xd;    C1048.5,676.5,1052.7,672.4,1057.7,672.4z" fill="#3C424F"/>
   <circle r="9.8" fill="#706F6F" cx="1060.5" cy="683.7"/>
   <g>
    <text font-family="Blogger Sans" font-size="13px" transform="matrix(1 0 0 1 1072.4248 687.8166)" fill="#706F6F">Disable</text>
   </g>
  </g>
  <g id="enabledToggle-checked_1_">
   <path d="M1104.9,728.2H1055c-5.1,0-9.2-4.1-9.2-9.2v-4.4c0-5.1,4.1-9.2,9.2-9.2h49.9c5.1,0,9.2,4.1,9.2,9.2v4.4&#xd;    C1114.1,724.1,1110,728.2,1104.9,728.2z" fill="#3C424F"/>
   <circle r="9.8" fill="#B2B2B2" cx="1102.2" cy="716.9"/>
   <g>
    <text font-family="Blogger Sans" font-size="13px" transform="matrix(1 0 0 1 1051.604 720.6014)" fill="#B2B2B2">Enable</text>
   </g>
  </g>
  <g id="enabledToggle-checked-pressed">
   <path d="M1102.4,762.7h-49.9c-5.1,0-9.2-4.1-9.2-9.2v-4.4c0-5.1,4.1-9.2,9.2-9.2h49.9c5.1,0,9.2,4.1,9.2,9.2v4.4&#xd;    C1111.6,758.6,1107.5,762.7,1102.4,762.7z" fill="#2C3138"/>
   <circle r="9.8" fill="#B2B2B2" cx="1099.7" cy="751.3"/>
   <g>
    <text font-family="Blogger Sans" font-size="13px" transform="matrix(1 0 0 1 1049.1157 755.0821)" fill="#B2B2B2">Enable</text>
   </g>
  </g>
  <g id="enabledToggle-pressed">
   <path d="M1050.4,769.5h49.9c5.1,0,9.2,4.1,9.2,9.2v4.4c0,5.1-4.1,9.2-9.2,9.2h-49.9c-5.1,0-9.2-4.1-9.2-9.2v-4.4&#xd;    C1041.2,773.6,1045.3,769.5,1050.4,769.5z" fill="#2C3138"/>
   <circle r="9.8" fill="#706F6F" cx="1053.2" cy="780.9"/>
   <g>
    <text font-family="Blogger Sans" font-size="13px" transform="matrix(1 0 0 1 1065.0889 784.9723)" fill="#706F6F">Disable</text>
   </g>
  </g>
 </g>
</svg>
